{
	"asset":{
		"generator":"Khronos glTF Blender I/O v3.5.30",
		"version":"2.0"
	},
	"scene":0,
	"scenes":[
		{
			"name":"Scene",
			"nodes":[
				0,
				1,
				2,
				3,
				4
			]
		}
	],
	"nodes":[
		{
			"mesh":0,
			"name":"Triangle_4"
		},
		{
			"mesh":1,
			"name":"Triangle_5"
		},
		{
			"mesh":2,
			"name":"Triangle_3"
		},
		{
			"mesh":3,
			"name":"Triangle_2"
		},
		{
			"mesh":4,
			"name":"Triangle_1"
		}
	],
	"materials":[
		{
			"doubleSided":true,
			"name":"Material.004",
			"pbrMetallicRoughness":{
				"baseColorFactor":[
					0,
					0.5299999713897705,
					0.9100000262260437,
					1
				],
				"metallicFactor":0,
				"roughnessFactor":0.5
			}
		},
		{
			"doubleSided":true,
			"name":"Material.005",
			"pbrMetallicRoughness":{
				"baseColorFactor":[
					0,
					0.5799999833106995,
					1,
					1
				],
				"metallicFactor":0,
				"roughnessFactor":0.5
			}
		},
		{
			"doubleSided":true,
			"name":"Material.003",
			"pbrMetallicRoughness":{
				"baseColorFactor":[
					0,
					0.4000000059604645,
					0.6899999976158142,
					1
				],
				"metallicFactor":0,
				"roughnessFactor":0.5
			}
		},
		{
			"doubleSided":true,
			"name":"Material.001",
			"pbrMetallicRoughness":{
				"baseColorFactor":[
					0,
					0.46000000834465027,
					0.800000011920929,
					1
				],
				"metallicFactor":0,
				"roughnessFactor":0.5
			}
		},
		{
			"doubleSided":true,
			"name":"Material.006",
			"pbrMetallicRoughness":{
				"baseColorFactor":[
					0,
					0.3499999940395355,
					0.6100000143051147,
					1
				],
				"metallicFactor":0,
				"roughnessFactor":0.5
			}
		}
	],
	"meshes":[
		{
			"name":"Triangle_4",
			"primitives":[
				{
					"attributes":{
						"POSITION":0,
						"TEXCOORD_0":1,
						"NORMAL":2
					},
					"indices":3,
					"material":0
				}
			]
		},
		{
			"name":"Triangle_5",
			"primitives":[
				{
					"attributes":{
						"POSITION":4,
						"TEXCOORD_0":5,
						"NORMAL":6
					},
					"indices":7,
					"material":1
				}
			]
		},
		{
			"name":"Triangle_3",
			"primitives":[
				{
					"attributes":{
						"POSITION":8,
						"TEXCOORD_0":9,
						"NORMAL":10
					},
					"indices":11,
					"material":2
				}
			]
		},
		{
			"name":"Triangle_2",
			"primitives":[
				{
					"attributes":{
						"POSITION":12,
						"TEXCOORD_0":13,
						"NORMAL":14
					},
					"indices":7,
					"material":3
				}
			]
		},
		{
			"name":"Triangle_1",
			"primitives":[
				{
					"attributes":{
						"POSITION":15,
						"TEXCOORD_0":16,
						"NORMAL":17
					},
					"indices":3,
					"material":4
				}
			]
		}
	],
	"accessors":[
		{
			"bufferView":0,
			"componentType":5126,
			"count":18,
			"max":[
				0.08487655967473984,
				0.012500000186264515,
				0.009740255773067474
			],
			"min":[
				0.05085396021604538,
				-0.012500000186264515,
				-0.01967579871416092
			],
			"type":"VEC3"
		},
		{
			"bufferView":1,
			"componentType":5126,
			"count":18,
			"type":"VEC2"
		},
		{
			"bufferView":2,
			"componentType":5126,
			"count":18,
			"type":"VEC3"
		},
		{
			"bufferView":3,
			"componentType":5123,
			"count":24,
			"type":"SCALAR"
		},
		{
			"bufferView":4,
			"componentType":5126,
			"count":18,
			"max":[
				0.08487655967473984,
				0.012500000186264515,
				-0.019675515592098236
			],
			"min":[
				0.05085396021604538,
				-0.012500000186264515,
				-0.04909157007932663
			],
			"type":"VEC3"
		},
		{
			"bufferView":5,
			"componentType":5126,
			"count":18,
			"type":"VEC2"
		},
		{
			"bufferView":6,
			"componentType":5126,
			"count":18,
			"type":"VEC3"
		},
		{
			"bufferView":7,
			"componentType":5123,
			"count":24,
			"type":"SCALAR"
		},
		{
			"bufferView":8,
			"componentType":5126,
			"count":18,
			"max":[
				0.06784381717443466,
				0.012500000186264515,
				0.06857236474752426
			],
			"min":[
				-0.00010539591312408447,
				-0.012500000186264515,
				0.009739689528942108
			],
			"type":"VEC3"
		},
		{
			"bufferView":9,
			"componentType":5126,
			"count":18,
			"type":"VEC2"
		},
		{
			"bufferView":10,
			"componentType":5126,
			"count":18,
			"type":"VEC3"
		},
		{
			"bufferView":11,
			"componentType":5123,
			"count":24,
			"type":"SCALAR"
		},
		{
			"bufferView":12,
			"componentType":5126,
			"count":18,
			"max":[
				0.06784381717443466,
				0.012500000186264515,
				0.009740255773067474
			],
			"min":[
				-0.00010539591312408447,
				-0.012500000186264515,
				-0.04909185320138931
			],
			"type":"VEC3"
		},
		{
			"bufferView":13,
			"componentType":5126,
			"count":18,
			"type":"VEC2"
		},
		{
			"bufferView":14,
			"componentType":5126,
			"count":18,
			"type":"VEC3"
		},
		{
			"bufferView":15,
			"componentType":5126,
			"count":18,
			"max":[
				0.03379958122968674,
				0.012500000186264515,
				0.06874550133943558
			],
			"min":[
				-0.10209602117538452,
				-0.012500000186264515,
				-0.048918716609478
			],
			"type":"VEC3"
		},
		{
			"bufferView":16,
			"componentType":5126,
			"count":18,
			"type":"VEC2"
		},
		{
			"bufferView":17,
			"componentType":5126,
			"count":18,
			"type":"VEC3"
		}
	],
	"bufferViews":[
		{
			"buffer":0,
			"byteLength":216,
			"byteOffset":0,
			"target":34962
		},
		{
			"buffer":0,
			"byteLength":144,
			"byteOffset":216,
			"target":34962
		},
		{
			"buffer":0,
			"byteLength":216,
			"byteOffset":360,
			"target":34962
		},
		{
			"buffer":0,
			"byteLength":48,
			"byteOffset":576,
			"target":34963
		},
		{
			"buffer":0,
			"byteLength":216,
			"byteOffset":624,
			"target":34962
		},
		{
			"buffer":0,
			"byteLength":144,
			"byteOffset":840,
			"target":34962
		},
		{
			"buffer":0,
			"byteLength":216,
			"byteOffset":984,
			"target":34962
		},
		{
			"buffer":0,
			"byteLength":48,
			"byteOffset":1200,
			"target":34963
		},
		{
			"buffer":0,
			"byteLength":216,
			"byteOffset":1248,
			"target":34962
		},
		{
			"buffer":0,
			"byteLength":144,
			"byteOffset":1464,
			"target":34962
		},
		{
			"buffer":0,
			"byteLength":216,
			"byteOffset":1608,
			"target":34962
		},
		{
			"buffer":0,
			"byteLength":48,
			"byteOffset":1824,
			"target":34963
		},
		{
			"buffer":0,
			"byteLength":216,
			"byteOffset":1872,
			"target":34962
		},
		{
			"buffer":0,
			"byteLength":144,
			"byteOffset":2088,
			"target":34962
		},
		{
			"buffer":0,
			"byteLength":216,
			"byteOffset":2232,
			"target":34962
		},
		{
			"buffer":0,
			"byteLength":216,
			"byteOffset":2448,
			"target":34962
		},
		{
			"buffer":0,
			"byteLength":144,
			"byteOffset":2664,
			"target":34962
		},
		{
			"buffer":0,
			"byteLength":216,
			"byteOffset":2808,
			"target":34962
		}
	],
	"buffers":[
		{
			"byteLength":3024,
			"uri":"data:application/octet-stream;base64,"
		}
	]
}
