<?xml version="1.0" encoding="UTF-8" standalone="no"?>
<!DOCTYPE svg PUBLIC "-//W3C//DTD SVG 1.1//EN" "http://www.w3.org/Graphics/SVG/1.1/DTD/svg11.dtd">
<svg width="100%" height="100%" viewBox="0 0 981 50" version="1.1" xmlns="http://www.w3.org/2000/svg" xmlns:xlink="http://www.w3.org/1999/xlink" xml:space="preserve" xmlns:serif="http://www.serif.com/" style="fill-rule:evenodd;clip-rule:evenodd;stroke-miterlimit:10;">
    <g transform="matrix(1,0,0,-1,0,322)">
        <path d="M0,297L981,297" style="fill:none;fill-rule:nonzero;stroke:black;stroke-width:1.5px;"/>
    </g>
    <g transform="matrix(1,0,0,-1,0,322)">
        <path d="M24.525,295L24.525,299M49.05,295L49.05,299M73.575,295L73.575,299M122.625,295L122.625,299M147.15,295L147.15,299M171.675,295L171.675,299M220.725,295L220.725,299M245.25,295L245.25,299M269.775,295L269.775,299M318.825,295L318.825,299M343.35,295L343.35,299M367.875,295L367.875,299M416.925,295L416.925,299M441.45,295L441.45,299M465.975,295L465.975,299M515.025,295L515.025,299M539.55,295L539.55,299M564.075,295L564.075,299M613.125,295L613.125,299M637.65,295L637.65,299M662.175,295L662.175,299M711.225,295L711.225,299M735.75,295L735.75,299M760.275,295L760.275,299M809.325,295L809.325,299M833.85,295L833.85,299M858.375,295L858.375,299M907.425,295L907.425,299M931.95,295L931.95,299M956.475,295L956.475,299" style="fill:none;fill-rule:nonzero;stroke:black;stroke-width:1.5px;"/>
    </g>
    <g transform="matrix(1,0,0,-1,0,322)">
        <path d="M98.1,293L98.1,301M196.2,293L196.2,301M294.3,293L294.3,301M392.4,293L392.4,301M490.5,293L490.5,301M588.6,293L588.6,301M686.7,293L686.7,301M784.8,293L784.8,301M882.9,293L882.9,301" style="fill:none;fill-rule:nonzero;stroke:black;stroke-width:1.5px;"/>
    </g>
    <g transform="matrix(1,0,0,1,0,-272)">
        <clipPath id="_clip1">
            <rect x="0" y="281.951" width="981" height="18.049" clip-rule="nonzero"/>
        </clipPath>
        <g clip-path="url(#_clip1)">
            <g transform="matrix(1,0,0,-1,0,581.905)">
                <path d="M0,293.883L0.24,294.039L0.479,294.19L0.719,294.338L0.958,294.483L1.198,294.624L1.437,294.761L1.677,294.895L1.916,295.024L2.156,295.15L2.395,295.272L2.635,295.39L2.874,295.504L3.114,295.614L3.353,295.72L3.593,295.822L3.832,295.919L4.072,296.012L4.311,296.101L4.551,296.186L4.79,296.267L5.03,296.343L5.269,296.415L5.509,296.482L5.748,296.545L5.988,296.604L6.227,296.658L6.467,296.708L6.706,296.753L6.946,296.793L7.185,296.829L7.425,296.861L7.664,296.888L7.904,296.91L8.143,296.928L8.383,296.941L8.622,296.95L8.862,296.954L9.101,296.954L9.341,296.948L9.58,296.939L9.82,296.924L10.059,296.905L10.299,296.882L10.538,296.854L10.778,296.821L11.017,296.784L11.257,296.742L11.496,296.696L11.736,296.646L11.975,296.59L12.215,296.531L12.454,296.467L12.694,296.398L12.933,296.325L13.173,296.248L13.412,296.166L13.652,296.081L13.891,295.991L14.131,295.896L14.37,295.798L14.61,295.695L14.849,295.588L15.089,295.477L15.328,295.362L15.568,295.243L15.807,295.121L16.047,294.994L16.286,294.863L16.526,294.729L16.765,294.591L17.005,294.449L17.244,294.303L17.484,294.154L17.723,294.002L17.963,293.846L18.202,293.686L18.442,293.523L18.681,293.357L18.921,293.188L19.16,293.016L19.4,292.84L19.639,292.661L19.879,292.48L20.118,292.295L20.358,292.108L20.597,291.918L20.837,291.725L21.076,291.53L21.316,291.332L21.555,291.132L21.795,290.929L22.034,290.724L22.274,290.517L22.513,290.308L22.753,290.096L22.992,289.883L23.232,289.668L23.471,289.451L23.711,289.232L23.95,289.012L24.19,288.79L24.429,288.566L24.669,288.341L24.908,288.115L25.148,287.888L25.387,287.659L25.627,287.429L25.866,287.199L26.106,286.967L26.345,286.735L26.585,286.502L26.824,286.269L27.064,286.034L27.303,285.8L27.543,285.565L27.782,285.33L28.022,285.095L28.261,284.951L28.501,285.186L28.74,285.422L28.98,285.657L29.219,285.891L29.459,286.126L29.698,286.359L29.938,286.593L30.177,286.825L30.417,287.057" style="fill:none;fill-rule:nonzero;stroke:black;stroke-width:1px;"/>
            </g>
            <g transform="matrix(1,0,0,-1,0,579.799)">
                <path d="M30.417,284.951L30.656,285.182L30.896,285.412L31.135,285.642L31.375,285.87L31.614,286.097L31.854,286.322L32.093,286.547L32.333,286.77L32.572,286.991L32.812,287.211L33.051,287.429L33.291,287.645L33.53,287.86L33.77,288.072L34.009,288.283L34.249,288.492L34.488,288.698L34.728,288.902L34.967,289.104L35.207,289.303L35.446,289.5L35.686,289.694L35.925,289.886L36.165,290.075L36.404,290.261L36.644,290.444L36.883,290.625L37.123,290.802L37.362,290.977L37.602,291.148L37.841,291.316L38.081,291.481L38.32,291.642L38.56,291.8L38.799,291.955L39.039,292.106L39.278,292.254L39.518,292.398L39.757,292.538L39.997,292.675L40.236,292.808L40.476,292.937L40.715,293.062L40.955,293.184L41.194,293.301L41.434,293.414L41.673,293.524L41.913,293.629L42.152,293.73L42.392,293.827L42.631,293.92L42.871,294.008L43.11,294.092L43.35,294.172L43.589,294.248L43.829,294.319L44.068,294.386L44.308,294.448L44.547,294.506L44.787,294.559L45.026,294.608L45.266,294.653L45.505,294.693L45.745,294.728L45.984,294.759L46.224,294.785L46.463,294.807L46.703,294.824L46.942,294.837L47.182,294.844L47.421,294.848L47.661,294.847L47.9,294.841L48.14,294.83L48.379,294.815L48.619,294.796L48.858,294.772L49.098,294.743L49.337,294.709L49.577,294.672L49.816,294.629L50.056,294.582L50.295,294.531L50.535,294.475L50.774,294.415L51.014,294.35L51.253,294.281L51.493,294.207L51.732,294.13L51.972,294.047L52.211,293.961L52.451,293.87L52.69,293.775L52.93,293.676L53.169,293.573L53.409,293.465L53.648,293.354L53.888,293.238L54.127,293.119L54.367,292.995L54.606,292.868L54.846,292.737L55.085,292.602L55.325,292.463L55.564,292.321L55.804,292.175L56.043,292.025L56.283,291.872L56.522,291.715L56.762,291.555L57.001,291.392L57.241,291.226L57.48,291.056L57.72,290.883L57.959,290.707L58.199,290.528L58.438,290.346L58.678,290.161L58.917,289.973L59.157,289.783L59.396,289.59L59.636,289.394L59.875,289.196L60.115,288.995L60.354,288.792L60.594,288.587L60.834,288.379" style="fill:none;fill-rule:nonzero;stroke:black;stroke-width:1px;"/>
            </g>
            <g transform="matrix(1,0,0,-1,0,581.87)">
                <path d="M60.834,290.45L61.073,290.241L61.313,290.029L61.552,289.815L61.792,289.6L62.031,289.382L62.271,289.163L62.51,288.943L62.75,288.72L62.989,288.497L63.229,288.272L63.468,288.045L63.708,287.818L63.947,287.589L64.187,287.359L64.426,287.128L64.666,286.897L64.905,286.664L65.145,286.431L65.384,286.198L65.624,285.964L65.863,285.729L66.103,285.494L66.342,285.259L66.582,285.024L66.821,284.951L67.061,285.186L67.3,285.421L67.54,285.656L67.779,285.891L68.019,286.125L68.258,286.359L68.498,286.592L68.737,286.825L68.977,287.057L69.216,287.288L69.456,287.518L69.695,287.747L69.935,287.975L70.174,288.202L70.414,288.427L70.653,288.651L70.893,288.874L71.132,289.095L71.372,289.315L71.611,289.533L71.851,289.749L72.09,289.963L72.33,290.175L72.569,290.385L72.809,290.594L73.048,290.8L73.288,291.003L73.527,291.205L73.767,291.404L74.006,291.6L74.246,291.794L74.485,291.985L74.725,292.174L74.964,292.36L75.204,292.543L75.443,292.722L75.683,292.899L75.922,293.073L76.162,293.244L76.401,293.412L76.641,293.576L76.88,293.737L77.12,293.895L77.359,294.049L77.599,294.2L77.838,294.347L78.078,294.49L78.317,294.63L78.557,294.766L78.796,294.899L79.036,295.027L79.275,295.152L79.515,295.272L79.754,295.389L79.994,295.502L80.233,295.611L80.473,295.715L80.712,295.816L80.952,295.912L81.191,296.004L81.431,296.092L81.67,296.175L81.91,296.255L82.149,296.33L82.389,296.4L82.628,296.466L82.868,296.528L83.107,296.585L83.347,296.638L83.586,296.686L83.826,296.73L84.065,296.769L84.305,296.804L84.544,296.834L84.784,296.86L85.023,296.881L85.263,296.897L85.502,296.909L85.742,296.916L85.981,296.919L86.221,296.917L86.46,296.91L86.7,296.899L86.939,296.884L87.179,296.863L87.418,296.838L87.658,296.809L87.897,296.775L88.137,296.736L88.376,296.693L88.616,296.646L88.855,296.594L89.095,296.537L89.334,296.476L89.574,296.411L89.813,296.341L90.053,296.267L90.292,296.188L90.532,296.105L90.771,296.018L91.011,295.927L91.25,295.831" style="fill:none;fill-rule:nonzero;stroke:black;stroke-width:1px;"/>
            </g>
            <g transform="matrix(1,0,0,-1,0,582.16)">
                <path d="M91.25,296.121L91.49,296.022L91.729,295.918L91.969,295.81L92.208,295.698L92.448,295.581L92.687,295.461L92.927,295.337L93.166,295.209L93.406,295.078L93.645,294.942L93.885,294.803L94.124,294.66L94.364,294.513L94.603,294.363L94.843,294.21L95.082,294.053L95.322,293.892L95.561,293.728L95.801,293.561L96.04,293.391L96.28,293.218L96.519,293.041L96.759,292.862L96.998,292.679L97.238,292.494L97.477,292.306L97.717,292.115L97.956,291.921L98.196,291.725L98.435,291.527L98.675,291.326L98.914,291.122L99.154,290.917L99.393,290.709L99.633,290.499L99.872,290.287L100.112,290.073L100.351,289.857L100.591,289.64L100.83,289.42L101.07,289.199L101.309,288.977L101.549,288.753L101.788,288.528L102.028,288.301L102.267,288.073L102.507,287.844L102.746,287.615L102.986,287.384L103.225,287.152L103.465,286.92L103.704,286.686L103.944,286.453L104.183,286.218L104.423,285.984L104.662,285.749L104.902,285.514L105.141,285.278L105.381,285.276L105.62,285.512L105.86,285.747L106.099,285.982L106.339,286.216L106.578,286.451L106.818,286.684L107.057,286.917L107.297,287.15L107.536,287.382L107.776,287.612L108.015,287.842L108.255,288.071L108.494,288.299L108.734,288.526L108.973,288.751L109.213,288.975L109.452,289.197L109.692,289.418L109.931,289.638L110.171,289.855L110.41,290.071L110.65,290.285L110.889,290.497L111.129,290.707L111.368,290.915L111.608,291.12L111.847,291.324L112.087,291.525L112.326,291.724L112.566,291.92L112.805,292.113L113.045,292.304L113.284,292.492L113.524,292.677L113.763,292.86L114.003,293.039L114.242,293.216L114.482,293.389L114.721,293.56L114.961,293.727L115.2,293.891L115.44,294.051L115.679,294.208L115.919,294.362L116.158,294.512L116.398,294.659L116.638,294.802L116.877,294.941L117.117,295.076L117.356,295.208L117.596,295.336L117.835,295.46L118.075,295.58L118.314,295.697L118.554,295.809L118.793,295.917L119.033,296.021L119.272,296.121L119.512,296.216L119.751,296.308L119.991,296.395L120.23,296.478L120.47,296.556L120.709,296.63L120.949,296.7L121.188,296.766L121.428,296.827L121.667,296.883" style="fill:none;fill-rule:nonzero;stroke:black;stroke-width:1px;"/>
            </g>
            <g transform="matrix(1,0,0,-1,0,581.867)">
                <path d="M121.667,296.591L121.907,296.643L122.146,296.691L122.385,296.734L122.625,296.773L122.865,296.806L123.104,296.836L123.344,296.861L123.583,296.881L123.822,296.897L124.062,296.908L124.302,296.915L124.541,296.917L124.781,296.914L125.02,296.907L125.26,296.895L125.499,296.879L125.739,296.858L125.978,296.832L126.218,296.802L126.457,296.767L126.697,296.728L126.936,296.684L127.175,296.636L127.415,296.583L127.655,296.526L127.894,296.465L128.133,296.398L128.373,296.328L128.612,296.253L128.852,296.174L129.092,296.09L129.331,296.003L129.571,295.911L129.81,295.814L130.05,295.714L130.289,295.609L130.529,295.501L130.768,295.388L131.008,295.271L131.247,295.151L131.487,295.026L131.726,294.898L131.966,294.765L132.205,294.629L132.445,294.489L132.684,294.346L132.924,294.199L133.163,294.048L133.403,293.894L133.642,293.736L133.882,293.575L134.121,293.411L134.361,293.244L134.6,293.073L134.84,292.899L135.079,292.722L135.319,292.542L135.558,292.359L135.798,292.173L136.037,291.985L136.277,291.794L136.516,291.6L136.756,291.403L136.995,291.204L137.235,291.003L137.474,290.799L137.714,290.593L137.953,290.385L138.193,290.175L138.432,289.963L138.672,289.748L138.911,289.532L139.151,289.314L139.39,289.095L139.63,288.874L139.869,288.651L140.109,288.427L140.348,288.201L140.588,287.975L140.827,287.747L141.067,287.518L141.306,287.288L141.546,287.057L141.785,286.825L142.025,286.592L142.264,286.359L142.504,286.125L142.743,285.891L142.983,285.656L143.222,285.421L143.462,285.186L143.701,284.951L143.941,285.019L144.18,285.255L144.42,285.49L144.659,285.725L144.899,285.959L145.138,286.193L145.378,286.427L145.617,286.66L145.857,286.893L146.096,287.124L146.336,287.355L146.575,287.585L146.815,287.813L147.054,288.041L147.294,288.267L147.533,288.492L147.773,288.716L148.012,288.938L148.252,289.159L148.491,289.378L148.731,289.596L148.97,289.811L149.21,290.025L149.449,290.237L149.689,290.446L149.928,290.654L150.168,290.859L150.407,291.062L150.647,291.263L150.886,291.461L151.126,291.657L151.365,291.85L151.605,292.04L151.844,292.228L152.084,292.413" style="fill:none;fill-rule:nonzero;stroke:black;stroke-width:1px;"/>
            </g>
            <g transform="matrix(1,0,0,-1,0,581.903)">
                <path d="M152.084,292.448L152.323,292.63L152.563,292.809L152.802,292.986L153.042,293.159L153.281,293.328L153.521,293.495L153.76,293.658L154,293.818L154.239,293.975L154.479,294.128L154.718,294.278L154.958,294.424L155.197,294.566L155.437,294.705L155.676,294.84L155.916,294.971L156.155,295.098L156.395,295.222L156.634,295.341L156.874,295.457L157.113,295.569L157.353,295.676L157.592,295.779L157.832,295.879L158.071,295.974L158.311,296.064L158.55,296.151L158.79,296.233L159.029,296.311L159.269,296.385L159.508,296.454L159.748,296.519L159.987,296.579L160.227,296.635L160.466,296.686L160.706,296.733L160.945,296.776L161.185,296.813L161.424,296.847L161.664,296.876L161.903,296.9L162.143,296.919L162.382,296.935L162.622,296.945L162.861,296.951L163.101,296.952L163.34,296.949L163.58,296.941L163.819,296.928L164.059,296.911L164.298,296.89L164.538,296.863L164.777,296.833L165.017,296.797L165.256,296.757L165.496,296.713L165.735,296.664L165.975,296.611L166.214,296.553L166.454,296.49L166.693,296.424L166.933,296.353L167.172,296.277L167.412,296.197L167.651,296.113L167.891,296.025L168.13,295.932L168.37,295.835L168.609,295.734L168.849,295.629L169.088,295.52L169.328,295.406L169.567,295.289L169.807,295.168L170.046,295.043L170.286,294.914L170.525,294.781L170.765,294.644L171.004,294.504L171.244,294.36L171.483,294.212L171.723,294.061L171.962,293.906L172.202,293.748L172.441,293.586L172.681,293.422L172.92,293.254L173.16,293.082L173.399,292.908L173.639,292.731L173.878,292.55L174.118,292.367L174.357,292.181L174.597,291.992L174.836,291.8L175.076,291.606L175.315,291.409L175.555,291.21L175.794,291.008L176.034,290.804L176.273,290.598L176.513,290.389L176.752,290.179L176.992,289.966L177.231,289.752L177.471,289.535L177.71,289.317L177.95,289.097L178.189,288.876L178.429,288.653L178.669,288.429L178.908,288.203L179.147,287.976L179.387,287.748L179.627,287.519L179.866,287.288L180.105,287.057L180.345,286.825L180.585,286.593L180.824,286.359L181.063,286.126L181.303,285.891L181.543,285.656L181.782,285.421L182.022,285.186L182.261,284.951L182.5,285.09" style="fill:none;fill-rule:nonzero;stroke:black;stroke-width:1px;"/>
            </g>
            <g transform="matrix(1,0,0,-1,0,581.764)">
                <path d="M182.5,284.951L182.74,285.186L182.979,285.421L183.219,285.656L183.459,285.891L183.698,286.125L183.938,286.358L184.177,286.591L184.416,286.824L184.656,287.055L184.896,287.286L185.135,287.515L185.374,287.744L185.614,287.971L185.854,288.198L186.093,288.422L186.333,288.646L186.572,288.868L186.812,289.088L187.051,289.307L187.29,289.524L187.53,289.74L187.769,289.953L188.009,290.164L188.248,290.374L188.488,290.581L188.728,290.786L188.967,290.989L189.206,291.189L189.446,291.387L189.686,291.582L189.925,291.775L190.165,291.965L190.404,292.152L190.644,292.337L190.883,292.518L191.123,292.697L191.362,292.872L191.602,293.045L191.841,293.214L192.081,293.38L192.32,293.543L192.56,293.703L192.799,293.859L193.039,294.011L193.278,294.16L193.518,294.306L193.757,294.448L193.997,294.586L194.236,294.72L194.476,294.851L194.715,294.978L194.955,295.101L195.194,295.22L195.434,295.335L195.673,295.446L195.913,295.552L196.152,295.655L196.392,295.754L196.631,295.848L196.871,295.938L197.11,296.024L197.35,296.106L197.589,296.183L197.829,296.256L198.068,296.325L198.308,296.389L198.547,296.448L198.787,296.503L199.026,296.554L199.266,296.6L199.505,296.642L199.745,296.679L199.984,296.712L200.224,296.74L200.463,296.764L200.703,296.783L200.942,296.797L201.182,296.807L201.421,296.812L201.661,296.813L201.9,296.809L202.14,296.8L202.379,296.787L202.619,296.769L202.858,296.747L203.098,296.72L203.337,296.688L203.577,296.652L203.816,296.612L204.056,296.566L204.295,296.517L204.535,296.463L204.774,296.404L205.014,296.341L205.253,296.274L205.493,296.202L205.732,296.126L205.972,296.046L206.211,295.961L206.451,295.872L206.69,295.778L206.93,295.681L207.169,295.579L207.409,295.473L207.648,295.364L207.888,295.25L208.127,295.132L208.367,295.01L208.606,294.884L208.846,294.754L209.085,294.621L209.325,294.484L209.564,294.343L209.804,294.198L210.043,294.05L210.283,293.898L210.522,293.743L210.762,293.584L211.001,293.422L211.241,293.257L211.48,293.089L211.72,292.917L211.959,292.742L212.199,292.564L212.438,292.383L212.678,292.2L212.917,292.013" style="fill:none;fill-rule:nonzero;stroke:black;stroke-width:1px;"/>
            </g>
            <g transform="matrix(1,0,0,-1,0,581.939)">
                <path d="M212.917,292.188L213.157,291.999L213.396,291.807L213.636,291.612L213.875,291.415L214.115,291.215L214.354,291.013L214.594,290.809L214.833,290.602L215.073,290.393L215.312,290.183L215.552,289.97L215.791,289.755L216.031,289.538L216.27,289.32L216.51,289.1L216.749,288.878L216.989,288.655L217.228,288.43L217.468,288.205L217.707,287.977L217.947,287.749L218.186,287.52L218.426,287.289L218.665,287.058L218.905,286.826L219.144,286.593L219.384,286.36L219.623,286.126L219.863,285.892L220.102,285.657L220.342,285.422L220.821,284.951L221.06,285.162L221.3,285.397L221.539,285.632L221.779,285.867L222.018,286.101L222.258,286.335L222.497,286.569L222.737,286.801L222.976,287.034L223.216,287.265L223.455,287.495L223.695,287.725L223.934,287.953L224.174,288.18L224.413,288.407L224.653,288.631L224.892,288.855L225.132,289.076L225.371,289.297L225.611,289.515L225.85,289.732L226.09,289.947L226.329,290.16L226.569,290.371L226.808,290.58L227.048,290.787L227.287,290.992L227.527,291.194L227.766,291.394L228.006,291.591L228.245,291.786L228.485,291.979L228.724,292.168L228.964,292.355L229.203,292.539L229.443,292.72L229.682,292.898L229.922,293.074L230.161,293.246L230.401,293.415L230.64,293.58L230.88,293.743L231.119,293.901L231.359,294.057L231.598,294.209L231.838,294.358L232.077,294.503L232.317,294.644L232.556,294.782L232.796,294.915L233.035,295.045L233.275,295.172L233.514,295.294L233.754,295.412L233.993,295.527L234.233,295.637L234.472,295.743L234.712,295.845L234.951,295.943L235.191,296.037L235.43,296.127L235.67,296.212L235.909,296.293L236.149,296.369L236.388,296.442L236.628,296.509L236.867,296.573L237.107,296.632L237.346,296.686L237.586,296.737L237.825,296.782L238.065,296.823L238.304,296.86L238.544,296.892L238.783,296.919L239.023,296.942L239.262,296.96L239.502,296.974L239.741,296.983L239.981,296.987L240.22,296.987L240.46,296.983L240.699,296.973L240.939,296.959L241.178,296.941L241.418,296.918L241.658,296.89L241.897,296.858L242.136,296.821L242.376,296.78L242.615,296.734L242.855,296.684L243.094,296.629L243.334,296.57" style="fill:none;fill-rule:nonzero;stroke:black;stroke-width:1px;"/>
            </g>
            <g transform="matrix(1,0,0,-1,0,582.346)">
                <path d="M243.334,296.977L243.573,296.914L243.813,296.845L244.053,296.773L244.292,296.696L244.532,296.615L244.771,296.53L245.01,296.44L245.25,296.346L245.49,296.248L245.729,296.146L245.969,296.039L246.208,295.929L246.448,295.814L246.687,295.696L246.927,295.573L247.166,295.447L247.405,295.317L247.645,295.183L247.885,295.045L248.124,294.903L248.363,294.758L248.603,294.61L248.843,294.457L249.082,294.301L249.322,294.142L249.561,293.98L249.801,293.814L250.04,293.645L250.279,293.473L250.519,293.298L250.759,293.119L250.998,292.938L251.237,292.754L251.477,292.567L251.717,292.377L251.956,292.185L252.196,291.99L252.435,291.792L252.675,291.592L252.914,291.39L253.154,291.185L253.393,290.978L253.633,290.769L253.872,290.558L254.112,290.344L254.351,290.129L254.591,289.913L254.83,289.694L255.07,289.473L255.309,289.252L255.549,289.028L255.788,288.803L256.028,288.578L256.267,288.35L256.507,288.122L256.746,287.892L256.986,287.662L257.225,287.43L257.465,287.198L257.704,286.965L257.944,286.732L258.183,286.498L258.423,286.263L258.662,286.028L258.902,285.793L259.141,285.558L259.381,285.369L259.62,285.604L259.86,285.839L260.099,286.074L260.339,286.309L260.578,286.543L260.818,286.777L261.057,287.011L261.297,287.243L261.536,287.475L261.776,287.707L262.015,287.937L262.255,288.166L262.494,288.395L262.734,288.621L262.973,288.847L263.213,289.072L263.452,289.295L263.692,289.516L263.931,289.736L264.171,289.955L264.41,290.171L264.65,290.386L264.889,290.599L265.129,290.81L265.368,291.018L265.608,291.225L265.847,291.429L266.087,291.631L266.326,291.831L266.566,292.028L266.805,292.222L267.045,292.414L267.284,292.603L267.524,292.79L267.763,292.973L268.003,293.154L268.242,293.332L268.482,293.507L268.721,293.678L268.961,293.847L269.2,294.012L269.44,294.174L269.679,294.332L269.919,294.487L270.158,294.639L270.398,294.787L270.637,294.931L270.877,295.072L271.116,295.209L271.356,295.342L271.595,295.472L271.835,295.597L272.074,295.719L272.314,295.837L272.553,295.95L272.793,296.06L273.032,296.166L273.272,296.267L273.511,296.365L273.751,296.458" style="fill:none;fill-rule:nonzero;stroke:black;stroke-width:1px;"/>
            </g>
            <g transform="matrix(1,0,0,-1,0,581.893)">
                <path d="M273.751,296.005L273.99,296.094L274.23,296.178L274.469,296.258L274.709,296.334L274.948,296.406L275.188,296.473L275.427,296.536L275.667,296.594L275.906,296.648L276.146,296.698L276.385,296.742L276.625,296.783L276.864,296.819L277.104,296.85L277.343,296.877L277.583,296.899L277.822,296.916L278.062,296.929L278.301,296.938L278.541,296.942L278.78,296.941L279.02,296.935L279.259,296.925L279.499,296.911L279.738,296.892L279.978,296.868L280.217,296.84L280.457,296.807L280.696,296.769L280.936,296.727L281.175,296.681L281.415,296.63L281.654,296.575L281.894,296.515L282.133,296.45L282.373,296.382L282.612,296.309L282.852,296.231L283.091,296.149L283.331,296.063L283.57,295.973L283.81,295.878L284.049,295.78L284.289,295.677L284.528,295.57L284.768,295.459L285.007,295.344L285.247,295.224L285.486,295.101L285.726,294.974L285.965,294.844L286.205,294.709L286.444,294.571L286.684,294.429L286.923,294.283L287.163,294.134L287.402,293.981L287.642,293.825L287.881,293.665L288.121,293.502L288.36,293.336L288.6,293.166L288.839,292.994L289.079,292.818L289.318,292.639L289.558,292.457L289.797,292.273L290.037,292.085L290.276,291.895L290.516,291.702L290.755,291.507L290.995,291.309L291.234,291.109L291.474,290.906L291.713,290.701L291.953,290.493L292.192,290.284L292.432,290.073L292.671,289.859L292.911,289.644L293.15,289.427L293.39,289.208L293.629,288.987L293.869,288.765L294.108,288.542L294.348,288.317L294.587,288.09L294.827,287.863L295.066,287.634L295.306,287.404L295.545,287.174L295.785,286.942L296.024,286.71L296.264,286.477L296.503,286.244L296.743,286.009L296.982,285.775L297.222,285.54L297.461,285.305L297.701,285.07L297.94,284.951L298.18,285.186L298.419,285.421L298.659,285.656L298.898,285.891L299.138,286.125L299.377,286.359L299.617,286.593L299.856,286.825L300.096,287.057L300.335,287.288L300.575,287.518L300.815,287.748L301.054,287.976L301.293,288.203L301.533,288.428L301.773,288.652L302.012,288.875L302.251,289.097L302.491,289.316L302.73,289.534L302.97,289.751L303.21,289.965L303.449,290.178L303.688,290.388L303.928,290.596L304.168,290.803" style="fill:none;fill-rule:nonzero;stroke:black;stroke-width:1px;"/>
            </g>
            <g transform="matrix(1,0,0,-1,0,580.168)">
                <path d="M304.168,289.079L304.407,289.282L304.647,289.484L304.886,289.683L305.126,289.88L305.365,290.074L305.605,290.266L305.844,290.455L306.083,290.641L306.323,290.824L306.563,291.004L306.802,291.181L307.042,291.356L307.281,291.527L307.52,291.695L307.76,291.859L307.999,292.02L308.239,292.178L308.478,292.333L308.718,292.484L308.958,292.632L309.197,292.775L309.436,292.916L309.676,293.052L309.915,293.185L310.155,293.314L310.395,293.439L310.634,293.56L310.874,293.677L311.113,293.79L311.353,293.899L311.592,294.004L311.831,294.105L312.071,294.202L312.311,294.294L312.55,294.382L312.79,294.466L313.029,294.546L313.269,294.621L313.508,294.692L313.748,294.759L313.987,294.821L314.227,294.879L314.466,294.932L314.706,294.981L314.945,295.025L315.185,295.064L315.424,295.1L315.664,295.13L315.903,295.156L316.143,295.178L316.382,295.195L316.622,295.207L316.861,295.215L317.101,295.218L317.34,295.216L317.58,295.21L317.819,295.199L318.059,295.184L318.298,295.164L318.538,295.14L318.777,295.111L319.017,295.077L319.256,295.039L319.496,294.997L319.735,294.95L319.975,294.898L320.214,294.842L320.454,294.781L320.693,294.716L320.933,294.647L321.172,294.573L321.412,294.495L321.651,294.413L321.891,294.326L322.13,294.235L322.37,294.14L322.609,294.04L322.849,293.937L323.088,293.829L323.328,293.717L323.567,293.602L323.807,293.482L324.046,293.358L324.286,293.231L324.525,293.099L324.765,292.964L325.004,292.825L325.244,292.683L325.483,292.537L325.723,292.387L325.962,292.234L326.202,292.077L326.441,291.917L326.681,291.753L326.92,291.586L327.16,291.416L327.399,291.243L327.639,291.067L327.878,290.888L328.118,290.706L328.357,290.521L328.597,290.333L328.836,290.142L329.076,289.949L329.315,289.753L329.555,289.555L329.794,289.354L330.034,289.151L330.273,288.946L330.513,288.738L330.752,288.528L330.992,288.316L331.231,288.103L331.471,287.887L331.71,287.67L331.95,287.451L332.189,287.23L332.429,287.007L332.668,286.784L332.908,286.558L333.147,286.332L333.387,286.104L333.626,285.876L333.866,285.646L334.105,285.415L334.345,285.183L334.584,284.951" style="fill:none;fill-rule:nonzero;stroke:black;stroke-width:1px;"/>
            </g>
            <g transform="matrix(1,0,0,-1,0,581.857)">
                <path d="M334.584,286.639L334.824,286.406L335.063,286.173L335.303,285.939L335.542,285.704L335.782,285.469L336.021,285.234L336.261,284.999L336.5,284.951L336.74,285.186L336.979,285.421L337.219,285.656L337.458,285.891L337.698,286.125L337.937,286.359L338.177,286.592L338.416,286.825L338.656,287.056L338.895,287.287L339.135,287.517L339.374,287.746L339.614,287.974L339.853,288.201L340.093,288.426L340.332,288.65L340.572,288.873L340.811,289.094L341.051,289.314L341.29,289.531L341.53,289.747L341.769,289.962L342.009,290.174L342.248,290.384L342.488,290.592L342.727,290.798L342.967,291.001L343.206,291.203L343.446,291.402L343.685,291.598L343.925,291.792L344.164,291.983L344.404,292.171L344.643,292.357L344.883,292.54L345.122,292.719L345.362,292.896L345.601,293.07L345.841,293.241L346.08,293.408L346.32,293.572L346.559,293.733L346.799,293.89L347.038,294.044L347.278,294.195L347.517,294.342L347.757,294.485L347.996,294.625L348.236,294.761L348.475,294.893L348.715,295.021L348.954,295.146L349.194,295.266L349.433,295.383L349.673,295.495L349.912,295.604L350.152,295.708L350.391,295.808L350.631,295.904L350.87,295.996L351.11,296.084L351.349,296.167L351.589,296.246L351.828,296.321L352.068,296.391L352.307,296.457L352.547,296.518L352.786,296.575L353.026,296.628L353.265,296.676L353.505,296.719L353.744,296.759L353.984,296.793L354.223,296.823L354.463,296.848L354.702,296.869L354.942,296.885L355.181,296.897L355.421,296.904L355.66,296.906L355.9,296.904L356.139,296.897L356.379,296.886L356.618,296.87L356.858,296.849L357.097,296.824L357.337,296.795L357.576,296.761L357.816,296.722L358.055,296.678L358.295,296.631L358.534,296.578L358.774,296.522L359.013,296.46L359.253,296.395L359.492,296.325L359.732,296.25L359.971,296.171L360.211,296.088L360.45,296.001L360.69,295.909L360.929,295.814L361.169,295.714L361.408,295.609L361.648,295.501L361.888,295.389L362.127,295.272L362.366,295.152L362.606,295.028L362.846,294.9L363.085,294.768L363.325,294.632L363.564,294.493L363.804,294.35L364.043,294.203L364.282,294.053L364.522,293.899L364.761,293.741L365.001,293.581" style="fill:none;fill-rule:nonzero;stroke:black;stroke-width:1px;"/>
            </g>
            <g transform="matrix(1,0,0,-1,0,581.845)">
                <path d="M365.001,293.568L365.241,293.404L365.48,293.237L365.72,293.067L365.959,292.893L366.198,292.716L366.438,292.537L366.678,292.354L366.917,292.169L367.157,291.98L367.396,291.79L367.636,291.596L367.875,291.4L368.115,291.201L368.354,291L368.593,290.796L368.833,290.591L369.073,290.383L369.312,290.173L369.551,289.961L369.791,289.747L370.03,289.531L370.27,289.313L370.51,289.094L370.749,288.873L370.988,288.65L371.228,288.426L371.467,288.201L371.707,287.974L371.946,287.746L372.186,287.517L372.425,287.287L372.665,287.056L372.905,286.825L373.144,286.592L373.383,286.359L373.623,286.125L373.863,285.891L374.102,285.656L374.342,285.421L374.581,285.186L374.821,284.951L375.06,284.974L375.3,285.209L375.539,285.444L375.779,285.679L376.018,285.914L376.258,286.148L376.497,286.382L376.737,286.615L376.976,286.847L377.216,287.079L377.455,287.31L377.695,287.539L377.934,287.768L378.174,287.996L378.413,288.223L378.653,288.448L378.892,288.672L379.132,288.894L379.371,289.115L379.611,289.334L379.85,289.552L380.09,289.767L380.329,289.981L380.569,290.193L380.808,290.403L381.048,290.611L381.287,290.816L381.527,291.02L381.766,291.22L382.006,291.419L382.245,291.615L382.485,291.808L382.724,291.999L382.964,292.187L383.203,292.372L383.443,292.554L383.682,292.734L383.922,292.91L384.161,293.083L384.401,293.254L384.64,293.421L384.88,293.584L385.119,293.744L385.359,293.901L385.598,294.055L385.838,294.205L386.077,294.351L386.317,294.494L386.556,294.633L386.796,294.769L387.035,294.9L387.275,295.028L387.514,295.152L387.754,295.272L387.993,295.388L388.233,295.499L388.472,295.607L388.712,295.711L388.951,295.811L389.191,295.906L389.43,295.997L389.67,296.084L389.909,296.167L390.149,296.245L390.388,296.319L390.628,296.389L390.867,296.454L391.107,296.515L391.346,296.571L391.586,296.623L391.825,296.67L392.065,296.713L392.304,296.752L392.544,296.785L392.783,296.815L393.023,296.839L393.262,296.859L393.502,296.875L393.741,296.886L393.981,296.892L394.22,296.894L394.46,296.891L394.699,296.883L394.939,296.871L395.178,296.855L395.418,296.834" style="fill:none;fill-rule:nonzero;stroke:black;stroke-width:1px;"/>
            </g>
            <g transform="matrix(1,0,0,-1,0,581.94)">
                <path d="M395.418,296.929L395.657,296.903L395.897,296.873L396.136,296.838L396.376,296.799L396.615,296.755L396.855,296.706L397.094,296.653L397.334,296.596L397.573,296.534L397.813,296.468L398.052,296.397L398.292,296.322L398.531,296.242L398.771,296.159L399.01,296.071L399.25,295.979L399.489,295.882L399.729,295.781L399.968,295.677L400.208,295.568L400.447,295.455L400.687,295.338L400.926,295.217L401.166,295.092L401.405,294.964L401.645,294.831L401.884,294.695L402.124,294.555L402.363,294.411L402.603,294.264L402.842,294.113L403.082,293.959L403.321,293.801L403.561,293.64L403.8,293.475L404.04,293.307L404.279,293.136L404.519,292.962L404.758,292.785L404.998,292.605L405.237,292.422L405.477,292.236L405.716,292.048L405.956,291.856L406.195,291.662L406.435,291.466L406.674,291.266L406.914,291.065L407.153,290.861L407.393,290.655L407.632,290.447L407.872,290.237L408.111,290.024L408.351,289.81L408.59,289.594L408.83,289.376L409.069,289.156L409.309,288.935L409.548,288.712L409.788,288.488L410.027,288.262L410.267,288.035L410.506,287.807L410.746,287.578L410.985,287.348L411.225,287.117L411.464,286.885L411.704,286.653L411.943,286.419L412.183,286.186L412.422,285.951L412.662,285.717L412.901,285.482L413.141,285.246L413.38,285.011L413.62,285.105L413.859,285.34L414.099,285.575L414.338,285.81L414.578,286.045L414.817,286.279L415.057,286.512L415.296,286.745L415.536,286.978L415.775,287.209L416.015,287.44L416.254,287.67L416.494,287.898L416.733,288.126L416.973,288.352L417.212,288.577L417.452,288.801L417.691,289.023L417.931,289.244L418.17,289.463L418.41,289.68L418.649,289.895L418.889,290.109L419.128,290.32L419.368,290.53L419.607,290.737L419.847,290.943L420.086,291.145L420.326,291.346L420.565,291.544L420.805,291.74L421.044,291.933L421.284,292.123L421.523,292.311L421.763,292.495L422.002,292.677L422.242,292.856L422.481,293.032L422.721,293.205L422.96,293.374L423.2,293.541L423.439,293.704L423.679,293.864L423.918,294.02L424.158,294.173L424.397,294.323L424.637,294.469L424.876,294.611L425.116,294.749L425.356,294.884L425.595,295.015L425.835,295.142" style="fill:none;fill-rule:nonzero;stroke:black;stroke-width:1px;"/>
            </g>
            <g transform="matrix(1,0,0,-1,0,581.916)">
                <path d="M425.835,295.118L426.074,295.241L426.313,295.36L426.553,295.476L426.792,295.587L427.032,295.694L427.271,295.797L427.511,295.896L427.751,295.991L427.99,296.082L428.229,296.168L428.469,296.25L428.708,296.328L428.948,296.401L429.188,296.47L429.427,296.534L429.667,296.595L429.906,296.65L430.146,296.701L430.385,296.748L430.625,296.79L430.864,296.828L431.104,296.861L431.343,296.89L431.583,296.914L431.822,296.933L432.061,296.948L432.301,296.958L432.541,296.964L432.78,296.965L433.02,296.961L433.259,296.953L433.498,296.94L433.738,296.923L433.977,296.901L434.217,296.875L434.456,296.843L434.696,296.808L434.935,296.768L435.175,296.723L435.415,296.674L435.654,296.62L435.894,296.562L436.133,296.5L436.373,296.433L436.612,296.361L436.852,296.286L437.091,296.205L437.331,296.121L437.57,296.032L437.81,295.94L438.049,295.842L438.289,295.741L438.528,295.636L438.768,295.526L439.007,295.413L439.247,295.295L439.486,295.174L439.726,295.048L439.965,294.919L440.205,294.786L440.444,294.649L440.684,294.509L440.923,294.364L441.163,294.217L441.402,294.065L441.642,293.91L441.881,293.752L442.121,293.59L442.36,293.425L442.6,293.257L442.839,293.086L443.079,292.911L443.318,292.734L443.558,292.553L443.797,292.37L444.037,292.183L444.276,291.994L444.516,291.803L444.755,291.608L444.995,291.411L445.234,291.212L445.474,291.01L445.713,290.806L445.953,290.599L446.192,290.391L446.432,290.18L446.671,289.967L446.911,289.753L447.15,289.536L447.39,289.318L447.629,289.098L447.869,288.877L448.108,288.654L448.348,288.429L448.587,288.204L448.827,287.977L449.066,287.748L449.306,287.519L449.545,287.289L449.785,287.058L450.024,286.826L450.264,286.593L450.503,286.36L450.743,286.126L450.982,285.891L451.222,285.657L451.461,285.422L451.701,285.186L451.94,284.951L452.18,285.116L452.419,285.351L452.659,285.586L452.898,285.821L453.138,286.055L453.377,286.289L453.617,286.523L453.856,286.756L454.096,286.988L454.335,287.219L454.575,287.45L454.814,287.679L455.054,287.908L455.293,288.135L455.533,288.361L455.772,288.586L456.012,288.81L456.251,289.032" style="fill:none;fill-rule:nonzero;stroke:black;stroke-width:1px;"/>
            </g>
            <g transform="matrix(1,0,0,-1,0,578.247)">
                <path d="M456.251,285.363L456.491,285.583L456.73,285.802L456.97,286.019L457.209,286.234L457.449,286.447L457.688,286.659L457.928,286.868L458.167,287.075L458.407,287.28L458.646,287.482L458.886,287.682L459.125,287.88L459.365,288.075L459.604,288.268L459.844,288.458L460.083,288.645L460.323,288.829L460.562,289.011L460.802,289.189L461.041,289.365L461.281,289.537L461.52,289.706L461.76,289.872L461.999,290.035L462.239,290.194L462.478,290.35L462.718,290.503L462.957,290.651L463.197,290.797L463.436,290.938L463.676,291.076L463.915,291.211L464.155,291.341L464.394,291.468L464.634,291.59L464.873,291.709L465.113,291.824L465.352,291.934L465.592,292.041L465.831,292.144L466.071,292.242L466.31,292.336L466.55,292.426L466.789,292.512L467.029,292.593L467.268,292.67L467.508,292.743L467.747,292.811L467.987,292.875L468.226,292.934L468.466,292.989L468.705,293.04L468.945,293.086L469.184,293.127L469.424,293.164L469.663,293.197L469.903,293.225L470.142,293.248L470.382,293.267L470.621,293.281L470.861,293.29L471.1,293.295L471.34,293.296L471.579,293.291L471.819,293.282L472.058,293.269L472.298,293.251L472.537,293.228L472.777,293.201L473.016,293.169L473.256,293.133L473.495,293.092L473.735,293.047L473.974,292.997L474.214,292.943L474.453,292.884L474.693,292.821L474.932,292.753L475.172,292.681L475.411,292.605L475.651,292.524L475.89,292.439L476.13,292.35L476.369,292.256L476.609,292.159L476.848,292.057L477.088,291.951L477.327,291.841L477.567,291.727L477.806,291.608L478.046,291.486L478.285,291.36L478.525,291.23L478.764,291.097L479.004,290.959L479.243,290.818L479.483,290.674L479.722,290.525L479.962,290.373L480.201,290.218L480.441,290.059L480.68,289.897L480.92,289.731L481.159,289.563L481.399,289.391L481.638,289.216L481.878,289.038L482.117,288.857L482.357,288.673L482.596,288.486L482.836,288.297L483.075,288.105L483.315,287.91L483.554,287.712L483.794,287.513L484.033,287.31L484.273,287.106L484.513,286.899L484.752,286.69L484.991,286.479L485.231,286.266L485.47,286.051L485.71,285.835L485.95,285.616L486.189,285.396L486.428,285.174L486.668,284.951" style="fill:none;fill-rule:nonzero;stroke:black;stroke-width:1px;"/>
            </g>
            <g transform="matrix(1,0,0,-1,0,581.951)">
                <path d="M486.668,288.656L486.907,288.431L487.147,288.205L487.386,287.978L487.626,287.75L487.866,287.52L488.105,287.29L488.345,287.058L488.584,286.826L488.823,286.593L489.063,286.36L489.303,286.126L489.542,285.892L489.781,285.657L490.021,285.422L490.5,284.951L490.979,285.422L491.218,285.657L491.458,285.892L491.698,286.126L491.937,286.36L492.176,286.593L492.416,286.826L492.656,287.058L492.895,287.29L493.135,287.52L493.374,287.75L493.614,287.978L493.853,288.205L494.092,288.431L494.332,288.656L494.571,288.879L494.811,289.1L495.051,289.321L495.29,289.539L495.53,289.756L495.769,289.971L496.008,290.184L496.248,290.395L496.487,290.604L496.727,290.81L496.967,291.015L497.206,291.217L497.446,291.417L497.685,291.614L497.925,291.809L498.164,292.001L498.404,292.191L498.643,292.377L498.883,292.561L499.122,292.742L499.362,292.92L499.601,293.095L499.841,293.267L500.08,293.436L500.32,293.601L500.559,293.763L500.799,293.922L501.038,294.078L501.278,294.23L501.517,294.378L501.757,294.523L501.996,294.664L502.236,294.801L502.475,294.935L502.715,295.065L502.954,295.191L503.194,295.313L503.433,295.431L503.673,295.545L503.912,295.655L504.152,295.761L504.391,295.863L504.631,295.961L504.87,296.054L505.11,296.144L505.349,296.229L505.589,296.309L505.828,296.386L506.068,296.458L506.307,296.525L506.547,296.589L506.786,296.647L507.026,296.702L507.265,296.751L507.505,296.797L507.744,296.838L507.984,296.874L508.223,296.906L508.463,296.933L508.702,296.955L508.942,296.974L509.181,296.987L509.421,296.996L509.66,297L509.9,297L510.139,296.995L510.379,296.985L510.618,296.971L510.858,296.952L511.097,296.929L511.337,296.901L511.576,296.869L511.816,296.832L512.055,296.79L512.295,296.744L512.534,296.694L512.774,296.639L513.013,296.579L513.253,296.516L513.492,296.447L513.732,296.375L513.971,296.297L514.211,296.216L514.45,296.13L514.69,296.041L514.929,295.946L515.169,295.848L515.408,295.746L515.648,295.639L515.887,295.528L516.127,295.413L516.366,295.295L516.606,295.172L516.845,295.046L517.085,294.915" style="fill:none;fill-rule:nonzero;stroke:black;stroke-width:1px;"/>
            </g>
            <g transform="matrix(1,0,0,-1,0,581.94)">
                <path d="M517.085,294.904L517.324,294.77L517.564,294.632L517.803,294.49L518.043,294.345L518.282,294.196L518.522,294.043L518.761,293.887L519.001,293.728L519.24,293.565L519.48,293.4L519.719,293.23L519.959,293.058L520.198,292.883L520.438,292.704L520.677,292.523L520.917,292.338L521.156,292.151L521.396,291.961L521.635,291.769L521.875,291.574L522.114,291.376L522.354,291.176L522.593,290.973L522.833,290.768L523.072,290.561L523.312,290.352L523.551,290.141L523.791,289.927L524.03,289.712L524.27,289.495L524.509,289.276L524.749,289.056L524.988,288.834L525.228,288.611L525.467,288.386L525.707,288.16L525.946,287.932L526.186,287.704L526.425,287.474L526.665,287.244L526.904,287.012L527.144,286.78L527.383,286.547L527.623,286.314L527.862,286.08L528.102,285.845L528.341,285.61L528.581,285.375L528.82,285.14L529.06,284.975L529.299,285.211L529.539,285.446L529.778,285.681L530.018,285.916L530.257,286.15L530.497,286.384L530.736,286.617L530.976,286.85L531.215,287.082L531.455,287.313L531.694,287.543L531.934,287.773L532.173,288.001L532.413,288.228L532.652,288.454L532.892,288.678L533.131,288.901L533.371,289.123L533.61,289.342L533.85,289.561L534.089,289.777L534.329,289.992L534.568,290.204L534.808,290.415L535.047,290.624L535.287,290.83L535.526,291.034L535.766,291.236L536.005,291.436L536.245,291.633L536.484,291.827L536.724,292.019L536.963,292.208L537.203,292.394L537.442,292.578L537.682,292.758L537.921,292.936L538.161,293.11L538.4,293.282L538.64,293.45L538.879,293.615L539.119,293.776L539.358,293.935L539.598,294.09L539.837,294.241L540.077,294.389L540.316,294.533L540.556,294.674L540.795,294.81L541.035,294.944L541.274,295.073L541.514,295.198L541.753,295.32L541.993,295.437L542.232,295.551L542.472,295.66L542.711,295.766L542.951,295.867L543.19,295.964L543.43,296.057L543.669,296.146L543.909,296.23L544.148,296.31L544.388,296.386L544.627,296.457L544.867,296.524L545.106,296.587L545.346,296.645L545.585,296.698L545.825,296.747L546.064,296.792L546.304,296.832L546.544,296.868L546.783,296.899L547.022,296.925L547.262,296.947L547.502,296.965" style="fill:none;fill-rule:nonzero;stroke:black;stroke-width:1px;"/>
            </g>
            <g transform="matrix(1,0,0,-1,0,581.88)">
                <path d="M547.502,296.905L547.741,296.917L547.981,296.926L548.22,296.929L548.459,296.928L548.699,296.923L548.939,296.912L549.178,296.898L549.417,296.878L549.657,296.854L549.896,296.826L550.136,296.792L550.376,296.755L550.615,296.713L550.854,296.666L551.094,296.615L551.334,296.559L551.573,296.499L551.812,296.434L552.052,296.365L552.292,296.292L552.531,296.214L552.771,296.132L553.01,296.046L553.25,295.956L553.489,295.861L553.729,295.762L553.968,295.659L554.208,295.551L554.447,295.44L554.687,295.325L554.926,295.205L555.165,295.082L555.405,294.955L555.645,294.824L555.884,294.689L556.124,294.551L556.363,294.409L556.603,294.263L556.842,294.113L557.082,293.96L557.321,293.804L557.56,293.644L557.8,293.481L558.04,293.314L558.279,293.145L558.519,292.972L558.758,292.796L558.998,292.617L559.237,292.435L559.477,292.25L559.716,292.063L559.956,291.873L560.195,291.68L560.435,291.484L560.674,291.286L560.914,291.085L561.153,290.883L561.393,290.677L561.632,290.47L561.872,290.26L562.111,290.049L562.351,289.835L562.59,289.62L562.83,289.403L563.069,289.184L563.309,288.963L563.548,288.741L563.788,288.517L564.027,288.292L564.267,288.066L564.506,287.838L564.746,287.609L564.985,287.38L565.225,287.149L565.464,286.918L565.704,286.685L565.943,286.452L566.183,286.219L566.422,285.984L566.662,285.75L566.901,285.515L567.141,285.28L567.38,285.045L567.62,284.951L567.859,285.186L568.099,285.422L568.338,285.657L568.578,285.891L568.817,286.125L569.057,286.359L569.296,286.593L569.536,286.825L569.775,287.057L570.015,287.288L570.254,287.518L570.494,287.747L570.733,287.975L570.973,288.202L571.212,288.428L571.452,288.652L571.691,288.875L571.931,289.096L572.17,289.316L572.41,289.533L572.649,289.75L572.889,289.964L573.128,290.176L573.368,290.387L573.607,290.595L573.847,290.801L574.086,291.005L574.326,291.206L574.565,291.405L574.805,291.602L575.044,291.796L575.284,291.987L575.523,292.176L575.763,292.362L576.002,292.545L576.242,292.725L576.481,292.902L576.721,293.076L576.96,293.247L577.2,293.415L577.439,293.579L577.679,293.741L577.918,293.898" style="fill:none;fill-rule:nonzero;stroke:black;stroke-width:1px;"/>
            </g>
            <g transform="matrix(1,0,0,-1,0,581.845)">
                <path d="M577.918,293.863L578.158,294.017L578.397,294.168L578.637,294.315L578.876,294.459L579.116,294.599L579.355,294.735L579.595,294.868L579.834,294.997L580.074,295.121L580.313,295.242L580.553,295.359L580.792,295.472L581.032,295.581L581.271,295.686L581.511,295.786L581.75,295.883L581.99,295.975L582.229,296.063L582.469,296.147L582.708,296.226L582.948,296.301L583.187,296.372L583.427,296.438L583.666,296.5L583.906,296.558L584.145,296.611L584.385,296.659L584.624,296.703L584.864,296.743L585.103,296.777L585.343,296.808L585.582,296.834L585.822,296.855L586.061,296.871L586.301,296.883L586.54,296.891L586.78,296.894L587.019,296.892L587.259,296.886L587.498,296.875L587.738,296.859L587.977,296.839L588.217,296.815L588.456,296.785L588.696,296.752L588.935,296.713L589.175,296.67L589.414,296.623L589.654,296.571L589.893,296.515L590.133,296.454L590.372,296.389L590.612,296.319L590.851,296.245L591.091,296.167L591.33,296.084L591.57,295.997L591.809,295.906L592.049,295.811L592.288,295.711L592.528,295.607L592.767,295.499L593.007,295.388L593.246,295.272L593.486,295.152L593.725,295.028L593.965,294.9L594.204,294.769L594.444,294.633L594.683,294.494L594.923,294.351L595.162,294.205L595.402,294.055L595.641,293.901L595.881,293.744L596.12,293.584L596.36,293.421L596.599,293.254L596.839,293.083L597.078,292.91L597.318,292.734L597.557,292.554L597.797,292.372L598.036,292.187L598.276,291.999L598.515,291.808L598.755,291.615L598.994,291.419L599.234,291.22L599.473,291.02L599.713,290.816L599.952,290.611L600.192,290.403L600.431,290.193L600.671,289.981L600.91,289.767L601.15,289.552L601.389,289.334L601.629,289.115L601.868,288.894L602.108,288.672L602.347,288.448L602.587,288.223L602.826,287.996L603.066,287.768L603.305,287.539L603.545,287.31L603.784,287.079L604.024,286.847L604.263,286.615L604.503,286.382L604.742,286.148L604.982,285.914L605.221,285.679L605.461,285.444L605.7,285.209L605.94,284.974L606.179,284.951L606.419,285.186L606.658,285.421L606.898,285.656L607.137,285.891L607.377,286.125L607.617,286.359L607.856,286.592L608.096,286.825L608.335,287.056" style="fill:none;fill-rule:nonzero;stroke:black;stroke-width:1px;"/>
            </g>
            <g transform="matrix(1,0,0,-1,0,579.739)">
                <path d="M608.335,284.951L608.575,285.182L608.814,285.412L609.054,285.641L609.293,285.869L609.532,286.095L609.772,286.321L610.012,286.544L610.251,286.767L610.491,286.988L610.73,287.208L610.969,287.425L611.209,287.641L611.449,287.855L611.688,288.067L611.927,288.277L612.167,288.485L612.406,288.691L612.646,288.894L612.886,289.095L613.125,289.294L613.364,289.49L613.604,289.684L613.843,289.875L614.083,290.063L614.322,290.249L614.562,290.431L614.801,290.611L615.041,290.788L615.281,290.961L615.52,291.132L615.76,291.299L615.999,291.463L616.239,291.624L616.478,291.781L616.718,291.935L616.957,292.085L617.197,292.232L617.436,292.375L617.676,292.514L617.915,292.65L618.155,292.782L618.394,292.91L618.634,293.034L618.873,293.155L619.112,293.271L619.352,293.383L619.592,293.491L619.831,293.596L620.071,293.696L620.31,293.792L620.55,293.883L620.789,293.971L621.029,294.054L621.268,294.132L621.508,294.207L621.747,294.277L621.987,294.343L622.226,294.404L622.466,294.46L622.705,294.513L622.945,294.561L623.184,294.604L623.424,294.643L623.663,294.677L623.903,294.707L624.142,294.732L624.382,294.752L624.621,294.768L624.861,294.78L625.1,294.786L625.34,294.788L625.579,294.786L625.819,294.779L626.058,294.767L626.298,294.751L626.537,294.73L626.777,294.705L627.016,294.675L627.256,294.641L627.495,294.602L627.735,294.558L627.974,294.51L628.214,294.458L628.453,294.401L628.693,294.339L628.932,294.273L629.172,294.203L629.411,294.128L629.651,294.049L629.89,293.966L630.13,293.878L630.369,293.787L630.609,293.691L630.848,293.59L631.088,293.486L631.327,293.377L631.567,293.265L631.806,293.148L632.046,293.028L632.285,292.903L632.525,292.775L632.764,292.643L633.004,292.507L633.243,292.367L633.483,292.224L633.722,292.077L633.962,291.927L634.201,291.773L634.441,291.615L634.68,291.454L634.92,291.29L635.159,291.123L635.399,290.952L635.638,290.778L635.878,290.602L636.117,290.422L636.357,290.239L636.596,290.053L636.836,289.865L637.075,289.674L637.315,289.48L637.554,289.284L637.794,289.085L638.033,288.884L638.273,288.68L638.512,288.474L638.752,288.266" style="fill:none;fill-rule:nonzero;stroke:black;stroke-width:1px;"/>
            </g>
            <g transform="matrix(1,0,0,-1,0,581.857)">
                <path d="M638.752,290.384L638.991,290.174L639.231,289.962L639.47,289.748L639.71,289.532L639.949,289.314L640.189,289.094L640.428,288.873L640.668,288.651L640.907,288.427L641.147,288.201L641.386,287.974L641.626,287.746L641.865,287.517L642.105,287.287L642.344,287.056L642.584,286.825L642.823,286.592L643.063,286.359L643.302,286.125L643.542,285.891L643.781,285.656L644.021,285.421L644.26,285.186L644.5,284.951L644.739,284.999L644.979,285.234L645.218,285.469L645.458,285.704L645.697,285.939L645.937,286.173L646.176,286.406L646.416,286.64L646.655,286.872L646.895,287.104L647.134,287.334L647.374,287.564L647.613,287.793L647.853,288.021L648.092,288.247L648.332,288.472L648.571,288.696L648.811,288.918L649.05,289.139L649.29,289.358L649.529,289.576L649.769,289.791L650.008,290.005L650.248,290.217L650.487,290.427L650.727,290.634L650.966,290.84L651.206,291.043L651.445,291.244L651.685,291.442L651.924,291.638L652.164,291.831L652.403,292.021L652.643,292.209L652.882,292.394L653.122,292.577L653.361,292.756L653.601,292.932L653.84,293.105L654.08,293.275L654.319,293.442L654.559,293.605L654.798,293.765L655.038,293.922L655.277,294.075L655.517,294.225L655.756,294.371L655.996,294.514L656.235,294.653L656.475,294.788L656.714,294.919L656.954,295.047L657.193,295.171L657.433,295.29L657.672,295.406L657.912,295.518L658.151,295.626L658.391,295.729L658.63,295.828L658.87,295.924L659.109,296.015L659.349,296.101L659.588,296.184L659.828,296.262L660.067,296.336L660.307,296.405L660.546,296.47L660.786,296.53L661.025,296.587L661.265,296.638L661.504,296.685L661.744,296.728L661.983,296.766L662.223,296.8L662.462,296.829L662.702,296.853L662.941,296.873L663.181,296.888L663.42,296.899L663.66,296.905L663.899,296.906L664.139,296.903L664.378,296.895L664.618,296.883L664.857,296.866L665.097,296.845L665.336,296.819L665.576,296.788L665.815,296.753L666.055,296.713L666.294,296.669L666.534,296.62L666.773,296.567L667.013,296.51L667.252,296.447L667.492,296.381L667.731,296.31L667.971,296.235L668.21,296.155L668.45,296.071L668.69,295.983L668.929,295.89L669.169,295.794" style="fill:none;fill-rule:nonzero;stroke:black;stroke-width:1px;"/>
            </g>
            <g transform="matrix(1,0,0,-1,0,582.204)">
                <path d="M669.169,296.141L669.408,296.04L669.647,295.935L669.887,295.826L670.127,295.713L670.366,295.596L670.606,295.475L670.845,295.349L671.085,295.221L671.324,295.088L671.564,294.951L671.803,294.811L672.042,294.667L672.282,294.52L672.521,294.369L672.761,294.214L673.001,294.056L673.24,293.895L673.48,293.73L673.719,293.562L673.959,293.391L674.198,293.217L674.437,293.04L674.677,292.859L674.916,292.676L675.156,292.49L675.396,292.301L675.635,292.11L675.875,291.916L676.114,291.719L676.353,291.52L676.593,291.318L676.832,291.114L677.072,290.908L677.311,290.7L677.551,290.489L677.791,290.277L678.03,290.062L678.27,289.846L678.509,289.628L678.749,289.408L678.988,289.187L679.228,288.964L679.467,288.74L679.707,288.514L679.946,288.287L680.186,288.059L680.425,287.83L680.665,287.6L680.904,287.369L681.144,287.137L681.383,286.904L681.623,286.671L681.862,286.437L682.102,286.203L682.341,285.968L682.581,285.733L682.82,285.498L683.06,285.263L683.299,285.381L683.539,285.617L683.778,285.852L684.018,286.087L684.257,286.321L684.497,286.555L684.736,286.789L684.976,287.022L685.215,287.254L685.455,287.486L685.694,287.716L685.934,287.946L686.173,288.174L686.413,288.402L686.652,288.628L686.892,288.853L687.131,289.077L687.371,289.299L687.61,289.519L687.85,289.738L688.089,289.955L688.329,290.171L688.568,290.384L688.808,290.596L689.047,290.805L689.287,291.012L689.526,291.218L689.766,291.42L690.005,291.621L690.245,291.819L690.484,292.014L690.724,292.207L690.963,292.397L691.203,292.584L691.442,292.769L691.682,292.951L691.921,293.13L692.161,293.305L692.4,293.478L692.64,293.648L692.879,293.814L693.119,293.977L693.358,294.136L693.598,294.293L693.837,294.445L694.077,294.595L694.316,294.74L694.556,294.882L694.795,295.021L695.035,295.155L695.274,295.286L695.514,295.413L695.753,295.536L695.993,295.655L696.232,295.77L696.472,295.881L696.711,295.988L696.951,296.091L697.19,296.19L697.43,296.285L697.669,296.375L697.909,296.461L698.148,296.543L698.388,296.62L698.627,296.693L698.867,296.762L699.106,296.826L699.346,296.886L699.585,296.942" style="fill:none;fill-rule:nonzero;stroke:black;stroke-width:1px;"/>
            </g>
            <g transform="matrix(1,0,0,-1,0,581.928)">
                <path d="M699.585,296.665L699.825,296.716L700.064,296.763L700.304,296.805L700.543,296.842L700.783,296.875L701.022,296.903L701.262,296.927L701.501,296.946L701.741,296.961L701.98,296.971L702.22,296.976L702.459,296.977L702.699,296.973L702.938,296.965L703.178,296.952L703.417,296.934L703.657,296.912L703.896,296.885L704.136,296.854L704.375,296.818L704.615,296.778L704.854,296.733L705.094,296.684L705.333,296.63L705.573,296.571L705.812,296.509L706.052,296.441L706.291,296.37L706.531,296.294L706.77,296.214L707.01,296.129L707.249,296.04L707.489,295.947L707.728,295.85L707.968,295.748L708.207,295.643L708.447,295.533L708.686,295.419L708.926,295.301L709.165,295.18L709.405,295.054L709.644,294.925L709.884,294.791L710.123,294.654L710.363,294.513L710.602,294.369L710.842,294.221L711.081,294.069L711.321,293.914L711.56,293.756L711.8,293.594L712.039,293.429L712.279,293.261L712.518,293.089L712.758,292.914L712.997,292.737L713.237,292.556L713.476,292.372L713.716,292.186L713.955,291.997L714.195,291.805L714.434,291.61L714.674,291.413L714.913,291.213L715.153,291.011L715.392,290.807L715.632,290.601L715.871,290.392L716.111,290.181L716.35,289.968L716.59,289.754L716.829,289.537L717.069,289.319L717.308,289.099L717.548,288.877L717.787,288.654L718.027,288.43L718.266,288.204L718.506,287.977L718.745,287.749L718.985,287.519L719.224,287.289L719.464,287.058L719.703,286.826L719.943,286.593L720.182,286.36L720.422,286.126L720.661,285.891L720.901,285.657L721.14,285.421L721.38,285.186L721.619,284.951L721.859,285.14L722.098,285.376L722.338,285.611L722.577,285.846L722.817,286.08L723.056,286.314L723.296,286.548L723.535,286.78L723.775,287.013L724.014,287.244L724.254,287.475L724.493,287.704L724.733,287.932L724.972,288.16L725.212,288.386L725.451,288.611L725.691,288.834L725.93,289.056L726.17,289.276L726.409,289.495L726.649,289.712L726.888,289.927L727.128,290.14L727.367,290.351L727.607,290.56L727.846,290.767L728.086,290.972L728.325,291.174L728.565,291.374L728.804,291.572L729.044,291.767L729.283,291.959L729.523,292.149L729.762,292.336L730.002,292.52" style="fill:none;fill-rule:nonzero;stroke:black;stroke-width:1px;"/>
            </g>
            <g transform="matrix(1,0,0,-1,0,581.939)">
                <path d="M730.002,292.531L730.242,292.712L730.481,292.891L730.721,293.066L730.96,293.238L731.2,293.407L731.439,293.573L731.679,293.735L731.918,293.895L732.157,294.05L732.397,294.203L732.636,294.351L732.876,294.496L733.116,294.638L733.355,294.776L733.595,294.91L733.834,295.04L734.074,295.166L734.313,295.289L734.552,295.407L734.792,295.522L735.031,295.632L735.271,295.739L735.511,295.841L735.75,295.939L735.99,296.033L736.229,296.123L736.468,296.208L736.708,296.289L736.947,296.366L737.187,296.438L737.426,296.507L737.666,296.57L737.906,296.629L738.145,296.684L738.385,296.734L738.624,296.78L738.863,296.821L739.103,296.858L739.342,296.89L739.582,296.918L739.821,296.941L740.061,296.959L740.3,296.973L740.54,296.983L740.78,296.987L741.019,296.987L741.259,296.983L741.498,296.974L741.737,296.96L741.977,296.942L742.217,296.919L742.456,296.892L742.696,296.86L742.935,296.823L743.175,296.782L743.414,296.737L743.654,296.686L743.893,296.632L744.133,296.573L744.372,296.509L744.612,296.442L744.851,296.369L745.091,296.293L745.33,296.212L745.57,296.127L745.809,296.037L746.049,295.943L746.288,295.845L746.528,295.743L746.767,295.637L747.007,295.527L747.246,295.412L747.486,295.294L747.725,295.172L747.965,295.045L748.204,294.915L748.444,294.782L748.683,294.644L748.923,294.503L749.162,294.358L749.402,294.209L749.641,294.057L749.881,293.901L750.12,293.743L750.36,293.58L750.599,293.415L750.839,293.246L751.078,293.074L751.318,292.898L751.557,292.72L751.797,292.539L752.036,292.355L752.276,292.168L752.515,291.979L752.755,291.786L752.994,291.591L753.234,291.394L753.473,291.194L753.713,290.992L753.952,290.787L754.192,290.58L754.431,290.371L754.671,290.16L754.91,289.947L755.15,289.732L755.389,289.515L755.629,289.297L755.868,289.076L756.108,288.855L756.347,288.631L756.587,288.407L756.826,288.18L757.066,287.953L757.305,287.725L757.545,287.495L757.784,287.265L758.024,287.034L758.263,286.801L758.503,286.569L758.742,286.335L758.982,286.101L759.221,285.867L759.461,285.632L759.7,285.397L759.94,285.162L760.179,284.951L760.419,285.187" style="fill:none;fill-rule:nonzero;stroke:black;stroke-width:1px;"/>
            </g>
            <g transform="matrix(1,0,0,-1,0,581.703)">
                <path d="M760.419,284.951L760.658,285.186L760.898,285.421L761.137,285.656L761.377,285.891L761.616,286.124L761.856,286.358L762.095,286.591L762.335,286.823L762.574,287.054L762.814,287.284L763.053,287.514L763.293,287.742L763.532,287.969L763.772,288.195L764.011,288.42L764.251,288.643L764.49,288.864L764.73,289.084L764.969,289.303L765.209,289.519L765.448,289.734L765.688,289.947L765.927,290.158L766.167,290.367L766.406,290.573L766.646,290.778L766.885,290.98L767.125,291.179L767.364,291.377L767.604,291.571L767.843,291.763L768.083,291.953L768.322,292.139L768.562,292.323L768.801,292.504L769.041,292.682L769.28,292.857L769.52,293.028L769.759,293.197L769.999,293.362L770.238,293.524L770.478,293.683L770.717,293.838L770.957,293.99L771.196,294.138L771.436,294.282L771.675,294.423L771.915,294.561L772.154,294.694L772.394,294.824L772.633,294.949L772.873,295.071L773.112,295.189L773.352,295.303L773.591,295.413L773.831,295.519L774.07,295.62L774.31,295.718L774.549,295.811L774.789,295.9L775.028,295.985L775.268,296.066L775.507,296.142L775.747,296.213L775.986,296.281L776.226,296.344L776.465,296.402L776.705,296.456L776.944,296.506L777.184,296.551L777.423,296.592L777.663,296.628L777.902,296.659L778.142,296.686L778.381,296.709L778.621,296.726L778.86,296.74L779.1,296.748L779.339,296.752L779.579,296.752L779.818,296.746L780.058,296.737L780.297,296.722L780.537,296.703L780.776,296.68L781.016,296.652L781.255,296.619L781.495,296.582L781.734,296.54L781.974,296.494L782.213,296.443L782.453,296.388L782.692,296.328L782.932,296.264L783.171,296.195L783.411,296.123L783.65,296.045L783.89,295.964L784.129,295.878L784.369,295.788L784.608,295.693L784.848,295.595L785.087,295.492L785.327,295.385L785.566,295.274L785.806,295.159L786.045,295.04L786.285,294.917L786.524,294.791L786.764,294.66L787.003,294.526L787.243,294.387L787.482,294.246L787.722,294.1L787.961,293.951L788.201,293.798L788.44,293.642L788.68,293.483L788.919,293.32L789.159,293.154L789.398,292.984L789.638,292.812L789.877,292.636L790.117,292.458L790.356,292.276L790.596,292.092L790.835,291.904" style="fill:none;fill-rule:nonzero;stroke:black;stroke-width:1px;"/>
            </g>
            <g transform="matrix(1,0,0,-1,0,581.903)">
                <path d="M790.835,292.104L791.075,291.914L791.314,291.721L791.554,291.526L791.794,291.328L792.033,291.128L792.273,290.925L792.512,290.72L792.752,290.513L792.991,290.304L793.231,290.092L793.47,289.879L793.71,289.664L793.949,289.447L794.189,289.228L794.428,289.007L794.667,288.785L794.907,288.562L795.146,288.337L795.386,288.111L795.626,287.883L795.865,287.655L796.105,287.425L796.344,287.194L796.584,286.963L796.823,286.731L797.062,286.498L797.302,286.264L797.541,286.03L797.781,285.796L798.021,285.561L798.26,285.326L798.5,285.09L798.739,284.951L798.979,285.186L799.218,285.421L799.457,285.656L799.697,285.891L799.936,286.126L800.176,286.359L800.415,286.593L800.655,286.825L800.895,287.057L801.134,287.288L801.374,287.519L801.613,287.748L801.852,287.976L802.092,288.203L802.331,288.429L802.571,288.653L802.81,288.876L803.05,289.097L803.29,289.317L803.529,289.535L803.769,289.752L804.008,289.966L804.248,290.179L804.487,290.389L804.727,290.598L804.966,290.804L805.206,291.008L805.445,291.21L805.685,291.409L805.924,291.606L806.164,291.8L806.403,291.992L806.643,292.181L806.882,292.367L807.122,292.55L807.361,292.731L807.601,292.908L807.84,293.082L808.08,293.254L808.319,293.422L808.559,293.586L808.798,293.748L809.038,293.906L809.277,294.061L809.517,294.212L809.756,294.36L809.996,294.504L810.235,294.644L810.475,294.781L810.714,294.914L810.954,295.043L811.193,295.168L811.433,295.289L811.672,295.406L811.912,295.52L812.151,295.629L812.391,295.734L812.63,295.835L812.87,295.932L813.109,296.025L813.349,296.113L813.588,296.197L813.828,296.277L814.067,296.353L814.307,296.424L814.546,296.49L814.786,296.553L815.025,296.611L815.265,296.664L815.504,296.713L815.744,296.757L815.983,296.797L816.223,296.833L816.462,296.863L816.702,296.89L816.941,296.911L817.181,296.928L817.42,296.941L817.66,296.949L817.899,296.952L818.139,296.951L818.378,296.945L818.618,296.935L818.857,296.919L819.097,296.9L819.336,296.876L819.576,296.847L819.815,296.813L820.055,296.776L820.294,296.733L820.534,296.686L820.773,296.635L821.013,296.579L821.252,296.519" style="fill:none;fill-rule:nonzero;stroke:black;stroke-width:1px;"/>
            </g>
            <g transform="matrix(1,0,0,-1,0,582.301)">
                <path d="M821.252,296.917L821.492,296.852L821.731,296.783L821.971,296.709L822.21,296.631L822.45,296.549L822.689,296.462L822.929,296.372L823.168,296.277L823.408,296.177L823.647,296.074L823.887,295.967L824.126,295.855L824.366,295.74L824.605,295.62L824.845,295.497L825.084,295.369L825.324,295.238L825.563,295.103L825.803,294.964L826.042,294.822L826.282,294.676L826.521,294.526L826.761,294.373L827,294.216L827.24,294.056L827.479,293.893L827.719,293.726L827.958,293.557L828.198,293.384L828.437,293.208L828.677,293.028L828.916,292.846L829.156,292.662L829.395,292.474L829.635,292.283L829.874,292.09L830.114,291.895L830.353,291.696L830.593,291.496L830.832,291.293L831.072,291.087L831.311,290.88L831.551,290.67L831.79,290.458L832.03,290.245L832.269,290.029L832.509,289.812L832.748,289.593L832.988,289.372L833.227,289.15L833.467,288.926L833.706,288.701L833.946,288.475L834.185,288.247L834.425,288.018L834.664,287.789L834.904,287.558L835.143,287.326L835.383,287.094L835.622,286.861L835.862,286.627L836.101,286.393L836.341,286.158L836.58,285.924L836.82,285.688L837.059,285.453L837.299,285.384L837.538,285.62L837.778,285.855L838.017,286.09L838.257,286.325L838.496,286.559L838.736,286.793L838.975,287.026L839.215,287.258L839.454,287.49L839.694,287.721L839.933,287.951L840.173,288.18L840.412,288.408L840.652,288.635L840.891,288.861L841.131,289.085L841.37,289.307L841.61,289.529L841.849,289.748L842.089,289.966L842.328,290.182L842.568,290.396L842.807,290.609L843.047,290.819L843.286,291.027L843.526,291.233L843.765,291.437L844.005,291.638L844.244,291.837L844.484,292.033L844.723,292.227L844.963,292.419L845.202,292.607L845.442,292.793L845.681,292.976L845.921,293.156L846.16,293.333L846.4,293.506L846.639,293.677L846.879,293.845L847.118,294.009L847.358,294.17L847.597,294.328L847.837,294.482L848.076,294.632L848.316,294.78L848.555,294.923L848.795,295.063L849.034,295.199L849.274,295.331L849.513,295.46L849.753,295.584L849.992,295.705L850.232,295.822L850.471,295.934L850.711,296.043L850.95,296.148L851.19,296.248L851.429,296.344L851.669,296.436" style="fill:none;fill-rule:nonzero;stroke:black;stroke-width:1px;"/>
            </g>
            <g transform="matrix(1,0,0,-1,0,581.834)">
                <path d="M851.669,295.969L851.908,296.057L852.148,296.141L852.387,296.22L852.627,296.295L852.866,296.365L853.106,296.431L853.345,296.493L853.585,296.55L853.824,296.603L854.064,296.651L854.304,296.695L854.543,296.734L854.783,296.769L855.022,296.799L855.261,296.824L855.501,296.845L855.741,296.862L855.98,296.874L856.22,296.881L856.459,296.883L856.699,296.881L856.938,296.875L857.178,296.864L857.417,296.848L857.656,296.828L857.896,296.803L858.136,296.773L858.375,296.739L858.615,296.701L858.854,296.658L859.094,296.61L859.333,296.558L859.573,296.501L859.812,296.44L860.051,296.375L860.291,296.305L860.531,296.231L860.77,296.152L861.01,296.069L861.249,295.982L861.489,295.891L861.728,295.795L861.967,295.695L862.207,295.591L862.446,295.483L862.686,295.371L862.925,295.255L863.165,295.135L863.405,295.011L863.644,294.883L863.884,294.751L864.123,294.615L864.362,294.476L864.602,294.333L864.842,294.186L865.081,294.036L865.321,293.883L865.56,293.726L865.8,293.565L866.039,293.401L866.279,293.234L866.518,293.064L866.758,292.89L866.997,292.714L867.237,292.534L867.476,292.352L867.716,292.167L867.955,291.978L868.195,291.788L868.434,291.594L868.674,291.398L868.913,291.199L869.153,290.998L869.392,290.795L869.632,290.589L869.871,290.382L870.111,290.172L870.35,289.96L870.59,289.746L870.829,289.53L871.069,289.312L871.308,289.093L871.548,288.872L871.787,288.649L872.027,288.425L872.266,288.2L872.506,287.974L872.745,287.746L872.985,287.517L873.224,287.287L873.464,287.056L873.703,286.824L873.943,286.592L874.182,286.359L874.422,286.125L874.661,285.891L874.901,285.656L875.14,285.421L875.38,285.186L875.619,284.951L875.859,284.953L876.098,285.188L876.338,285.423L876.577,285.658L876.817,285.893L877.056,286.127L877.296,286.361L877.535,286.594L877.775,286.826L878.014,287.058L878.254,287.289L878.493,287.519L878.733,287.748L878.972,287.976L879.212,288.202L879.451,288.428L879.691,288.651L879.93,288.874L880.17,289.095L880.409,289.314L880.649,289.532L880.888,289.748L881.128,289.961L881.367,290.173L881.607,290.383L881.846,290.591L882.086,290.797" style="fill:none;fill-rule:nonzero;stroke:black;stroke-width:1px;"/>
            </g>
            <g transform="matrix(1,0,0,-1,0,580.228)">
                <path d="M882.086,289.191L882.325,289.394L882.565,289.595L882.804,289.794L883.044,289.99L883.283,290.183L883.523,290.374L883.762,290.562L884.002,290.748L884.241,290.93L884.481,291.11L884.72,291.286L884.96,291.459L885.199,291.63L885.439,291.797L885.678,291.961L885.918,292.121L886.157,292.278L886.397,292.432L886.636,292.582L886.876,292.729L887.115,292.871L887.355,293.011L887.594,293.146L887.834,293.278L888.073,293.406L888.313,293.53L888.552,293.65L888.792,293.766L889.031,293.878L889.271,293.986L889.51,294.09L889.75,294.19L889.989,294.286L890.229,294.377L890.468,294.464L890.708,294.547L890.947,294.625L891.187,294.7L891.426,294.769L891.666,294.835L891.905,294.896L892.145,294.952L892.384,295.004L892.624,295.052L892.863,295.095L893.103,295.134L893.342,295.168L893.582,295.197L893.821,295.222L894.061,295.242L894.3,295.258L894.54,295.269L894.779,295.276L895.019,295.277L895.258,295.275L895.498,295.268L895.737,295.256L895.977,295.239L896.216,295.218L896.456,295.193L896.695,295.162L896.935,295.128L897.174,295.088L897.414,295.045L897.653,294.996L897.893,294.944L898.132,294.886L898.372,294.825L898.611,294.759L898.851,294.688L899.09,294.613L899.33,294.534L899.569,294.45L899.809,294.363L900.048,294.271L900.288,294.174L900.527,294.074L900.767,293.969L901.006,293.861L901.246,293.748L901.485,293.631L901.725,293.51L901.964,293.386L902.204,293.257L902.443,293.125L902.683,292.989L902.922,292.849L903.162,292.705L903.401,292.558L903.641,292.408L903.88,292.253L904.12,292.096L904.359,291.935L904.599,291.77L904.838,291.603L905.078,291.432L905.317,291.258L905.557,291.081L905.796,290.901L906.036,290.718L906.275,290.532L906.515,290.344L906.754,290.153L906.994,289.959L907.233,289.762L907.473,289.563L907.712,289.362L907.952,289.158L908.191,288.952L908.431,288.744L908.67,288.534L908.91,288.321L909.149,288.107L909.389,287.891L909.628,287.673L909.868,287.454L910.107,287.233L910.347,287.01L910.586,286.786L910.826,286.56L911.065,286.333L911.305,286.105L911.544,285.876L911.784,285.646L912.023,285.415L912.263,285.183L912.502,284.951" style="fill:none;fill-rule:nonzero;stroke:black;stroke-width:1px;"/>
            </g>
            <g transform="matrix(1,0,0,-1,0,581.87)">
                <path d="M912.502,286.592L912.742,286.359L912.981,286.125L913.221,285.891L913.46,285.656L913.7,285.421L913.939,285.186L914.179,284.951L914.419,285.024L914.658,285.259L914.897,285.494L915.137,285.729L915.377,285.964L915.616,286.198L915.855,286.432L916.095,286.664L916.334,286.897L916.574,287.128L916.814,287.359L917.053,287.589L917.293,287.818L917.532,288.045L917.772,288.272L918.011,288.497L918.251,288.72L918.49,288.943L918.73,289.163L918.969,289.383L919.209,289.6L919.448,289.815L919.688,290.029L919.927,290.241L920.166,290.45L920.406,290.658L920.646,290.863L920.885,291.066L921.125,291.267L921.364,291.465L921.604,291.661L921.843,291.854L922.083,292.044L922.322,292.232L922.561,292.417L922.801,292.599L923.04,292.778L923.28,292.954L923.52,293.127L923.759,293.297L923.999,293.463L924.238,293.626L924.478,293.786L924.717,293.943L924.956,294.096L925.196,294.246L925.435,294.392L925.675,294.534L925.915,294.673L926.154,294.808L926.394,294.939L926.633,295.066L926.873,295.19L927.112,295.309L927.352,295.425L927.591,295.536L927.831,295.644L928.07,295.747L928.31,295.846L928.549,295.941L928.789,296.032L929.028,296.118L929.268,296.2L929.507,296.278L929.747,296.352L929.986,296.421L930.226,296.486L930.465,296.546L930.705,296.602L930.944,296.653L931.184,296.7L931.423,296.743L931.663,296.78L931.902,296.814L932.142,296.842L932.381,296.867L932.621,296.886L932.86,296.901L933.1,296.912L933.339,296.918L933.579,296.919L933.818,296.915L934.058,296.907L934.297,296.895L934.537,296.878L934.776,296.856L935.016,296.83L935.255,296.799L935.495,296.764L935.734,296.724L935.974,296.679L936.213,296.63L936.453,296.577L936.692,296.519L936.932,296.457L937.171,296.39L937.411,296.319L937.65,296.243L937.89,296.163L938.129,296.079L938.369,295.99L938.608,295.898L938.848,295.801L939.087,295.7L939.327,295.595L939.566,295.485L939.806,295.372L940.045,295.255L940.285,295.133L940.524,295.008L940.764,294.879L941.003,294.746L941.243,294.609L941.482,294.469L941.722,294.325L941.961,294.177L942.201,294.026L942.44,293.871L942.68,293.713L942.919,293.552" style="fill:none;fill-rule:nonzero;stroke:black;stroke-width:1px;"/>
            </g>
            <g transform="matrix(1,0,0,-1,0,581.905)">
                <path d="M942.919,293.587L943.159,293.422L943.398,293.254L943.638,293.083L943.877,292.909L944.117,292.731L944.356,292.551L944.596,292.367L944.835,292.181L945.075,291.992L945.314,291.801L945.554,291.606L945.793,291.409L946.033,291.21L946.272,291.008L946.512,290.804L946.751,290.598L946.991,290.39L947.23,290.179L947.47,289.966L947.709,289.752L947.949,289.535L948.188,289.317L948.428,289.098L948.667,288.876L948.907,288.653L949.146,288.429L949.386,288.203L949.625,287.976L949.865,287.748L950.104,287.519L950.344,287.289L950.583,287.057L950.823,286.825L951.062,286.593L951.302,286.359L951.541,286.126L951.781,285.891L952.02,285.657L952.26,285.422L952.499,285.186L952.739,284.951L952.978,285.095L953.218,285.33L953.457,285.565L953.697,285.8L953.936,286.034L954.176,286.269L954.415,286.502L954.655,286.735L954.894,286.967L955.134,287.199L955.373,287.429L955.613,287.659L955.852,287.888L956.092,288.115L956.331,288.341L956.571,288.566L956.81,288.79L957.05,289.012L957.289,289.232L957.529,289.451L957.768,289.668L958.008,289.883L958.247,290.096L958.487,290.308L958.726,290.517L958.966,290.724L959.205,290.929L959.445,291.132L959.684,291.332L959.924,291.53L960.163,291.725L960.403,291.918L960.642,292.108L960.882,292.295L961.121,292.48L961.361,292.661L961.6,292.84L961.84,293.016L962.079,293.188L962.319,293.357L962.558,293.523L962.798,293.686L963.037,293.846L963.277,294.002L963.516,294.154L963.756,294.303L963.995,294.449L964.235,294.591L964.474,294.729L964.714,294.863L964.953,294.994L965.193,295.121L965.432,295.243L965.672,295.362L965.911,295.477L966.151,295.588L966.39,295.695L966.63,295.798L966.869,295.896L967.109,295.991L967.348,296.081L967.588,296.166L967.827,296.248L968.067,296.325L968.306,296.398L968.546,296.467L968.785,296.531L969.025,296.59L969.264,296.646L969.504,296.696L969.743,296.742L969.983,296.784L970.222,296.821L970.462,296.854L970.701,296.882L970.941,296.905L971.18,296.924L971.42,296.939L971.659,296.948L971.899,296.954L972.138,296.954L972.378,296.95L972.617,296.941L972.857,296.928L973.096,296.91L973.336,296.888" style="fill:none;fill-rule:nonzero;stroke:black;stroke-width:1px;"/>
            </g>
            <g transform="matrix(1,0,0,-1,0,573.039)">
                <path d="M973.336,288.022L973.575,287.995L973.815,287.963L974.054,287.927L974.294,287.887L974.533,287.842L974.773,287.792L975.012,287.738L975.252,287.679L975.492,287.616L975.731,287.549L975.971,287.477L976.21,287.401L976.449,287.32L976.689,287.235L976.929,287.146L977.168,287.053L977.407,286.956L977.647,286.854L977.886,286.748L978.126,286.638L978.365,286.524L978.605,286.406L978.844,286.284L979.084,286.158L979.324,286.029L979.563,285.895L979.802,285.758L980.042,285.617L980.282,285.472L980.521,285.324L980.761,285.173L981,285.017" style="fill:none;fill-rule:nonzero;stroke:black;stroke-width:1px;"/>
            </g>
        </g>
    </g>
</svg>
