<?xml version="1.0" encoding="UTF-8" standalone="no"?>
<!DOCTYPE svg PUBLIC "-//W3C//DTD SVG 1.1//EN" "http://www.w3.org/Graphics/SVG/1.1/DTD/svg11.dtd">
<svg width="100%" height="100%" viewBox="0 0 670 165" version="1.1" xmlns="http://www.w3.org/2000/svg" xmlns:xlink="http://www.w3.org/1999/xlink" xml:space="preserve" xmlns:serif="http://www.serif.com/" style="fill-rule:evenodd;clip-rule:evenodd;stroke-linecap:round;stroke-linejoin:round;stroke-miterlimit:1.5;">
    <g transform="matrix(1,0,0,1,-20,-71.375)">
        <g transform="matrix(1,0,0,1,0,10)">
            <path d="M400,100L400,200" style="fill:none;stroke:black;stroke-width:0.5px;"/>
        </g>
        <g transform="matrix(1,0,0,1,40,10)">
            <path d="M400,100L400,200" style="fill:none;stroke:black;stroke-width:0.5px;"/>
        </g>
        <g transform="matrix(1,0,0,1,80,10)">
            <path d="M400,100L400,200" style="fill:none;stroke:black;stroke-width:0.5px;"/>
        </g>
        <g transform="matrix(1,0,0,1,120,10)">
            <path d="M400,100L400,200" style="fill:none;stroke:black;stroke-width:0.5px;"/>
        </g>
        <g transform="matrix(1,0,0,1,160,10)">
            <path d="M400,100L400,200" style="fill:none;stroke:black;stroke-width:0.5px;"/>
        </g>
        <g transform="matrix(1,0,0,1,200,10)">
            <path d="M400,100L400,200" style="fill:none;stroke:black;stroke-width:0.5px;"/>
        </g>
        <g transform="matrix(1,0,0,1,240,10)">
            <path d="M400,100L400,200" style="fill:none;stroke:black;stroke-width:0.5px;"/>
        </g>
        <g transform="matrix(1,0,0,1,-320,10)">
            <path d="M400,100L400,200" style="fill:none;stroke:black;stroke-width:0.5px;"/>
        </g>
        <g transform="matrix(1,0,0,1,-280,10)">
            <path d="M400,100L400,200" style="fill:none;stroke:black;stroke-width:0.5px;"/>
        </g>
        <g transform="matrix(1,0,0,1,-240,10)">
            <path d="M400,100L400,200" style="fill:none;stroke:black;stroke-width:0.5px;"/>
        </g>
        <g transform="matrix(1,0,0,1,-200,10)">
            <path d="M400,100L400,200" style="fill:none;stroke:black;stroke-width:0.5px;"/>
        </g>
        <g transform="matrix(1,0,0,1,-160,10)">
            <path d="M400,100L400,200" style="fill:none;stroke:black;stroke-width:0.5px;"/>
        </g>
        <g transform="matrix(1,0,0,1,-120,10)">
            <path d="M400,100L400,200" style="fill:none;stroke:black;stroke-width:0.5px;"/>
        </g>
        <g transform="matrix(1,0,0,1,-80,10)">
            <path d="M400,100L400,200" style="fill:none;stroke:black;stroke-width:0.5px;"/>
        </g>
        <g transform="matrix(1,0,0,1,-40,10)">
            <path d="M400,100L400,200" style="fill:none;stroke:black;stroke-width:0.5px;"/>
        </g>
        <g transform="matrix(0.9375,0,0,1,3.75,-20)">
            <path d="M60,180L700,180" style="fill:none;stroke:black;stroke-width:0.52px;"/>
        </g>
        <g transform="matrix(0.9375,0,0,1,3.75,-60)">
            <path d="M60,180L700,180" style="fill:none;stroke:black;stroke-width:0.52px;"/>
        </g>
        <g transform="matrix(0.9375,0,0,1,3.75,20)">
            <path d="M60,180L700,180" style="fill:none;stroke:black;stroke-width:0.52px;"/>
        </g>
    </g>
    <g transform="matrix(1,0,0,1,-100,-71.375)">
        <path d="M400,160L480,120L480,160L560,120L560,160L640,120L640,160L720,120L720,160L160,160L240,120L240,160L320,120L320,160L400,120L400,160Z" style="fill:rgb(134,254,207);stroke:black;stroke-width:0.5px;"/>
    </g>
    <g transform="matrix(1,0,0,1,-23.494,-69.9942)">
        <text x="400.195px" y="98.619px" style="font-family:'ArialMT', 'Arial', sans-serif;font-size:12px;">0</text>
    </g>
    <g transform="matrix(1,0,0,1,56.506,-69.9942)">
        <text x="400.195px" y="98.619px" style="font-family:'ArialMT', 'Arial', sans-serif;font-size:12px;">2</text>
    </g>
    <g transform="matrix(1,0,0,1,136.506,-69.9942)">
        <text x="400.195px" y="98.619px" style="font-family:'ArialMT', 'Arial', sans-serif;font-size:12px;">4</text>
    </g>
    <g transform="matrix(1,0,0,1,216.506,-69.9942)">
        <text x="400.195px" y="98.619px" style="font-family:'ArialMT', 'Arial', sans-serif;font-size:12px;">6</text>
    </g>
    <g transform="matrix(1,0,0,1,-103.494,-69.9942)">
        <text x="398.197px" y="98.619px" style="font-family:'ArialMT', 'Arial', sans-serif;font-size:12px;">-2</text>
    </g>
    <g transform="matrix(1,0,0,1,-183.494,-69.9942)">
        <text x="398.197px" y="98.619px" style="font-family:'ArialMT', 'Arial', sans-serif;font-size:12px;">-4</text>
    </g>
    <g transform="matrix(1,0,0,1,-263.494,-69.9942)">
        <text x="398.197px" y="98.619px" style="font-family:'ArialMT', 'Arial', sans-serif;font-size:12px;">-6</text>
    </g>
    <g transform="matrix(1,0,0,1,-343.494,-69.9942)">
        <text x="398.197px" y="98.619px" style="font-family:'ArialMT', 'Arial', sans-serif;font-size:12px;">-8</text>
    </g>
    <g transform="matrix(1,0,0,1,-20,-71.375)">
        <g transform="matrix(1,0,0,1,-353.494,65.62)">
            <text x="400.195px" y="98.619px" style="font-family:'ArialMT', 'Arial', sans-serif;font-size:12px;">0</text>
        </g>
        <g transform="matrix(1,0,0,1,-353.494,105.62)">
            <text x="398.197px" y="98.619px" style="font-family:'ArialMT', 'Arial', sans-serif;font-size:12px;">-2</text>
        </g>
        <g transform="matrix(1,0,0,1,-353.494,25.62)">
            <text x="400.195px" y="98.619px" style="font-family:'ArialMT', 'Arial', sans-serif;font-size:12px;">2</text>
        </g>
    </g>
</svg>
