<?xml version="1.0" encoding="UTF-8" standalone="no"?>
<!DOCTYPE svg PUBLIC "-//W3C//DTD SVG 1.1//EN" "http://www.w3.org/Graphics/SVG/1.1/DTD/svg11.dtd">
<svg width="100%" height="100%" viewBox="0 0 200 230" version="1.1" xmlns="http://www.w3.org/2000/svg" xmlns:xlink="http://www.w3.org/1999/xlink" xml:space="preserve" xmlns:serif="http://www.serif.com/" style="fill-rule:evenodd;clip-rule:evenodd;stroke-linecap:round;stroke-linejoin:round;stroke-miterlimit:1.5;">
    <g transform="matrix(1,0,0,1,0,-10)">
        <g opacity="0.6">
            <g transform="matrix(1,0,0,1,-10,0)">
                <g>
                    <path d="M20,50L200,50" style="fill:none;stroke:black;stroke-width:0.5px;"/>
                    <g transform="matrix(1,0,0,1,0,10)">
                        <path d="M20,50L200,50" style="fill:none;stroke:black;stroke-opacity:0.2;stroke-width:0.5px;"/>
                    </g>
                    <g transform="matrix(1,0,0,1,0,20)">
                        <path d="M20,50L200,50" style="fill:none;stroke:black;stroke-opacity:0.2;stroke-width:0.5px;"/>
                    </g>
                    <g transform="matrix(1,0,0,1,0,30)">
                        <path d="M20,50L200,50" style="fill:none;stroke:black;stroke-opacity:0.2;stroke-width:0.5px;"/>
                    </g>
                    <g transform="matrix(1,0,0,1,0,40)">
                        <path d="M20,50L200,50" style="fill:none;stroke:black;stroke-opacity:0.2;stroke-width:0.5px;"/>
                    </g>
                </g>
                <g transform="matrix(1,0,0,1,0,50)">
                    <path d="M20,50L200,50" style="fill:none;stroke:black;stroke-opacity:0.5;stroke-width:0.5px;"/>
                    <g transform="matrix(1,0,0,1,0,10)">
                        <path d="M20,50L200,50" style="fill:none;stroke:black;stroke-opacity:0.2;stroke-width:0.5px;"/>
                    </g>
                    <g transform="matrix(1,0,0,1,0,20)">
                        <path d="M20,50L200,50" style="fill:none;stroke:black;stroke-opacity:0.2;stroke-width:0.5px;"/>
                    </g>
                    <g transform="matrix(1,0,0,1,0,30)">
                        <path d="M20,50L200,50" style="fill:none;stroke:black;stroke-opacity:0.2;stroke-width:0.5px;"/>
                    </g>
                    <g transform="matrix(1,0,0,1,0,40)">
                        <path d="M20,50L200,50" style="fill:none;stroke:black;stroke-opacity:0.2;stroke-width:0.5px;"/>
                    </g>
                </g>
                <g transform="matrix(1,0,0,1,0,100)">
                    <path d="M20,50L200,50" style="fill:none;stroke:black;stroke-opacity:0.5;stroke-width:0.5px;"/>
                    <g transform="matrix(1,0,0,1,0,10)">
                        <path d="M20,50L200,50" style="fill:none;stroke:black;stroke-opacity:0.2;stroke-width:0.5px;"/>
                    </g>
                    <g transform="matrix(1,0,0,1,0,20)">
                        <path d="M20,50L200,50" style="fill:none;stroke:black;stroke-opacity:0.2;stroke-width:0.5px;"/>
                    </g>
                    <g transform="matrix(1,0,0,1,0,30)">
                        <path d="M20,50L200,50" style="fill:none;stroke:black;stroke-opacity:0.2;stroke-width:0.5px;"/>
                    </g>
                    <g transform="matrix(1,0,0,1,0,40)">
                        <path d="M20,50L200,50" style="fill:none;stroke:black;stroke-opacity:0.2;stroke-width:0.5px;"/>
                    </g>
                </g>
                <g transform="matrix(1,0,0,1,0,150)">
                    <path d="M20,50L200,50" style="fill:none;stroke:black;stroke-opacity:0.5;stroke-width:0.5px;"/>
                    <g transform="matrix(1,0,0,1,0,10)">
                        <path d="M20,50L200,50" style="fill:none;stroke:black;stroke-opacity:0.2;stroke-width:0.5px;"/>
                    </g>
                    <g transform="matrix(1,0,0,1,0,20)">
                        <path d="M20,50L200,50" style="fill:none;stroke:black;stroke-opacity:0.2;stroke-width:0.5px;"/>
                    </g>
                </g>
                <g transform="matrix(1,0,0,1,0,-50)">
                    <g transform="matrix(1,0,0,1,0,30)">
                        <path d="M20,50L200,50" style="fill:none;stroke:black;stroke-opacity:0.2;stroke-width:0.5px;"/>
                    </g>
                    <g transform="matrix(1,0,0,1,0,40)">
                        <path d="M20,50L200,50" style="fill:none;stroke:black;stroke-opacity:0.2;stroke-width:0.5px;"/>
                    </g>
                </g>
            </g>
            <g transform="matrix(7.14377e-17,-1.16667,1,6.12323e-17,-8.88178e-16,253.333)">
                <g>
                    <path d="M20,50L200,50" style="fill:none;stroke:black;stroke-width:0.46px;"/>
                    <g transform="matrix(1,0,0,1,0,10)">
                        <path d="M20,50L200,50" style="fill:none;stroke:black;stroke-opacity:0.2;stroke-width:0.46px;"/>
                    </g>
                    <g transform="matrix(1,0,0,1,0,20)">
                        <path d="M20,50L200,50" style="fill:none;stroke:black;stroke-opacity:0.2;stroke-width:0.46px;"/>
                    </g>
                    <g transform="matrix(1,0,0,1,0,30)">
                        <path d="M20,50L200,50" style="fill:none;stroke:black;stroke-opacity:0.2;stroke-width:0.46px;"/>
                    </g>
                    <g transform="matrix(1,0,0,1,0,40)">
                        <path d="M20,50L200,50" style="fill:none;stroke:black;stroke-opacity:0.2;stroke-width:0.46px;"/>
                    </g>
                </g>
                <g transform="matrix(1,0,0,1,0,50)">
                    <path d="M20,50L200,50" style="fill:none;stroke:black;stroke-opacity:0.5;stroke-width:0.46px;"/>
                    <g transform="matrix(1,0,0,1,0,10)">
                        <path d="M20,50L200,50" style="fill:none;stroke:black;stroke-opacity:0.2;stroke-width:0.46px;"/>
                    </g>
                    <g transform="matrix(1,0,0,1,0,20)">
                        <path d="M20,50L200,50" style="fill:none;stroke:black;stroke-opacity:0.2;stroke-width:0.46px;"/>
                    </g>
                    <g transform="matrix(1,0,0,1,0,30)">
                        <path d="M20,50L200,50" style="fill:none;stroke:black;stroke-opacity:0.2;stroke-width:0.46px;"/>
                    </g>
                    <g transform="matrix(1,0,0,1,0,40)">
                        <path d="M20,50L200,50" style="fill:none;stroke:black;stroke-opacity:0.2;stroke-width:0.46px;"/>
                    </g>
                </g>
                <g transform="matrix(1,0,0,1,0,100)">
                    <path d="M20,50L200,50" style="fill:none;stroke:black;stroke-opacity:0.5;stroke-width:0.46px;"/>
                    <g transform="matrix(1,0,0,1,0,10)">
                        <path d="M20,50L200,50" style="fill:none;stroke:black;stroke-opacity:0.2;stroke-width:0.46px;"/>
                    </g>
                    <g transform="matrix(1,0,0,1,0,20)">
                        <path d="M20,50L200,50" style="fill:none;stroke:black;stroke-opacity:0.2;stroke-width:0.46px;"/>
                    </g>
                    <g transform="matrix(1,0,0,1,0,30)">
                        <path d="M20,50L200,50" style="fill:none;stroke:black;stroke-opacity:0.2;stroke-width:0.46px;"/>
                    </g>
                </g>
                <g transform="matrix(1,0,0,1,0,-50)">
                    <g transform="matrix(1,0,0,1,0,20)">
                        <path d="M20,50L200,50" style="fill:none;stroke:black;stroke-opacity:0.2;stroke-width:0.46px;"/>
                    </g>
                    <g transform="matrix(1,0,0,1,0,30)">
                        <path d="M20,50L200,50" style="fill:none;stroke:black;stroke-opacity:0.2;stroke-width:0.46px;"/>
                    </g>
                    <g transform="matrix(1,0,0,1,0,40)">
                        <path d="M20,50L200,50" style="fill:none;stroke:black;stroke-opacity:0.2;stroke-width:0.46px;"/>
                    </g>
                </g>
            </g>
        </g>
    </g>
    <g transform="matrix(1,0,0,1,0,-10)">
        <rect x="50" y="50" width="30" height="150" style="fill:rgb(226,141,255);"/>
        <rect x="80" y="50" width="70" height="30" style="fill:rgb(226,141,255);"/>
        <rect x="80" y="110" width="40" height="30" style="fill:rgb(226,141,255);"/>
    </g>
    <g transform="matrix(1,0,0,1,0,-10)">
        <path d="M50,50L80,50L50,200L50,50Z" style="fill:none;stroke:black;stroke-width:0.5px;"/>
        <path d="M50,200L80,50L80,200L50,200Z" style="fill:none;stroke:black;stroke-width:0.5px;"/>
        <path d="M80,50L150,50L80,80L80,50" style="fill:none;stroke:black;stroke-width:0.5px;"/>
        <path d="M80,80L150,50L150,80L80,80Z" style="fill:none;stroke:black;stroke-width:0.5px;"/>
        <path d="M80,110L120,110L80,140L80,110Z" style="fill:none;stroke:black;stroke-width:0.5px;"/>
        <path d="M80,140L120,110L120,140L80,140Z" style="fill:none;stroke:black;stroke-width:0.5px;"/>
    </g>
    <g transform="matrix(1,0,0,1,0,-10)">
        <g transform="matrix(1,0,0,1,94.4467,1.01608)">
            <text x="40.172px" y="42.447px" style="font-family:'ArialMT', 'Arial', sans-serif;font-size:12px;">100,0</text>
        </g>
        <g transform="matrix(1,0,0,1,-23.9104,171.016)">
            <text x="40.172px" y="42.447px" style="font-family:'ArialMT', 'Arial', sans-serif;font-size:12px;">150,0</text>
        </g>
        <g transform="matrix(1,0,0,1,-10.6705,1.01608)">
            <text x="40.172px" y="42.447px" style="font-family:'ArialMT', 'Arial', sans-serif;font-size:12px;">0,0</text>
        </g>
    </g>
</svg>
