<?xml version="1.0" encoding="UTF-8" standalone="no"?>
<!DOCTYPE svg PUBLIC "-//W3C//DTD SVG 1.1//EN" "http://www.w3.org/Graphics/SVG/1.1/DTD/svg11.dtd">
<svg width="100%" height="100%" viewBox="0 0 700 720" version="1.1" xmlns="http://www.w3.org/2000/svg" xmlns:xlink="http://www.w3.org/1999/xlink" xml:space="preserve" xmlns:serif="http://www.serif.com/" style="fill-rule:evenodd;clip-rule:evenodd;stroke-linecap:round;stroke-linejoin:round;stroke-miterlimit:1.5;">
    <g transform="matrix(1,0,0,1,-100.109,20.043)">
        <path d="M300,400L400,360L500,400L400,440L300,400" style="fill:rgb(231,71,255);stroke:black;stroke-width:1px;"/>
        <path d="M300,500L400,540L500,500L500,400L400,440L300,400L300,500Z" style="fill:rgb(231,71,255);stroke:black;stroke-width:1px;"/>
        <path d="M400,540L400,440" style="fill:none;stroke:black;stroke-width:1px;"/>
    </g>
    <g transform="matrix(1,0,0,1,-100.109,-79.957)">
        <path d="M300,400L400,360L500,400L400,440L300,400" style="fill:rgb(231,71,255);stroke:black;stroke-width:1px;"/>
        <path d="M300,500L400,540L500,500L500,400L400,440L300,400L300,500Z" style="fill:rgb(231,71,255);stroke:black;stroke-width:1px;"/>
        <path d="M400,540L400,440" style="fill:none;stroke:black;stroke-width:1px;"/>
    </g>
    <g transform="matrix(1,0,0,1,-100.109,-179.957)">
        <path d="M300,400L400,360L500,400L400,440L300,400" style="fill:rgb(231,71,255);stroke:black;stroke-width:1px;"/>
        <path d="M300,500L400,540L500,500L500,400L400,440L300,400L300,500Z" style="fill:rgb(231,71,255);stroke:black;stroke-width:1px;"/>
        <path d="M400,540L400,440" style="fill:none;stroke:black;stroke-width:1px;"/>
    </g>
    <g transform="matrix(1,0,0,1,-100.109,20.043)">
        <path d="M300,400L400,360L500,400L400,440L300,400" style="fill:rgb(231,71,255);stroke:black;stroke-width:1px;"/>
        <path d="M300,500L400,540L500,500L500,400L400,440L300,400L300,500Z" style="fill:rgb(231,71,255);stroke:black;stroke-width:1px;"/>
        <path d="M400,540L400,440" style="fill:none;stroke:black;stroke-width:1px;"/>
    </g>
    <g transform="matrix(1,0,0,1,-100.109,-79.957)">
        <path d="M300,400L400,360L500,400L400,440L300,400" style="fill:rgb(231,71,255);stroke:black;stroke-width:1px;"/>
        <path d="M300,500L400,540L500,500L500,400L400,440L300,400L300,500Z" style="fill:rgb(231,71,255);stroke:black;stroke-width:1px;"/>
        <path d="M400,540L400,440" style="fill:none;stroke:black;stroke-width:1px;"/>
    </g>
    <g transform="matrix(1,0,0,1,-100.109,-179.957)">
        <path d="M300,400L400,360L500,400L400,440L300,400" style="fill:rgb(231,71,255);stroke:black;stroke-width:1px;"/>
        <path d="M300,500L400,540L500,500L500,400L400,440L300,400L300,500Z" style="fill:rgb(231,71,255);stroke:black;stroke-width:1px;"/>
        <path d="M400,540L400,440" style="fill:none;stroke:black;stroke-width:1px;"/>
    </g>
    <g transform="matrix(1,0,0,1,-100.109,-279.957)">
        <path d="M300,400L400,360L500,400L400,440L300,400" style="fill:rgb(231,71,255);stroke:black;stroke-width:1px;"/>
        <path d="M300,500L400,540L500,500L500,400L400,440L300,400L300,500Z" style="fill:rgb(231,71,255);stroke:black;stroke-width:1px;"/>
        <path d="M400,540L400,440" style="fill:none;stroke:black;stroke-width:1px;"/>
    </g>
    <g transform="matrix(1,0,0,1,-0.109375,60.043)">
        <path d="M300,400L400,360L500,400L400,440L300,400" style="fill:rgb(231,71,255);stroke:black;stroke-width:1px;"/>
        <path d="M300,500L400,540L500,500L500,400L400,440L300,400L300,500Z" style="fill:rgb(231,71,255);stroke:black;stroke-width:1px;"/>
        <path d="M400,540L400,440" style="fill:none;stroke:black;stroke-width:1px;"/>
    </g>
    <g transform="matrix(1,0,0,1,-0.109375,-39.957)">
        <path d="M300,400L400,360L500,400L400,440L300,400" style="fill:rgb(231,71,255);stroke:black;stroke-width:1px;"/>
        <path d="M300,500L400,540L500,500L500,400L400,440L300,400L300,500Z" style="fill:rgb(231,71,255);stroke:black;stroke-width:1px;"/>
        <path d="M400,540L400,440" style="fill:none;stroke:black;stroke-width:1px;"/>
    </g>
    <g transform="matrix(1,0,0,1,-0.109375,-139.957)">
        <path d="M300,400L400,360L500,400L400,440L300,400" style="fill:rgb(231,71,255);stroke:black;stroke-width:1px;"/>
        <path d="M300,500L400,540L500,500L500,400L400,440L300,400L300,500Z" style="fill:rgb(231,71,255);stroke:black;stroke-width:1px;"/>
        <path d="M400,540L400,440" style="fill:none;stroke:black;stroke-width:1px;"/>
    </g>
    <g transform="matrix(1,0,0,1,-0.109375,60.043)">
        <path d="M300,400L400,360L500,400L400,440L300,400" style="fill:rgb(231,71,255);stroke:black;stroke-width:1px;"/>
        <path d="M300,500L400,540L500,500L500,400L400,440L300,400L300,500Z" style="fill:rgb(231,71,255);stroke:black;stroke-width:1px;"/>
        <path d="M400,540L400,440" style="fill:none;stroke:black;stroke-width:1px;"/>
    </g>
    <g transform="matrix(1,0,0,1,-0.109375,-39.957)">
        <path d="M300,400L400,360L500,400L400,440L300,400" style="fill:rgb(231,71,255);stroke:black;stroke-width:1px;"/>
        <path d="M300,500L400,540L500,500L500,400L400,440L300,400L300,500Z" style="fill:rgb(231,71,255);stroke:black;stroke-width:1px;"/>
        <path d="M400,540L400,440" style="fill:none;stroke:black;stroke-width:1px;"/>
    </g>
    <g transform="matrix(1,0,0,1,-0.109375,-139.957)">
        <path d="M300,400L400,360L500,400L400,440L300,400" style="fill:rgb(231,71,255);stroke:black;stroke-width:1px;"/>
        <path d="M300,500L400,540L500,500L500,400L400,440L300,400L300,500Z" style="fill:rgb(231,71,255);stroke:black;stroke-width:1px;"/>
        <path d="M400,540L400,440" style="fill:none;stroke:black;stroke-width:1px;"/>
    </g>
    <g transform="matrix(1,0,0,1,-0.109375,-239.957)">
        <path d="M300,400L400,360L500,400L400,440L300,400" style="fill:rgb(231,71,255);stroke:black;stroke-width:1px;"/>
        <path d="M300,500L400,540L500,500L500,400L400,440L300,400L300,500Z" style="fill:rgb(231,71,255);stroke:black;stroke-width:1px;"/>
        <path d="M400,540L400,440" style="fill:none;stroke:black;stroke-width:1px;"/>
    </g>
    <g transform="matrix(1,0,0,1,99.8906,100.043)">
        <path d="M300,400L400,360L500,400L400,440L300,400" style="fill:rgb(231,71,255);stroke:black;stroke-width:1px;"/>
        <path d="M300,500L400,540L500,500L500,400L400,440L300,400L300,500Z" style="fill:rgb(231,71,255);stroke:black;stroke-width:1px;"/>
        <path d="M400,540L400,440" style="fill:none;stroke:black;stroke-width:1px;"/>
    </g>
    <g transform="matrix(1,0,0,1,99.8906,0.0429688)">
        <path d="M300,400L400,360L500,400L400,440L300,400" style="fill:rgb(231,71,255);stroke:black;stroke-width:1px;"/>
        <path d="M300,500L400,540L500,500L500,400L400,440L300,400L300,500Z" style="fill:rgb(231,71,255);stroke:black;stroke-width:1px;"/>
        <path d="M400,540L400,440" style="fill:none;stroke:black;stroke-width:1px;"/>
    </g>
    <g transform="matrix(1,0,0,1,99.8906,-99.957)">
        <path d="M300,400L400,360L500,400L400,440L300,400" style="fill:rgb(231,71,255);stroke:black;stroke-width:1px;"/>
        <path d="M300,500L400,540L500,500L500,400L400,440L300,400L300,500Z" style="fill:rgb(231,71,255);stroke:black;stroke-width:1px;"/>
        <path d="M400,540L400,440" style="fill:none;stroke:black;stroke-width:1px;"/>
    </g>
    <g transform="matrix(1,0,0,1,99.8906,100.043)">
        <path d="M300,400L400,360L500,400L400,440L300,400" style="fill:rgb(231,71,255);stroke:black;stroke-width:1px;"/>
        <path d="M300,500L400,540L500,500L500,400L400,440L300,400L300,500Z" style="fill:rgb(231,71,255);stroke:black;stroke-width:1px;"/>
        <path d="M400,540L400,440" style="fill:none;stroke:black;stroke-width:1px;"/>
    </g>
    <g transform="matrix(1,0,0,1,99.8906,0.0429688)">
        <path d="M300,400L400,360L500,400L400,440L300,400" style="fill:rgb(231,71,255);stroke:black;stroke-width:1px;"/>
        <path d="M300,500L400,540L500,500L500,400L400,440L300,400L300,500Z" style="fill:rgb(231,71,255);stroke:black;stroke-width:1px;"/>
        <path d="M400,540L400,440" style="fill:none;stroke:black;stroke-width:1px;"/>
    </g>
    <g transform="matrix(1,0,0,1,99.8906,-99.957)">
        <path d="M300,400L400,360L500,400L400,440L300,400" style="fill:rgb(231,71,255);stroke:black;stroke-width:1px;"/>
        <path d="M300,500L400,540L500,500L500,400L400,440L300,400L300,500Z" style="fill:rgb(231,71,255);stroke:black;stroke-width:1px;"/>
        <path d="M400,540L400,440" style="fill:none;stroke:black;stroke-width:1px;"/>
    </g>
    <g transform="matrix(1,0,0,1,99.8906,-199.957)">
        <path d="M300,400L400,360L500,400L400,440L300,400" style="fill:rgb(231,71,255);stroke:black;stroke-width:1px;"/>
        <path d="M300,500L400,540L500,500L500,400L400,440L300,400L300,500Z" style="fill:rgb(231,71,255);stroke:black;stroke-width:1px;"/>
        <path d="M400,540L400,440" style="fill:none;stroke:black;stroke-width:1px;"/>
    </g>
    <g transform="matrix(1,0,0,1,-200.109,60.043)">
        <path d="M300,400L400,360L500,400L400,440L300,400" style="fill:rgb(231,71,255);stroke:black;stroke-width:1px;"/>
        <path d="M300,500L400,540L500,500L500,400L400,440L300,400L300,500Z" style="fill:rgb(231,71,255);stroke:black;stroke-width:1px;"/>
        <path d="M400,540L400,440" style="fill:none;stroke:black;stroke-width:1px;"/>
    </g>
    <g transform="matrix(1,0,0,1,-200.109,-39.957)">
        <path d="M300,400L400,360L500,400L400,440L300,400" style="fill:rgb(231,71,255);stroke:black;stroke-width:1px;"/>
        <path d="M300,500L400,540L500,500L500,400L400,440L300,400L300,500Z" style="fill:rgb(231,71,255);stroke:black;stroke-width:1px;"/>
        <path d="M400,540L400,440" style="fill:none;stroke:black;stroke-width:1px;"/>
    </g>
    <g transform="matrix(1,0,0,1,-200.109,-139.957)">
        <path d="M300,400L400,360L500,400L400,440L300,400" style="fill:rgb(231,71,255);stroke:black;stroke-width:1px;"/>
        <path d="M300,500L400,540L500,500L500,400L400,440L300,400L300,500Z" style="fill:rgb(231,71,255);stroke:black;stroke-width:1px;"/>
        <path d="M400,540L400,440" style="fill:none;stroke:black;stroke-width:1px;"/>
    </g>
    <g transform="matrix(1,0,0,1,-200.109,60.043)">
        <path d="M300,400L400,360L500,400L400,440L300,400" style="fill:rgb(231,71,255);stroke:black;stroke-width:1px;"/>
        <path d="M300,500L400,540L500,500L500,400L400,440L300,400L300,500Z" style="fill:rgb(231,71,255);stroke:black;stroke-width:1px;"/>
        <path d="M400,540L400,440" style="fill:none;stroke:black;stroke-width:1px;"/>
    </g>
    <g transform="matrix(1,0,0,1,-200.109,-39.957)">
        <path d="M300,400L400,360L500,400L400,440L300,400" style="fill:rgb(231,71,255);stroke:black;stroke-width:1px;"/>
        <path d="M300,500L400,540L500,500L500,400L400,440L300,400L300,500Z" style="fill:rgb(231,71,255);stroke:black;stroke-width:1px;"/>
        <path d="M400,540L400,440" style="fill:none;stroke:black;stroke-width:1px;"/>
    </g>
    <g transform="matrix(1,0,0,1,-200.109,-139.957)">
        <path d="M300,400L400,360L500,400L400,440L300,400" style="fill:rgb(231,71,255);stroke:black;stroke-width:1px;"/>
        <path d="M300,500L400,540L500,500L500,400L400,440L300,400L300,500Z" style="fill:rgb(231,71,255);stroke:black;stroke-width:1px;"/>
        <path d="M400,540L400,440" style="fill:none;stroke:black;stroke-width:1px;"/>
    </g>
    <g transform="matrix(1,0,0,1,-200.109,-239.957)">
        <path d="M300,400L400,360L500,400L400,440L300,400" style="fill:rgb(231,71,255);stroke:black;stroke-width:1px;"/>
        <path d="M300,500L400,540L500,500L500,400L400,440L300,400L300,500Z" style="fill:rgb(231,71,255);stroke:black;stroke-width:1px;"/>
        <path d="M400,540L400,440" style="fill:none;stroke:black;stroke-width:1px;"/>
    </g>
    <g transform="matrix(1,0,0,1,-100.109,100.043)">
        <path d="M300,400L400,360L500,400L400,440L300,400" style="fill:rgb(231,71,255);stroke:black;stroke-width:1px;"/>
        <path d="M300,500L400,540L500,500L500,400L400,440L300,400L300,500Z" style="fill:rgb(231,71,255);stroke:black;stroke-width:1px;"/>
        <path d="M400,540L400,440" style="fill:none;stroke:black;stroke-width:1px;"/>
    </g>
    <g transform="matrix(1,0,0,1,-100.109,0.0429688)">
        <path d="M300,400L400,360L500,400L400,440L300,400" style="fill:rgb(231,71,255);stroke:black;stroke-width:1px;"/>
        <path d="M300,500L400,540L500,500L500,400L400,440L300,400L300,500Z" style="fill:rgb(231,71,255);stroke:black;stroke-width:1px;"/>
        <path d="M400,540L400,440" style="fill:none;stroke:black;stroke-width:1px;"/>
    </g>
    <g transform="matrix(1,0,0,1,-100.109,-99.957)">
        <path d="M300,400L400,360L500,400L400,440L300,400" style="fill:rgb(231,71,255);stroke:black;stroke-width:1px;"/>
        <path d="M300,500L400,540L500,500L500,400L400,440L300,400L300,500Z" style="fill:rgb(231,71,255);stroke:black;stroke-width:1px;"/>
        <path d="M400,540L400,440" style="fill:none;stroke:black;stroke-width:1px;"/>
    </g>
    <g transform="matrix(1,0,0,1,-100.109,100.043)">
        <path d="M300,400L400,360L500,400L400,440L300,400" style="fill:rgb(231,71,255);stroke:black;stroke-width:1px;"/>
        <path d="M300,500L400,540L500,500L500,400L400,440L300,400L300,500Z" style="fill:rgb(231,71,255);stroke:black;stroke-width:1px;"/>
        <path d="M400,540L400,440" style="fill:none;stroke:black;stroke-width:1px;"/>
    </g>
    <g transform="matrix(1,0,0,1,-100.109,0.0429688)">
        <path d="M300,400L400,360L500,400L400,440L300,400" style="fill:rgb(231,71,255);stroke:black;stroke-width:1px;"/>
        <path d="M300,500L400,540L500,500L500,400L400,440L300,400L300,500Z" style="fill:rgb(231,71,255);stroke:black;stroke-width:1px;"/>
        <path d="M400,540L400,440" style="fill:none;stroke:black;stroke-width:1px;"/>
    </g>
    <g transform="matrix(1,0,0,1,-100.109,-99.957)">
        <path d="M300,400L400,360L500,400L400,440L300,400" style="fill:rgb(231,71,255);stroke:black;stroke-width:1px;"/>
        <path d="M300,500L400,540L500,500L500,400L400,440L300,400L300,500Z" style="fill:rgb(231,71,255);stroke:black;stroke-width:1px;"/>
        <path d="M400,540L400,440" style="fill:none;stroke:black;stroke-width:1px;"/>
    </g>
    <g transform="matrix(1,0,0,1,-100.109,-199.957)">
        <path d="M300,400L400,360L500,400L400,440L300,400" style="fill:rgb(231,71,255);stroke:black;stroke-width:1px;"/>
        <path d="M300,500L400,540L500,500L500,400L400,440L300,400L300,500Z" style="fill:rgb(231,71,255);stroke:black;stroke-width:1px;"/>
        <path d="M400,540L400,440" style="fill:none;stroke:black;stroke-width:1px;"/>
    </g>
    <g transform="matrix(1,0,0,1,-0.109375,140.043)">
        <path d="M300,400L400,360L500,400L400,440L300,400" style="fill:rgb(231,71,255);stroke:black;stroke-width:1px;"/>
        <path d="M300,500L400,540L500,500L500,400L400,440L300,400L300,500Z" style="fill:rgb(231,71,255);stroke:black;stroke-width:1px;"/>
        <path d="M400,540L400,440" style="fill:none;stroke:black;stroke-width:1px;"/>
    </g>
    <g transform="matrix(1,0,0,1,-0.109375,40.043)">
        <path d="M300,400L400,360L500,400L400,440L300,400" style="fill:rgb(231,71,255);stroke:black;stroke-width:1px;"/>
        <path d="M300,500L400,540L500,500L500,400L400,440L300,400L300,500Z" style="fill:rgb(231,71,255);stroke:black;stroke-width:1px;"/>
        <path d="M400,540L400,440" style="fill:none;stroke:black;stroke-width:1px;"/>
    </g>
    <g transform="matrix(1,0,0,1,-0.109375,-59.957)">
        <path d="M300,400L400,360L500,400L400,440L300,400" style="fill:rgb(231,71,255);stroke:black;stroke-width:1px;"/>
        <path d="M300,500L400,540L500,500L500,400L400,440L300,400L300,500Z" style="fill:rgb(231,71,255);stroke:black;stroke-width:1px;"/>
        <path d="M400,540L400,440" style="fill:none;stroke:black;stroke-width:1px;"/>
    </g>
    <g transform="matrix(1,0,0,1,-0.109375,140.043)">
        <path d="M300,400L400,360L500,400L400,440L300,400" style="fill:rgb(231,71,255);stroke:black;stroke-width:1px;"/>
        <path d="M300,500L400,540L500,500L500,400L400,440L300,400L300,500Z" style="fill:rgb(231,71,255);stroke:black;stroke-width:1px;"/>
        <path d="M400,540L400,440" style="fill:none;stroke:black;stroke-width:1px;"/>
    </g>
    <g transform="matrix(1,0,0,1,-0.109375,40.043)">
        <path d="M300,400L400,360L500,400L400,440L300,400" style="fill:rgb(231,71,255);stroke:black;stroke-width:1px;"/>
        <path d="M300,500L400,540L500,500L500,400L400,440L300,400L300,500Z" style="fill:rgb(231,71,255);stroke:black;stroke-width:1px;"/>
        <path d="M400,540L400,440" style="fill:none;stroke:black;stroke-width:1px;"/>
    </g>
    <g transform="matrix(1,0,0,1,-0.109375,-59.957)">
        <path d="M300,400L400,360L500,400L400,440L300,400" style="fill:rgb(231,71,255);stroke:black;stroke-width:1px;"/>
        <path d="M300,500L400,540L500,500L500,400L400,440L300,400L300,500Z" style="fill:rgb(231,71,255);stroke:black;stroke-width:1px;"/>
        <path d="M400,540L400,440" style="fill:none;stroke:black;stroke-width:1px;"/>
    </g>
    <g transform="matrix(1,0,0,1,-0.109375,-159.957)">
        <path d="M300,400L400,360L500,400L400,440L300,400" style="fill:rgb(231,71,255);stroke:black;stroke-width:1px;"/>
        <path d="M300,500L400,540L500,500L500,400L400,440L300,400L300,500Z" style="fill:rgb(231,71,255);stroke:black;stroke-width:1px;"/>
        <path d="M400,540L400,440" style="fill:none;stroke:black;stroke-width:1px;"/>
    </g>
    <g transform="matrix(1,0,0,1,55.7216,53.4724)">
        <text x="70.997px" y="563.528px" style="font-family:'Arial-BoldMT', 'Arial', sans-serif;font-weight:700;font-size:48px;">0</text>
    </g>
    <g transform="matrix(1,0,0,1,546.878,-286.528)">
        <text x="70.997px" y="563.528px" style="font-family:'Arial-BoldMT', 'Arial', sans-serif;font-weight:700;font-size:48px;">0</text>
    </g>
    <g transform="matrix(1,0,0,1,64.6747,-436.571)">
        <text x="70.997px" y="563.528px" style="font-family:'Arial-BoldMT', 'Arial', sans-serif;font-weight:700;font-size:48px;">0</text>
    </g>
    <g transform="matrix(1,0,0,1,546.202,-386.528)">
        <text x="70.997px" y="563.528px" style="font-family:'Arial-BoldMT', 'Arial', sans-serif;font-weight:700;font-size:48px;">y</text>
    </g>
    <g transform="matrix(1,0,0,1,-24.2784,13.4724)">
        <text x="70.997px" y="563.528px" style="font-family:'Arial-BoldMT', 'Arial', sans-serif;font-weight:700;font-size:48px;">x</text>
    </g>
    <g transform="matrix(1,0,0,1,155.722,93.4724)">
        <text x="70.997px" y="563.528px" style="font-family:'Arial-BoldMT', 'Arial', sans-serif;font-weight:700;font-size:48px;">1</text>
    </g>
    <g transform="matrix(1,0,0,1,547.55,-186.235)">
        <text x="70.997px" y="563.528px" style="font-family:'Arial-BoldMT', 'Arial', sans-serif;font-weight:700;font-size:48px;">1</text>
    </g>
    <g transform="matrix(1,0,0,1,165.206,-479.028)">
        <text x="70.997px" y="563.528px" style="font-family:'Arial-BoldMT', 'Arial', sans-serif;font-weight:700;font-size:48px;">1</text>
    </g>
    <g transform="matrix(1,0,0,1,-32.3409,-389.028)">
        <text x="72.345px" y="563.528px" style="font-family:'Arial-BoldMT', 'Arial', sans-serif;font-weight:700;font-size:48px;">z</text>
    </g>
    <g transform="matrix(1,0,0,1,547.55,-88.9846)">
        <text x="70.997px" y="563.528px" style="font-family:'Arial-BoldMT', 'Arial', sans-serif;font-weight:700;font-size:48px;">2</text>
    </g>
    <g transform="matrix(1,0,0,1,546.155,13.7654)">
        <text x="70.997px" y="563.528px" style="font-family:'Arial-BoldMT', 'Arial', sans-serif;font-weight:700;font-size:48px;">3</text>
    </g>
    <g transform="matrix(1,0,0,1,255.722,133.472)">
        <text x="70.997px" y="563.528px" style="font-family:'Arial-BoldMT', 'Arial', sans-serif;font-weight:700;font-size:48px;">2</text>
    </g>
    <path d="M80,577.047L120,594.221" style="fill:none;stroke:black;stroke-width:1px;"/>
    <g transform="matrix(1,0,0,1,90,38.3661)">
        <path d="M80,577.047L120,594.221" style="fill:none;stroke:black;stroke-width:1px;"/>
    </g>
    <g transform="matrix(0.668995,-0.743267,0.743267,0.668995,-401.944,-178.338)">
        <path d="M80,577.047L120,594.221" style="fill:none;stroke:black;stroke-width:1px;"/>
    </g>
    <g transform="matrix(0.668995,-0.743267,0.743267,0.668995,-296.944,-226.58)">
        <path d="M80,577.047L120,594.221" style="fill:none;stroke:black;stroke-width:1px;"/>
    </g>
    <g transform="matrix(1,0,0,1,190,81.7792)">
        <path d="M80,577.047L120,594.221" style="fill:none;stroke:black;stroke-width:1px;"/>
    </g>
    <path d="M630,200.043L630,230" style="fill:none;stroke:black;stroke-width:1px;"/>
    <g transform="matrix(1,0,0,1,0,95)">
        <path d="M630,200.043L630,230" style="fill:none;stroke:black;stroke-width:1px;"/>
    </g>
    <g transform="matrix(1,0,0,1,0,195)">
        <path d="M630,200.043L630,230" style="fill:none;stroke:black;stroke-width:1px;"/>
    </g>
    <g transform="matrix(1,0,0,1,-1.13687e-13,295)">
        <path d="M630,200.043L630,230" style="fill:none;stroke:black;stroke-width:1px;"/>
    </g>
</svg>
