<?xml version="1.0" encoding="UTF-8" standalone="no"?>
<!DOCTYPE svg PUBLIC "-//W3C//DTD SVG 1.1//EN" "http://www.w3.org/Graphics/SVG/1.1/DTD/svg11.dtd">
<svg width="100%" height="100%" viewBox="0 0 800 720" version="1.1" xmlns="http://www.w3.org/2000/svg" xmlns:xlink="http://www.w3.org/1999/xlink" xml:space="preserve" xmlns:serif="http://www.serif.com/" style="fill-rule:evenodd;clip-rule:evenodd;stroke-linecap:round;stroke-linejoin:round;stroke-miterlimit:1.5;">
    <g transform="matrix(1,0,0,1,0.109375,-100)">
        <g transform="matrix(1,0,0,1,99.8906,100.043)">
            <path d="M300,400L400,360L500,400L400,440L300,400" style="fill:rgb(117,236,255);stroke:black;stroke-width:1px;"/>
            <path d="M300,500L400,540L500,500L500,400L400,440L300,400L300,500Z" style="fill:rgb(117,236,255);stroke:black;stroke-width:1px;"/>
            <path d="M400,540L400,440" style="fill:none;stroke:black;stroke-width:1px;"/>
        </g>
        <g transform="matrix(1,0,0,1,-100.109,20.043)">
            <path d="M300,400L400,360L500,400L400,440L300,400" style="fill:rgb(117,236,255);stroke:black;stroke-width:1px;"/>
            <path d="M300,500L400,540L500,500L500,400L400,440L300,400L300,500Z" style="fill:rgb(117,236,255);stroke:black;stroke-width:1px;"/>
            <path d="M400,540L400,440" style="fill:none;stroke:black;stroke-width:1px;"/>
        </g>
        <g transform="matrix(1,0,0,1,-100.109,-79.957)">
            <path d="M300,400L400,360L500,400L400,440L300,400" style="fill:rgb(117,236,255);stroke:black;stroke-width:1px;"/>
            <path d="M300,500L400,540L500,500L500,400L400,440L300,400L300,500Z" style="fill:rgb(117,236,255);stroke:black;stroke-width:1px;"/>
            <path d="M400,540L400,440" style="fill:none;stroke:black;stroke-width:1px;"/>
        </g>
        <g transform="matrix(1,0,0,1,-100.109,-179.957)">
            <path d="M300,400L400,360L500,400L400,440L300,400" style="fill:rgb(117,236,255);stroke:black;stroke-width:1px;"/>
            <path d="M300,500L400,540L500,500L500,400L400,440L300,400L300,500Z" style="fill:rgb(117,236,255);stroke:black;stroke-width:1px;"/>
            <path d="M400,540L400,440" style="fill:none;stroke:black;stroke-width:1px;"/>
        </g>
        <g transform="matrix(1,0,0,1,-100.109,20.043)">
            <path d="M300,400L400,360L500,400L400,440L300,400" style="fill:rgb(117,236,255);stroke:black;stroke-width:1px;"/>
            <path d="M300,500L400,540L500,500L500,400L400,440L300,400L300,500Z" style="fill:rgb(117,236,255);stroke:black;stroke-width:1px;"/>
            <path d="M400,540L400,440" style="fill:none;stroke:black;stroke-width:1px;"/>
        </g>
        <g transform="matrix(1,0,0,1,-100.109,-79.957)">
            <path d="M300,400L400,360L500,400L400,440L300,400" style="fill:rgb(117,236,255);stroke:black;stroke-width:1px;"/>
            <path d="M300,500L400,540L500,500L500,400L400,440L300,400L300,500Z" style="fill:rgb(117,236,255);stroke:black;stroke-width:1px;"/>
            <path d="M400,540L400,440" style="fill:none;stroke:black;stroke-width:1px;"/>
        </g>
        <g transform="matrix(1,0,0,1,-100.109,-179.957)">
            <path d="M300,400L400,360L500,400L400,440L300,400" style="fill:rgb(117,236,255);stroke:black;stroke-width:1px;"/>
            <path d="M300,500L400,540L500,500L500,400L400,440L300,400L300,500Z" style="fill:rgb(117,236,255);stroke:black;stroke-width:1px;"/>
            <path d="M400,540L400,440" style="fill:none;stroke:black;stroke-width:1px;"/>
        </g>
        <g transform="matrix(1,0,0,1,-0.109375,60.043)">
            <path d="M300,400L400,360L500,400L400,440L300,400" style="fill:rgb(117,236,255);stroke:black;stroke-width:1px;"/>
            <path d="M300,500L400,540L500,500L500,400L400,440L300,400L300,500Z" style="fill:rgb(117,236,255);stroke:black;stroke-width:1px;"/>
            <path d="M400,540L400,440" style="fill:none;stroke:black;stroke-width:1px;"/>
        </g>
        <g transform="matrix(1,0,0,1,-0.109375,-39.957)">
            <path d="M300,400L400,360L500,400L400,440L300,400" style="fill:rgb(117,236,255);stroke:black;stroke-width:1px;"/>
            <path d="M300,500L400,540L500,500L500,400L400,440L300,400L300,500Z" style="fill:rgb(117,236,255);stroke:black;stroke-width:1px;"/>
            <path d="M400,540L400,440" style="fill:none;stroke:black;stroke-width:1px;"/>
        </g>
        <g transform="matrix(1,0,0,1,-0.109375,-139.957)">
            <path d="M300,400L400,360L500,400L400,440L300,400" style="fill:rgb(117,236,255);stroke:black;stroke-width:1px;"/>
            <path d="M300,500L400,540L500,500L500,400L400,440L300,400L300,500Z" style="fill:rgb(117,236,255);stroke:black;stroke-width:1px;"/>
            <path d="M400,540L400,440" style="fill:none;stroke:black;stroke-width:1px;"/>
        </g>
        <g transform="matrix(1,0,0,1,-0.109375,60.043)">
            <path d="M300,400L400,360L500,400L400,440L300,400" style="fill:rgb(117,236,255);stroke:black;stroke-width:1px;"/>
            <path d="M300,500L400,540L500,500L500,400L400,440L300,400L300,500Z" style="fill:rgb(117,236,255);stroke:black;stroke-width:1px;"/>
            <path d="M400,540L400,440" style="fill:none;stroke:black;stroke-width:1px;"/>
        </g>
        <g transform="matrix(1,0,0,1,-0.109375,-39.957)">
            <path d="M300,400L400,360L500,400L400,440L300,400" style="fill:rgb(117,236,255);stroke:black;stroke-width:1px;"/>
            <path d="M300,500L400,540L500,500L500,400L400,440L300,400L300,500Z" style="fill:rgb(117,236,255);stroke:black;stroke-width:1px;"/>
            <path d="M400,540L400,440" style="fill:none;stroke:black;stroke-width:1px;"/>
        </g>
        <g transform="matrix(1,0,0,1,-0.109375,-139.957)">
            <path d="M300,400L400,360L500,400L400,440L300,400" style="fill:rgb(117,236,255);stroke:black;stroke-width:1px;"/>
            <path d="M300,500L400,540L500,500L500,400L400,440L300,400L300,500Z" style="fill:rgb(117,236,255);stroke:black;stroke-width:1px;"/>
            <path d="M400,540L400,440" style="fill:none;stroke:black;stroke-width:1px;"/>
        </g>
        <g transform="matrix(1,0,0,1,99.8906,100.043)">
            <path d="M300,400L400,360L500,400L400,440L300,400" style="fill:rgb(117,236,255);stroke:black;stroke-width:1px;"/>
            <path d="M300,500L400,540L500,500L500,400L400,440L300,400L300,500Z" style="fill:rgb(117,236,255);stroke:black;stroke-width:1px;"/>
            <path d="M400,540L400,440" style="fill:none;stroke:black;stroke-width:1px;"/>
        </g>
        <g transform="matrix(1,0,0,1,99.8906,0.0429688)">
            <path d="M300,400L400,360L500,400L400,440L300,400" style="fill:rgb(117,236,255);stroke:black;stroke-width:1px;"/>
            <path d="M300,500L400,540L500,500L500,400L400,440L300,400L300,500Z" style="fill:rgb(117,236,255);stroke:black;stroke-width:1px;"/>
            <path d="M400,540L400,440" style="fill:none;stroke:black;stroke-width:1px;"/>
        </g>
        <g transform="matrix(1,0,0,1,99.8906,-99.957)">
            <path d="M300,400L400,360L500,400L400,440L300,400" style="fill:rgb(117,236,255);stroke:black;stroke-width:1px;"/>
            <path d="M300,500L400,540L500,500L500,400L400,440L300,400L300,500Z" style="fill:rgb(117,236,255);stroke:black;stroke-width:1px;"/>
            <path d="M400,540L400,440" style="fill:none;stroke:black;stroke-width:1px;"/>
        </g>
        <g transform="matrix(1,0,0,1,99.8906,0.0429688)">
            <path d="M300,400L400,360L500,400L400,440L300,400" style="fill:rgb(117,236,255);stroke:black;stroke-width:1px;"/>
            <path d="M300,500L400,540L500,500L500,400L400,440L300,400L300,500Z" style="fill:rgb(117,236,255);stroke:black;stroke-width:1px;"/>
            <path d="M400,540L400,440" style="fill:none;stroke:black;stroke-width:1px;"/>
        </g>
        <g transform="matrix(1,0,0,1,99.8906,-99.957)">
            <path d="M300,400L400,360L500,400L400,440L300,400" style="fill:rgb(117,236,255);stroke:black;stroke-width:1px;"/>
            <path d="M300,500L400,540L500,500L500,400L400,440L300,400L300,500Z" style="fill:rgb(117,236,255);stroke:black;stroke-width:1px;"/>
            <path d="M400,540L400,440" style="fill:none;stroke:black;stroke-width:1px;"/>
        </g>
        <g transform="matrix(1,0,0,1,-200.109,60.043)">
            <path d="M300,400L400,360L500,400L400,440L300,400" style="fill:rgb(117,236,255);stroke:black;stroke-width:1px;"/>
            <path d="M300,500L400,540L500,500L500,400L400,440L300,400L300,500Z" style="fill:rgb(117,236,255);stroke:black;stroke-width:1px;"/>
            <path d="M400,540L400,440" style="fill:none;stroke:black;stroke-width:1px;"/>
        </g>
        <g transform="matrix(1,0,0,1,-200.109,-39.957)">
            <path d="M300,400L400,360L500,400L400,440L300,400" style="fill:rgb(117,236,255);stroke:black;stroke-width:1px;"/>
            <path d="M300,500L400,540L500,500L500,400L400,440L300,400L300,500Z" style="fill:rgb(117,236,255);stroke:black;stroke-width:1px;"/>
            <path d="M400,540L400,440" style="fill:none;stroke:black;stroke-width:1px;"/>
        </g>
        <g transform="matrix(1,0,0,1,-200.109,-139.957)">
            <path d="M300,400L400,360L500,400L400,440L300,400" style="fill:rgb(117,236,255);stroke:black;stroke-width:1px;"/>
            <path d="M300,500L400,540L500,500L500,400L400,440L300,400L300,500Z" style="fill:rgb(117,236,255);stroke:black;stroke-width:1px;"/>
            <path d="M400,540L400,440" style="fill:none;stroke:black;stroke-width:1px;"/>
        </g>
        <g transform="matrix(1,0,0,1,-200.109,60.043)">
            <path d="M300,400L400,360L500,400L400,440L300,400" style="fill:rgb(117,236,255);stroke:black;stroke-width:1px;"/>
            <path d="M300,500L400,540L500,500L500,400L400,440L300,400L300,500Z" style="fill:rgb(117,236,255);stroke:black;stroke-width:1px;"/>
            <path d="M400,540L400,440" style="fill:none;stroke:black;stroke-width:1px;"/>
        </g>
        <g transform="matrix(1,0,0,1,-200.109,-39.957)">
            <path d="M300,400L400,360L500,400L400,440L300,400" style="fill:rgb(117,236,255);stroke:black;stroke-width:1px;"/>
            <path d="M300,500L400,540L500,500L500,400L400,440L300,400L300,500Z" style="fill:rgb(117,236,255);stroke:black;stroke-width:1px;"/>
            <path d="M400,540L400,440" style="fill:none;stroke:black;stroke-width:1px;"/>
        </g>
        <g transform="matrix(1,0,0,1,-200.109,-139.957)">
            <path d="M300,400L400,360L500,400L400,440L300,400" style="fill:rgb(117,236,255);stroke:black;stroke-width:1px;"/>
            <path d="M300,500L400,540L500,500L500,400L400,440L300,400L300,500Z" style="fill:rgb(117,236,255);stroke:black;stroke-width:1px;"/>
            <path d="M400,540L400,440" style="fill:none;stroke:black;stroke-width:1px;"/>
        </g>
        <g transform="matrix(1,0,0,1,-100.109,100.043)">
            <path d="M300,400L400,360L500,400L400,440L300,400" style="fill:rgb(117,236,255);stroke:black;stroke-width:1px;"/>
            <path d="M300,500L400,540L500,500L500,400L400,440L300,400L300,500Z" style="fill:rgb(117,236,255);stroke:black;stroke-width:1px;"/>
            <path d="M400,540L400,440" style="fill:none;stroke:black;stroke-width:1px;"/>
        </g>
        <g transform="matrix(1,0,0,1,-100.109,0.0429688)">
            <path d="M300,400L400,360L500,400L400,440L300,400" style="fill:rgb(117,236,255);stroke:black;stroke-width:1px;"/>
            <path d="M300,500L400,540L500,500L500,400L400,440L300,400L300,500Z" style="fill:rgb(117,236,255);stroke:black;stroke-width:1px;"/>
            <path d="M400,540L400,440" style="fill:none;stroke:black;stroke-width:1px;"/>
        </g>
        <g transform="matrix(1,0,0,1,-100.109,-99.957)">
            <path d="M300,400L400,360L500,400L400,440L300,400" style="fill:rgb(117,236,255);stroke:black;stroke-width:1px;"/>
            <path d="M300,500L400,540L500,500L500,400L400,440L300,400L300,500Z" style="fill:rgb(117,236,255);stroke:black;stroke-width:1px;"/>
            <path d="M400,540L400,440" style="fill:none;stroke:black;stroke-width:1px;"/>
        </g>
        <g transform="matrix(1,0,0,1,-100.109,100.043)">
            <path d="M300,400L400,360L500,400L400,440L300,400" style="fill:rgb(117,236,255);stroke:black;stroke-width:1px;"/>
            <path d="M300,500L400,540L500,500L500,400L400,440L300,400L300,500Z" style="fill:rgb(117,236,255);stroke:black;stroke-width:1px;"/>
            <path d="M400,540L400,440" style="fill:none;stroke:black;stroke-width:1px;"/>
        </g>
        <g transform="matrix(1,0,0,1,-100.109,0.0429688)">
            <path d="M300,400L400,360L500,400L400,440L300,400" style="fill:rgb(117,236,255);stroke:black;stroke-width:1px;"/>
            <path d="M300,500L400,540L500,500L500,400L400,440L300,400L300,500Z" style="fill:rgb(117,236,255);stroke:black;stroke-width:1px;"/>
            <path d="M400,540L400,440" style="fill:none;stroke:black;stroke-width:1px;"/>
        </g>
        <g transform="matrix(1,0,0,1,-100.109,-99.957)">
            <path d="M300,400L400,360L500,400L400,440L300,400" style="fill:rgb(117,236,255);stroke:black;stroke-width:1px;"/>
            <path d="M300,500L400,540L500,500L500,400L400,440L300,400L300,500Z" style="fill:rgb(117,236,255);stroke:black;stroke-width:1px;"/>
            <path d="M400,540L400,440" style="fill:none;stroke:black;stroke-width:1px;"/>
        </g>
        <g transform="matrix(1,0,0,1,-0.109375,140.043)">
            <path d="M300,400L400,360L500,400L400,440L300,400" style="fill:rgb(117,236,255);stroke:black;stroke-width:1px;"/>
            <path d="M300,500L400,540L500,500L500,400L400,440L300,400L300,500Z" style="fill:rgb(117,236,255);stroke:black;stroke-width:1px;"/>
            <path d="M400,540L400,440" style="fill:none;stroke:black;stroke-width:1px;"/>
        </g>
        <g transform="matrix(1,0,0,1,-0.109375,40.043)">
            <path d="M300,400L400,360L500,400L400,440L300,400" style="fill:rgb(117,236,255);stroke:black;stroke-width:1px;"/>
            <path d="M300,500L400,540L500,500L500,400L400,440L300,400L300,500Z" style="fill:rgb(117,236,255);stroke:black;stroke-width:1px;"/>
            <path d="M400,540L400,440" style="fill:none;stroke:black;stroke-width:1px;"/>
        </g>
        <g transform="matrix(1,0,0,1,-0.109375,-59.957)">
            <path d="M300,400L400,360L500,400L400,440L300,400" style="fill:rgb(117,236,255);stroke:black;stroke-width:1px;"/>
            <path d="M300,500L400,540L500,500L500,400L400,440L300,400L300,500Z" style="fill:rgb(117,236,255);stroke:black;stroke-width:1px;"/>
            <path d="M400,540L400,440" style="fill:none;stroke:black;stroke-width:1px;"/>
        </g>
        <g transform="matrix(1,0,0,1,-0.109375,140.043)">
            <path d="M300,400L400,360L500,400L400,440L300,400" style="fill:rgb(117,236,255);stroke:black;stroke-width:1px;"/>
            <path d="M300,500L400,540L500,500L500,400L400,440L300,400L300,500Z" style="fill:rgb(117,236,255);stroke:black;stroke-width:1px;"/>
            <path d="M400,540L400,440" style="fill:none;stroke:black;stroke-width:1px;"/>
        </g>
        <g transform="matrix(1,0,0,1,-0.109375,40.043)">
            <path d="M300,400L400,360L500,400L400,440L300,400" style="fill:rgb(117,236,255);stroke:black;stroke-width:1px;"/>
            <path d="M300,500L400,540L500,500L500,400L400,440L300,400L300,500Z" style="fill:rgb(117,236,255);stroke:black;stroke-width:1px;"/>
            <path d="M400,540L400,440" style="fill:none;stroke:black;stroke-width:1px;"/>
        </g>
        <g transform="matrix(1,0,0,1,-0.109375,-59.957)">
            <path d="M300,400L400,360L500,400L400,440L300,400" style="fill:rgb(117,236,255);stroke:black;stroke-width:1px;"/>
            <path d="M300,500L400,540L500,500L500,400L400,440L300,400L300,500Z" style="fill:rgb(117,236,255);stroke:black;stroke-width:1px;"/>
            <path d="M400,540L400,440" style="fill:none;stroke:black;stroke-width:1px;"/>
        </g>
        <g transform="matrix(1,0,0,1,200,140)">
            <path d="M300,400L400,360L500,400L400,440L300,400" style="fill:rgb(117,236,255);stroke:black;stroke-width:1px;"/>
            <path d="M300,500L400,540L500,500L500,400L400,440L300,400L300,500Z" style="fill:rgb(117,236,255);stroke:black;stroke-width:1px;"/>
            <path d="M400,540L400,440" style="fill:none;stroke:black;stroke-width:1px;"/>
        </g>
        <g transform="matrix(1,0,0,1,99.8906,180)">
            <path d="M300,400L400,360L500,400L400,440L300,400" style="fill:rgb(117,236,255);stroke:black;stroke-width:1px;"/>
            <path d="M300,500L400,540L500,500L500,400L400,440L300,400L300,500Z" style="fill:rgb(117,236,255);stroke:black;stroke-width:1px;"/>
            <path d="M400,540L400,440" style="fill:none;stroke:black;stroke-width:1px;"/>
        </g>
        <g transform="matrix(1,0,0,1,199.891,40)">
            <path d="M300,400L400,360L500,400L400,440L300,400" style="fill:rgb(117,236,255);stroke:black;stroke-width:1px;"/>
            <path d="M300,500L400,540L500,500L500,400L400,440L300,400L300,500Z" style="fill:rgb(117,236,255);stroke:black;stroke-width:1px;"/>
            <path d="M400,540L400,440" style="fill:none;stroke:black;stroke-width:1px;"/>
        </g>
        <g transform="matrix(1,0,0,1,100,80)">
            <path d="M300,400L400,360L500,400L400,440L300,400" style="fill:rgb(117,236,255);stroke:black;stroke-width:1px;"/>
            <path d="M300,500L400,540L500,500L500,400L400,440L300,400L300,500Z" style="fill:rgb(117,236,255);stroke:black;stroke-width:1px;"/>
            <path d="M400,540L400,440" style="fill:none;stroke:black;stroke-width:1px;"/>
        </g>
        <g transform="matrix(1,0,0,1,199.891,-59.957)">
            <path d="M300,400L400,360L500,400L400,440L300,400" style="fill:rgb(117,236,255);stroke:black;stroke-width:1px;"/>
            <path d="M300,500L400,540L500,500L500,400L400,440L300,400L300,500Z" style="fill:rgb(117,236,255);stroke:black;stroke-width:1px;"/>
            <path d="M400,540L400,440" style="fill:none;stroke:black;stroke-width:1px;"/>
        </g>
        <g transform="matrix(1,0,0,1,100,-19.957)">
            <path d="M300,400L400,360L500,400L400,440L300,400" style="fill:rgb(222,0,255);stroke:black;stroke-width:1px;"/>
            <path d="M300,500L400,540L500,500L500,400L400,440L300,400L300,500Z" style="fill:rgb(222,0,255);stroke:black;stroke-width:1px;"/>
            <path d="M400,540L400,440" style="fill:none;stroke:black;stroke-width:1px;"/>
        </g>
    </g>
    <g>
        <g transform="matrix(1,0,0,1,55.7216,-38.6369)">
            <text x="70.997px" y="563.528px" style="font-family:'Arial-BoldMT', 'Arial', sans-serif;font-weight:700;font-size:48px;">0</text>
        </g>
        <g transform="matrix(1,0,0,1,636.554,-263.528)">
            <text x="70.997px" y="563.528px" style="font-family:'Arial-BoldMT', 'Arial', sans-serif;font-weight:700;font-size:48px;">0</text>
        </g>
        <g transform="matrix(1,0,0,1,64.6747,-436.571)">
            <text x="70.997px" y="563.528px" style="font-family:'Arial-BoldMT', 'Arial', sans-serif;font-weight:700;font-size:48px;">0</text>
        </g>
        <g transform="matrix(1,0,0,1,635.878,-363.528)">
            <text x="70.997px" y="563.528px" style="font-family:'Arial-BoldMT', 'Arial', sans-serif;font-weight:700;font-size:48px;">y</text>
        </g>
        <g transform="matrix(1,0,0,1,-24.2784,-78.6369)">
            <text x="70.997px" y="563.528px" style="font-family:'Arial-BoldMT', 'Arial', sans-serif;font-weight:700;font-size:48px;">x</text>
        </g>
        <g transform="matrix(1,0,0,1,155.722,1.36307)">
            <text x="70.997px" y="563.528px" style="font-family:'Arial-BoldMT', 'Arial', sans-serif;font-weight:700;font-size:48px;">1</text>
        </g>
        <g transform="matrix(1,0,0,1,637.226,-163.235)">
            <text x="70.997px" y="563.528px" style="font-family:'Arial-BoldMT', 'Arial', sans-serif;font-weight:700;font-size:48px;">1</text>
        </g>
        <g transform="matrix(1,0,0,1,165.206,-479.028)">
            <text x="70.997px" y="563.528px" style="font-family:'Arial-BoldMT', 'Arial', sans-serif;font-weight:700;font-size:48px;">1</text>
        </g>
        <g transform="matrix(1,0,0,1,-32.3409,-389.028)">
            <text x="72.345px" y="563.528px" style="font-family:'Arial-BoldMT', 'Arial', sans-serif;font-weight:700;font-size:48px;">z</text>
        </g>
        <g transform="matrix(1,0,0,1,637.226,-65.9846)">
            <text x="70.997px" y="563.528px" style="font-family:'Arial-BoldMT', 'Arial', sans-serif;font-weight:700;font-size:48px;">2</text>
        </g>
        <g transform="matrix(1,0,0,1,354.37,80.9724)">
            <text x="70.997px" y="563.528px" style="font-family:'Arial-BoldMT', 'Arial', sans-serif;font-weight:700;font-size:48px;">3</text>
        </g>
        <g transform="matrix(1,0,0,1,255.722,41.3631)">
            <text x="70.997px" y="563.528px" style="font-family:'Arial-BoldMT', 'Arial', sans-serif;font-weight:700;font-size:48px;">2</text>
        </g>
        <g transform="matrix(1,0,0,1,0,-92.1094)">
            <path d="M80,577.047L120,594.221" style="fill:none;stroke:black;stroke-width:1px;"/>
        </g>
        <g transform="matrix(1,0,0,1,90,-53.7432)">
            <path d="M80,577.047L120,594.221" style="fill:none;stroke:black;stroke-width:1px;"/>
        </g>
        <g transform="matrix(0.668995,-0.743267,0.743267,0.668995,-401.944,-178.338)">
            <path d="M80,577.047L120,594.221" style="fill:none;stroke:black;stroke-width:1px;"/>
        </g>
        <g transform="matrix(0.668995,-0.743267,0.743267,0.668995,-296.944,-226.58)">
            <path d="M80,577.047L120,594.221" style="fill:none;stroke:black;stroke-width:1px;"/>
        </g>
        <g transform="matrix(1,0,0,1,190,-10.3302)">
            <path d="M80,577.047L120,594.221" style="fill:none;stroke:black;stroke-width:1px;"/>
        </g>
        <g transform="matrix(1,0,0,1,291,29.8437)">
            <path d="M80,577.047L120,594.221" style="fill:none;stroke:black;stroke-width:1px;"/>
        </g>
        <g transform="matrix(1,0,0,1,89.6758,23)">
            <path d="M630,200.043L630,230" style="fill:none;stroke:black;stroke-width:1px;"/>
        </g>
        <g transform="matrix(1,0,0,1,89.6758,118)">
            <path d="M630,200.043L630,230" style="fill:none;stroke:black;stroke-width:1px;"/>
        </g>
        <g transform="matrix(1,0,0,1,89.6758,218)">
            <path d="M630,200.043L630,230" style="fill:none;stroke:black;stroke-width:1px;"/>
        </g>
    </g>
    <g transform="matrix(1,0,0,1,-0.489258,-100.059)">
        <path d="M450.107,360L550,400.043" style="fill:none;stroke:black;stroke-width:1px;"/>
    </g>
    <g transform="matrix(1,0,0,1,-0.489258,-100.059)">
        <path d="M399.891,405L500.054,445" style="fill:none;stroke:black;stroke-width:1px;"/>
    </g>
    <g transform="matrix(1,0,0,1,-0.542969,-75.0159)">
        <path d="M399.891,405L500.054,445" style="fill:none;stroke:black;stroke-width:1px;"/>
    </g>
    <g transform="matrix(1,0,0,1,-0.379883,-50.0588)">
        <path d="M399.891,405L500.054,445" style="fill:none;stroke:black;stroke-width:1px;"/>
    </g>
    <g transform="matrix(-1,0,0,1,999.837,-100.016)">
        <path d="M399.891,405L500.054,445" style="fill:none;stroke:black;stroke-width:1px;"/>
    </g>
    <g transform="matrix(-1,0,0,1,999.891,-74.9729)">
        <path d="M399.891,405L500.054,445" style="fill:none;stroke:black;stroke-width:1px;"/>
    </g>
    <g transform="matrix(-1,0,0,1,999.728,-50.0159)">
        <path d="M399.891,405L500.054,445" style="fill:none;stroke:black;stroke-width:1px;"/>
    </g>
    <g transform="matrix(1,0,0,1,-0.489258,-100.059)">
        <path d="M550,400.043L550,500.043" style="fill:none;stroke:black;stroke-width:1px;"/>
    </g>
    <g transform="matrix(1,0,0,1,-0.489258,-100.059)">
        <path d="M434,393.643L484,373.586" style="fill:none;stroke:black;stroke-width:1px;"/>
    </g>
    <g transform="matrix(1,0,0,1,-0.489258,-100.059)">
        <path d="M434,393.643L534,353.529" style="fill:none;stroke:black;stroke-width:1px;"/>
    </g>
    <g transform="matrix(1,0,0,1,32.5107,-86.7018)">
        <path d="M434,393.643L534,353.529" style="fill:none;stroke:black;stroke-width:1px;"/>
    </g>
    <g transform="matrix(1,0,0,1,-0.489258,-100.059)">
        <path d="M434,393.643L434,493.688" style="fill:none;stroke:black;stroke-width:1px;"/>
    </g>
    <g transform="matrix(1,0,0,1,-0.489258,-100.059)">
        <path d="M467,407L467,506.588" style="fill:none;stroke:black;stroke-width:1px;"/>
    </g>
</svg>
