<?xml version="1.0" encoding="UTF-8" standalone="no"?>
<!DOCTYPE svg PUBLIC "-//W3C//DTD SVG 1.1//EN" "http://www.w3.org/Graphics/SVG/1.1/DTD/svg11.dtd">
<svg width="100%" height="100%" viewBox="0 0 160 160" version="1.1" xmlns="http://www.w3.org/2000/svg" xmlns:xlink="http://www.w3.org/1999/xlink" xml:space="preserve" xmlns:serif="http://www.serif.com/" style="fill-rule:evenodd;clip-rule:evenodd;stroke-linecap:round;stroke-linejoin:round;stroke-miterlimit:1.5;">
    <g transform="matrix(1,0,0,1,-48,-48)">
        <rect x="64" y="64" width="128" height="128" style="fill:none;stroke:rgb(20,20,20);stroke-width:1px;"/>
    </g>
    <g id="_4x" serif:id="4x" transform="matrix(1,0,0,1,-48,-48)">
        <g transform="matrix(-1,1.22465e-16,-1.22465e-16,-1,112,80)">
            <circle cx="0" cy="0" r="4.013" style="fill:rgb(255,0,0);"/>
        </g>
        <g transform="matrix(-1,1.22465e-16,-1.22465e-16,-1,144,176)">
            <circle cx="0" cy="0" r="4.013" style="fill:rgb(255,0,0);"/>
        </g>
        <g transform="matrix(-1,1.22465e-16,-1.22465e-16,-1,176,112)">
            <circle cx="0" cy="0" r="4.013" style="fill:rgb(255,0,0);"/>
        </g>
        <g transform="matrix(-1,1.22465e-16,-1.22465e-16,-1,80,144)">
            <circle cx="0" cy="0" r="4.013" style="fill:rgb(255,0,0);"/>
        </g>
    </g>
</svg>
