<?xml version="1.0" encoding="UTF-8" standalone="no"?>
<!DOCTYPE svg PUBLIC "-//W3C//DTD SVG 1.1//EN" "http://www.w3.org/Graphics/SVG/1.1/DTD/svg11.dtd">
<svg width="100%" height="100%" viewBox="0 0 384 384" version="1.1" xmlns="http://www.w3.org/2000/svg" xmlns:xlink="http://www.w3.org/1999/xlink" xml:space="preserve" xmlns:serif="http://www.serif.com/" style="fill-rule:evenodd;clip-rule:evenodd;stroke-linecap:round;stroke-linejoin:round;stroke-miterlimit:1.5;">
    <g transform="matrix(1,0,0,1,-64,-64)">
        <g>
            <path d="M64,128L448,128" style="fill:none;stroke:rgb(138,138,138);stroke-width:0.5px;"/>
            <g transform="matrix(1,0,0,1,0,64)">
                <path d="M64,128L448,128" style="fill:none;stroke:rgb(138,138,138);stroke-width:0.5px;"/>
            </g>
            <g transform="matrix(1,0,0,1,0,128)">
                <path d="M64,128L448,128" style="fill:none;stroke:rgb(138,138,138);stroke-width:0.5px;"/>
            </g>
            <g transform="matrix(1,0,0,1,0,192)">
                <path d="M64,128L448,128" style="fill:none;stroke:rgb(138,138,138);stroke-width:0.5px;"/>
            </g>
            <g transform="matrix(1,0,0,1,0,256)">
                <path d="M64,128L448,128" style="fill:none;stroke:rgb(138,138,138);stroke-width:0.5px;"/>
            </g>
        </g>
        <g>
            <g transform="matrix(6.12323e-17,1,-1,6.12323e-17,512,-1.42109e-14)">
                <path d="M64,128L448,128" style="fill:none;stroke:rgb(138,138,138);stroke-width:0.5px;"/>
            </g>
            <g transform="matrix(6.12323e-17,1,-1,6.12323e-17,448,-1.06581e-14)">
                <path d="M64,128L448,128" style="fill:none;stroke:rgb(138,138,138);stroke-width:0.5px;"/>
            </g>
            <g transform="matrix(6.12323e-17,1,-1,6.12323e-17,384,-7.10543e-15)">
                <path d="M64,128L448,128" style="fill:none;stroke:rgb(138,138,138);stroke-width:0.5px;"/>
            </g>
            <g transform="matrix(6.12323e-17,1,-1,6.12323e-17,320,-1.77636e-15)">
                <path d="M64,128L448,128" style="fill:none;stroke:rgb(138,138,138);stroke-width:0.5px;"/>
            </g>
            <g transform="matrix(6.12323e-17,1,-1,6.12323e-17,256,1.77636e-15)">
                <path d="M64,128L448,128" style="fill:none;stroke:rgb(138,138,138);stroke-width:0.5px;"/>
            </g>
        </g>
    </g>
    <g transform="matrix(1,0,0,1,21.2206,-129.552)">
        <path d="M42.779,193.552L298.779,449.552L42.779,449.552L42.779,193.552Z" style="fill:rgb(0,165,255);fill-opacity:0.75;stroke:black;stroke-width:0.5px;"/>
    </g>
    <g transform="matrix(1,0,0,1,-64,-64)">
        <rect x="128" y="256" width="128" height="128" style="fill:rgb(255,53,53);fill-opacity:0.72;"/>
    </g>
    <g transform="matrix(1,0,0,1,-62.9586,-67.0235)">
        <text x="108.255px" y="403.382px" style="font-family:'ArialMT', 'Arial', sans-serif;font-size:12px;">-1, -1</text>
    </g>
    <g transform="matrix(1,0,0,1,87.8628,-216.919)">
        <text x="108.255px" y="403.382px" style="font-family:'ArialMT', 'Arial', sans-serif;font-size:12px;">1, 1</text>
    </g>
    <g transform="matrix(1,0,0,1,11.4419,-143.919)">
        <text x="108.255px" y="403.382px" style="font-family:'ArialMT', 'Arial', sans-serif;font-size:12px;">0,0</text>
    </g>
    <g transform="matrix(1,0,0,1,-62.9586,-348.726)">
        <text x="108.255px" y="403.382px" style="font-family:'ArialMT', 'Arial', sans-serif;font-size:12px;">-1, 3</text>
    </g>
    <g transform="matrix(1,0,0,1,206.551,-67.0235)">
        <text x="108.255px" y="403.382px" style="font-family:'ArialMT', 'Arial', sans-serif;font-size:12px;">3, -1</text>
    </g>
</svg>
