<?xml version="1.0" encoding="UTF-8" standalone="no"?>
<!DOCTYPE svg PUBLIC "-//W3C//DTD SVG 1.1//EN" "http://www.w3.org/Graphics/SVG/1.1/DTD/svg11.dtd">
<svg width="100%" height="100%" viewBox="0 0 981 50" version="1.1" xmlns="http://www.w3.org/2000/svg" xmlns:xlink="http://www.w3.org/1999/xlink" xml:space="preserve" xmlns:serif="http://www.serif.com/" style="fill-rule:evenodd;clip-rule:evenodd;stroke-miterlimit:10;">
    <g transform="matrix(1,0,0,-1,0,322)">
        <path d="M0,297L981,297" style="fill:none;fill-rule:nonzero;stroke:black;stroke-width:1.5px;"/>
    </g>
    <g transform="matrix(1,0,0,-1,0,322)">
        <path d="M24.525,295L24.525,299M49.05,295L49.05,299M73.575,295L73.575,299M122.625,295L122.625,299M147.15,295L147.15,299M171.675,295L171.675,299M220.725,295L220.725,299M245.25,295L245.25,299M269.775,295L269.775,299M318.825,295L318.825,299M343.35,295L343.35,299M367.875,295L367.875,299M416.925,295L416.925,299M441.45,295L441.45,299M465.975,295L465.975,299M515.025,295L515.025,299M539.55,295L539.55,299M564.075,295L564.075,299M613.125,295L613.125,299M637.65,295L637.65,299M662.175,295L662.175,299M711.225,295L711.225,299M735.75,295L735.75,299M760.275,295L760.275,299M809.325,295L809.325,299M833.85,295L833.85,299M858.375,295L858.375,299M907.425,295L907.425,299M931.95,295L931.95,299M956.475,295L956.475,299" style="fill:none;fill-rule:nonzero;stroke:black;stroke-width:1.5px;"/>
    </g>
    <g transform="matrix(1,0,0,-1,0,322)">
        <path d="M98.1,293L98.1,301M196.2,293L196.2,301M294.3,293L294.3,301M392.4,293L392.4,301M490.5,293L490.5,301M588.6,293L588.6,301M686.7,293L686.7,301M784.8,293L784.8,301M882.9,293L882.9,301" style="fill:none;fill-rule:nonzero;stroke:black;stroke-width:1.5px;"/>
    </g>
    <g transform="matrix(1,0,0,1,0,-272)">
        <clipPath id="_clip1">
            <rect x="0" y="281.951" width="981" height="30.098" clip-rule="nonzero"/>
        </clipPath>
        <g clip-path="url(#_clip1)">
            <g transform="matrix(1,0,0,-1,0,603.897)">
                <path d="M0,297.919L0.24,297.763L0.479,297.612L0.719,297.464L0.958,297.319L1.198,297.178L1.437,297.041L1.677,296.907L1.916,296.777L2.156,296.652L2.395,296.53L2.635,296.412L2.874,296.298L3.114,296.188L3.353,296.082L3.593,295.98L3.832,295.883L4.072,295.79L4.311,295.701L4.551,295.616L4.79,295.535L5.03,295.459L5.269,295.387L5.509,295.32L5.748,295.257L5.988,295.198L6.227,295.144L6.467,295.094L6.706,295.049L6.946,295.009L7.185,294.973L7.425,294.941L7.664,294.914L7.904,294.892L8.143,294.874L8.383,294.861L8.622,294.852L8.862,294.848L9.101,294.848L9.341,294.854L9.58,294.863L9.82,294.878L10.059,294.897L10.299,294.92L10.538,294.948L10.778,294.981L11.017,295.018L11.257,295.06L11.496,295.106L11.736,295.156L11.975,295.212L12.215,295.271L12.454,295.335L12.694,295.404L12.933,295.477L13.173,295.554L13.412,295.636L13.652,295.721L13.891,295.811L14.131,295.906L14.37,296.004L14.61,296.107L14.849,296.214L15.089,296.325L15.328,296.44L15.568,296.559L15.807,296.681L16.047,296.808L16.286,296.939L16.526,297.073L16.765,297.211L17.005,297.353L17.244,297.499L17.484,297.648L17.723,297.8L17.963,297.956L18.202,298.116L18.442,298.279L18.681,298.445L18.921,298.614L19.16,298.786L19.4,298.962L19.639,299.141L19.879,299.322L20.118,299.507L20.358,299.694L20.597,299.884L20.837,300.077L21.076,300.272L21.316,300.47L21.555,300.67L21.795,300.873L22.034,301.078L22.274,301.285L22.513,301.494L22.753,301.706L22.992,301.919L23.232,302.134L23.471,302.351L23.711,302.57L23.95,302.79L24.19,303.012L24.429,303.236L24.669,303.461L24.908,303.687L25.148,303.914L25.387,304.143L25.627,304.373L25.866,304.603L26.106,304.835L26.345,305.067L26.585,305.3L26.824,305.533L27.064,305.768L27.303,306.002L27.543,306.237L27.782,306.472L28.501,307.178L28.74,307.413L28.98,307.648L29.219,307.883L29.459,308.117L29.698,308.351L29.938,308.584L30.177,308.817L30.417,309.049" style="fill:none;fill-rule:nonzero;stroke:black;stroke-width:1px;"/>
            </g>
            <g transform="matrix(1,0,0,-1,0,579.799)">
                <path d="M30.417,284.951L30.656,285.182L30.896,285.412L31.135,285.642L31.375,285.87L31.614,286.097L31.854,286.322L32.093,286.547L32.333,286.77L32.572,286.991L32.812,287.211L33.051,287.429L33.291,287.645L33.53,287.86L33.77,288.072L34.009,288.283L34.249,288.492L34.488,288.698L34.728,288.902L34.967,289.104L35.207,289.303L35.446,289.5L35.686,289.694L35.925,289.886L36.165,290.075L36.404,290.261L36.644,290.444L36.883,290.625L37.123,290.802L37.362,290.977L37.602,291.148L37.841,291.316L38.081,291.481L38.32,291.642L38.56,291.8L38.799,291.955L39.039,292.106L39.278,292.254L39.518,292.398L39.757,292.538L39.997,292.675L40.236,292.808L40.476,292.937L40.715,293.062L40.955,293.184L41.194,293.301L41.434,293.414L41.673,293.524L41.913,293.629L42.152,293.73L42.392,293.827L42.631,293.92L42.871,294.008L43.11,294.092L43.35,294.172L43.589,294.248L43.829,294.319L44.068,294.386L44.308,294.448L44.547,294.506L44.787,294.559L45.026,294.608L45.266,294.653L45.505,294.693L45.745,294.728L45.984,294.759L46.224,294.785L46.463,294.807L46.703,294.824L46.942,294.837L47.182,294.844L47.421,294.848L47.661,294.847L47.9,294.841L48.14,294.83L48.379,294.815L48.619,294.796L48.858,294.772L49.098,294.743L49.337,294.709L49.577,294.672L49.816,294.629L50.056,294.582L50.295,294.531L50.535,294.475L50.774,294.415L51.014,294.35L51.253,294.281L51.493,294.207L51.732,294.13L51.972,294.047L52.211,293.961L52.451,293.87L52.69,293.775L52.93,293.676L53.169,293.573L53.409,293.465L53.648,293.354L53.888,293.238L54.127,293.119L54.367,292.995L54.606,292.868L54.846,292.737L55.085,292.602L55.325,292.463L55.564,292.321L55.804,292.175L56.043,292.025L56.283,291.872L56.522,291.715L56.762,291.555L57.001,291.392L57.241,291.226L57.48,291.056L57.72,290.883L57.959,290.707L58.199,290.528L58.438,290.346L58.678,290.161L58.917,289.973L59.157,289.783L59.396,289.59L59.636,289.394L59.875,289.196L60.115,288.995L60.354,288.792L60.594,288.587L60.834,288.379" style="fill:none;fill-rule:nonzero;stroke:black;stroke-width:1px;"/>
            </g>
            <g transform="matrix(1,0,0,-1,0,600.469)">
                <path d="M60.834,309.049L61.073,308.84L61.313,308.628L61.552,308.414L61.792,308.199L62.031,307.981L62.271,307.762L62.51,307.542L62.75,307.319L62.989,307.096L63.229,306.871L63.468,306.644L63.708,306.417L63.947,306.188L64.187,305.958L64.426,305.727L64.666,305.496L64.905,305.263L65.145,305.03L65.384,304.797L65.624,304.563L65.863,304.328L66.103,304.093L66.342,303.858L66.821,303.387L67.061,303.152L67.3,302.917L67.54,302.682L67.779,302.447L68.019,302.213L68.258,301.979L68.498,301.746L68.737,301.513L68.977,301.282L69.216,301.051L69.456,300.821L69.695,300.591L69.935,300.364L70.174,300.137L70.414,299.911L70.653,299.687L70.893,299.464L71.132,299.243L71.372,299.024L71.611,298.806L71.851,298.59L72.09,298.375L72.33,298.163L72.569,297.953L72.809,297.745L73.048,297.539L73.288,297.335L73.527,297.134L73.767,296.935L74.006,296.738L74.246,296.544L74.485,296.353L74.725,296.164L74.964,295.979L75.204,295.796L75.443,295.616L75.683,295.439L75.922,295.265L76.162,295.094L76.401,294.927L76.641,294.762L76.88,294.601L77.12,294.444L77.359,294.289L77.599,294.139L77.838,293.992L78.078,293.848L78.317,293.708L78.557,293.572L78.796,293.44L79.036,293.311L79.275,293.187L79.515,293.066L79.754,292.949L79.994,292.836L80.233,292.728L80.473,292.623L80.712,292.523L80.952,292.426L81.191,292.334L81.431,292.246L81.67,292.163L81.91,292.084L82.149,292.009L82.389,291.938L82.628,291.872L82.868,291.81L83.107,291.753L83.347,291.7L83.586,291.652L83.826,291.608L84.065,291.569L84.305,291.534L84.544,291.504L84.784,291.479L85.023,291.458L85.263,291.441L85.502,291.429L85.742,291.422L85.981,291.419L86.221,291.421L86.46,291.428L86.7,291.439L86.939,291.455L87.179,291.475L87.418,291.5L87.658,291.529L87.897,291.563L88.137,291.602L88.376,291.645L88.616,291.692L88.855,291.745L89.095,291.801L89.334,291.862L89.574,291.927L89.813,291.997L90.053,292.071L90.292,292.15L90.532,292.233L90.771,292.32L91.011,292.411L91.25,292.507" style="fill:none;fill-rule:nonzero;stroke:black;stroke-width:1px;"/>
            </g>
            <g transform="matrix(1,0,0,-1,0,593.238)">
                <path d="M91.25,285.276L91.49,285.376L91.729,285.48L91.969,285.588L92.208,285.7L92.448,285.816L92.687,285.936L92.927,286.06L93.166,286.188L93.406,286.32L93.645,286.456L93.885,286.595L94.124,286.738L94.364,286.884L94.603,287.034L94.843,287.188L95.082,287.345L95.322,287.506L95.561,287.669L95.801,287.837L96.04,288.007L96.28,288.18L96.519,288.357L96.759,288.536L96.998,288.719L97.238,288.904L97.477,289.092L97.717,289.283L97.956,289.476L98.196,289.673L98.435,289.871L98.675,290.072L98.914,290.275L99.154,290.481L99.393,290.689L99.633,290.899L99.872,291.111L100.112,291.325L100.351,291.541L100.591,291.758L100.83,291.977L101.07,292.198L101.309,292.421L101.549,292.645L101.788,292.87L102.028,293.097L102.267,293.324L102.507,293.553L102.746,293.783L102.986,294.014L103.225,294.246L103.465,294.478L103.704,294.711L103.944,294.945L104.183,295.179L104.423,295.414L104.662,295.649L104.902,295.884L105.62,296.59L105.86,296.825L106.099,297.06L106.339,297.295L106.578,297.529L106.818,297.763L107.057,297.996L107.297,298.228L107.536,298.46L107.776,298.691L108.015,298.921L108.255,299.15L108.494,299.377L108.734,299.604L108.973,299.829L109.213,300.053L109.452,300.276L109.692,300.497L109.931,300.716L110.171,300.934L110.41,301.149L110.65,301.363L110.889,301.575L111.129,301.785L111.368,301.993L111.608,302.199L111.847,302.402L112.087,302.603L112.326,302.802L112.566,302.998L112.805,303.191L113.045,303.382L113.284,303.57L113.524,303.756L113.763,303.938L114.003,304.118L114.242,304.294L114.482,304.468L114.721,304.638L114.961,304.805L115.2,304.969L115.44,305.129L115.679,305.287L115.919,305.44L116.158,305.59L116.398,305.737L116.638,305.88L116.877,306.019L117.117,306.155L117.356,306.287L117.596,306.415L117.835,306.539L118.075,306.659L118.314,306.775L118.554,306.887L118.793,306.995L119.033,307.099L119.272,307.199L119.512,307.295L119.751,307.386L119.991,307.473L120.23,307.556L120.47,307.635L120.709,307.709L120.949,307.779L121.188,307.844L121.428,307.905L121.667,307.962" style="fill:none;fill-rule:nonzero;stroke:black;stroke-width:1px;"/>
            </g>
            <g transform="matrix(1,0,0,-1,0,589.496)">
                <path d="M121.667,304.22L121.907,304.272L122.146,304.319L122.385,304.363L122.625,304.401L122.865,304.435L123.104,304.465L123.344,304.49L123.583,304.51L123.822,304.526L124.062,304.537L124.302,304.543L124.541,304.545L124.781,304.543L125.02,304.536L125.26,304.524L125.499,304.507L125.739,304.486L125.978,304.461L126.218,304.431L126.457,304.396L126.697,304.357L126.936,304.313L127.175,304.265L127.415,304.212L127.655,304.155L127.894,304.093L128.133,304.027L128.373,303.957L128.612,303.882L128.852,303.803L129.092,303.719L129.331,303.631L129.571,303.539L129.81,303.443L130.05,303.343L130.289,303.238L130.529,303.129L130.768,303.017L131.008,302.9L131.247,302.779L131.487,302.655L131.726,302.526L131.966,302.394L132.205,302.258L132.445,302.118L132.684,301.975L132.924,301.827L133.163,301.677L133.403,301.523L133.642,301.365L133.882,301.204L134.121,301.04L134.361,300.872L134.6,300.701L134.84,300.528L135.079,300.351L135.319,300.171L135.558,299.988L135.798,299.802L136.037,299.614L136.277,299.422L136.516,299.228L136.756,299.032L136.995,298.833L137.235,298.632L137.474,298.428L137.714,298.222L137.953,298.014L138.193,297.804L138.432,297.591L138.672,297.377L138.911,297.161L139.151,296.943L139.39,296.724L139.63,296.502L139.869,296.28L140.109,296.056L140.348,295.83L140.588,295.603L140.827,295.375L141.067,295.146L141.306,294.916L141.546,294.685L141.785,294.453L142.025,294.221L142.264,293.988L142.504,293.754L142.743,293.52L142.983,293.285L143.222,293.05L143.462,292.815L144.18,292.109L144.42,291.874L144.659,291.639L144.899,291.404L145.138,291.17L145.378,290.937L145.617,290.703L145.857,290.471L146.096,290.24L146.336,290.009L146.575,289.779L146.815,289.55L147.054,289.323L147.294,289.096L147.533,288.871L147.773,288.647L148.012,288.425L148.252,288.204L148.491,287.985L148.731,287.768L148.97,287.552L149.21,287.339L149.449,287.127L149.689,286.917L149.928,286.71L150.168,286.505L150.407,286.302L150.647,286.101L150.886,285.903L151.126,285.707L151.365,285.514L151.605,285.323L151.844,285.136L152.084,284.951" style="fill:none;fill-rule:nonzero;stroke:black;stroke-width:1px;"/>
            </g>
            <g transform="matrix(1,0,0,-1,0,605.862)">
                <path d="M152.084,301.316L152.323,301.134L152.563,300.955L152.802,300.779L153.042,300.606L153.281,300.436L153.521,300.27L153.76,300.106L154,299.946L154.239,299.79L154.479,299.637L154.718,299.487L154.958,299.341L155.197,299.199L155.437,299.06L155.676,298.925L155.916,298.794L156.155,298.666L156.395,298.543L156.634,298.423L156.874,298.308L157.113,298.196L157.353,298.089L157.592,297.985L157.832,297.886L158.071,297.791L158.311,297.7L158.55,297.614L158.79,297.532L159.029,297.454L159.269,297.38L159.508,297.311L159.748,297.246L159.987,297.186L160.227,297.13L160.466,297.079L160.706,297.032L160.945,296.989L161.185,296.951L161.424,296.918L161.664,296.889L161.903,296.865L162.143,296.845L162.382,296.83L162.622,296.82L162.861,296.814L163.101,296.813L163.34,296.816L163.58,296.824L163.819,296.836L164.059,296.853L164.298,296.875L164.538,296.901L164.777,296.932L165.017,296.968L165.256,297.007L165.496,297.052L165.735,297.101L165.975,297.154L166.214,297.212L166.454,297.274L166.693,297.341L166.933,297.412L167.172,297.488L167.412,297.568L167.651,297.652L167.891,297.74L168.13,297.833L168.37,297.93L168.609,298.031L168.849,298.136L169.088,298.245L169.328,298.358L169.567,298.476L169.807,298.597L170.046,298.722L170.286,298.851L170.525,298.984L170.765,299.121L171.004,299.261L171.244,299.405L171.483,299.553L171.723,299.704L171.962,299.859L172.202,300.017L172.441,300.178L172.681,300.343L172.92,300.511L173.16,300.682L173.399,300.857L173.639,301.034L173.878,301.215L174.118,301.398L174.357,301.584L174.597,301.773L174.836,301.965L175.076,302.159L175.315,302.356L175.555,302.555L175.794,302.757L176.034,302.961L176.273,303.167L176.513,303.376L176.752,303.586L176.992,303.799L177.231,304.013L177.471,304.23L177.71,304.448L177.95,304.667L178.189,304.889L178.429,305.112L178.669,305.336L178.908,305.562L179.147,305.789L179.387,306.017L179.627,306.246L179.866,306.476L180.105,306.707L180.345,306.939L180.585,307.172L180.824,307.405L181.063,307.639L181.303,307.874L181.543,308.108L181.782,308.343L182.022,308.579L182.5,309.049" style="fill:none;fill-rule:nonzero;stroke:black;stroke-width:1px;"/>
            </g>
            <g transform="matrix(1,0,0,-1,0,581.764)">
                <path d="M182.5,284.951L182.74,285.186L182.979,285.421L183.219,285.656L183.459,285.891L183.698,286.125L183.938,286.358L184.177,286.591L184.416,286.824L184.656,287.055L184.896,287.286L185.135,287.515L185.374,287.744L185.614,287.971L185.854,288.198L186.093,288.422L186.333,288.646L186.572,288.868L186.812,289.088L187.051,289.307L187.29,289.524L187.53,289.74L187.769,289.953L188.009,290.164L188.248,290.374L188.488,290.581L188.728,290.786L188.967,290.989L189.206,291.189L189.446,291.387L189.686,291.582L189.925,291.775L190.165,291.965L190.404,292.152L190.644,292.337L190.883,292.518L191.123,292.697L191.362,292.872L191.602,293.045L191.841,293.214L192.081,293.38L192.32,293.543L192.56,293.703L192.799,293.859L193.039,294.011L193.278,294.16L193.518,294.306L193.757,294.448L193.997,294.586L194.236,294.72L194.476,294.851L194.715,294.978L194.955,295.101L195.194,295.22L195.434,295.335L195.673,295.446L195.913,295.552L196.152,295.655L196.392,295.754L196.631,295.848L196.871,295.938L197.11,296.024L197.35,296.106L197.589,296.183L197.829,296.256L198.068,296.325L198.308,296.389L198.547,296.448L198.787,296.503L199.026,296.554L199.266,296.6L199.505,296.642L199.745,296.679L199.984,296.712L200.224,296.74L200.463,296.764L200.703,296.783L200.942,296.797L201.182,296.807L201.421,296.812L201.661,296.813L201.9,296.809L202.14,296.8L202.379,296.787L202.619,296.769L202.858,296.747L203.098,296.72L203.337,296.688L203.577,296.652L203.816,296.612L204.056,296.566L204.295,296.517L204.535,296.463L204.774,296.404L205.014,296.341L205.253,296.274L205.493,296.202L205.732,296.126L205.972,296.046L206.211,295.961L206.451,295.872L206.69,295.778L206.93,295.681L207.169,295.579L207.409,295.473L207.648,295.364L207.888,295.25L208.127,295.132L208.367,295.01L208.606,294.884L208.846,294.754L209.085,294.621L209.325,294.484L209.564,294.343L209.804,294.198L210.043,294.05L210.283,293.898L210.522,293.743L210.762,293.584L211.001,293.422L211.241,293.257L211.48,293.089L211.72,292.917L211.959,292.742L212.199,292.564L212.438,292.383L212.678,292.2L212.917,292.013" style="fill:none;fill-rule:nonzero;stroke:black;stroke-width:1px;"/>
            </g>
            <g transform="matrix(1,0,0,-1,0,598.799)">
                <path d="M212.917,309.049L213.157,308.859L213.396,308.667L213.636,308.473L213.875,308.275L214.115,308.076L214.354,307.874L214.594,307.669L214.833,307.463L215.073,307.254L215.312,307.043L215.552,306.83L215.791,306.615L216.031,306.399L216.27,306.18L216.51,305.96L216.749,305.739L216.989,305.515L217.228,305.291L217.468,305.065L217.707,304.838L217.947,304.61L218.186,304.38L218.426,304.15L218.665,303.919L218.905,303.687L219.144,303.454L219.384,303.22L219.623,302.986L219.863,302.752L220.102,302.517L220.342,302.282L221.06,301.576L221.3,301.341L221.539,301.106L221.779,300.871L222.018,300.637L222.258,300.403L222.497,300.169L222.737,299.936L222.976,299.704L223.216,299.473L223.455,299.243L223.695,299.013L223.934,298.785L224.174,298.557L224.413,298.331L224.653,298.107L224.892,297.883L225.132,297.662L225.371,297.441L225.611,297.223L225.85,297.006L226.09,296.791L226.329,296.578L226.569,296.367L226.808,296.158L227.048,295.951L227.287,295.746L227.527,295.544L227.766,295.344L228.006,295.147L228.245,294.952L228.485,294.759L228.724,294.57L228.964,294.383L229.203,294.199L229.443,294.018L229.682,293.839L229.922,293.664L230.161,293.492L230.401,293.323L230.64,293.158L230.88,292.995L231.119,292.836L231.359,292.681L231.598,292.529L231.838,292.38L232.077,292.235L232.317,292.094L232.556,291.956L232.796,291.823L233.035,291.692L233.275,291.566L233.514,291.444L233.754,291.326L233.993,291.211L234.233,291.101L234.472,290.995L234.712,290.893L234.951,290.795L235.191,290.701L235.43,290.611L235.67,290.526L235.909,290.445L236.149,290.369L236.388,290.296L236.628,290.228L236.867,290.165L237.107,290.106L237.346,290.051L237.586,290.001L237.825,289.956L238.065,289.915L238.304,289.878L238.544,289.846L238.783,289.819L239.023,289.796L239.262,289.778L239.502,289.764L239.741,289.755L239.981,289.75L240.22,289.751L240.46,289.755L240.699,289.765L240.939,289.778L241.178,289.797L241.418,289.82L241.658,289.848L241.897,289.88L242.136,289.916L242.376,289.958L242.615,290.003L242.855,290.054L243.094,290.109L243.334,290.168" style="fill:none;fill-rule:nonzero;stroke:black;stroke-width:1px;"/>
            </g>
            <g transform="matrix(1,0,0,-1,0,594.519)">
                <path d="M243.334,285.888L243.573,285.952L243.813,286.02L244.053,286.092L244.292,286.169L244.532,286.25L244.771,286.335L245.01,286.425L245.25,286.519L245.49,286.617L245.729,286.719L245.969,286.826L246.208,286.936L246.448,287.051L246.687,287.169L246.927,287.292L247.166,287.418L247.405,287.548L247.645,287.682L247.885,287.82L248.124,287.962L248.363,288.107L248.603,288.256L248.843,288.408L249.082,288.564L249.322,288.723L249.561,288.885L249.801,289.051L250.04,289.22L250.279,289.392L250.519,289.567L250.759,289.746L250.998,289.927L251.237,290.111L251.477,290.298L251.717,290.488L251.956,290.68L252.196,290.875L252.435,291.073L252.675,291.273L252.914,291.475L253.154,291.68L253.393,291.887L253.633,292.096L253.872,292.307L254.112,292.521L254.351,292.736L254.591,292.953L254.83,293.171L255.07,293.392L255.309,293.613L255.549,293.837L255.788,294.062L256.028,294.288L256.267,294.515L256.507,294.743L256.746,294.973L256.986,295.203L257.225,295.435L257.465,295.667L257.704,295.9L257.944,296.133L258.183,296.367L258.423,296.602L258.662,296.837L258.902,297.072L259.62,297.778L259.86,298.013L260.099,298.248L260.339,298.483L260.578,298.717L260.818,298.951L261.057,299.184L261.297,299.417L261.536,299.649L261.776,299.88L262.015,300.111L262.255,300.34L262.494,300.568L262.734,300.795L262.973,301.021L263.213,301.246L263.452,301.469L263.692,301.69L263.931,301.91L264.171,302.128L264.41,302.345L264.65,302.56L264.889,302.772L265.129,302.983L265.368,303.192L265.608,303.398L265.847,303.603L266.087,303.805L266.326,304.004L266.566,304.201L266.805,304.396L267.045,304.588L267.284,304.777L267.524,304.964L267.763,305.147L268.003,305.328L268.242,305.506L268.482,305.68L268.721,305.852L268.961,306.02L269.2,306.185L269.44,306.347L269.679,306.506L269.919,306.661L270.158,306.812L270.398,306.96L270.637,307.105L270.877,307.246L271.116,307.383L271.356,307.516L271.595,307.645L271.835,307.771L272.074,307.893L272.314,308.01L272.553,308.124L272.793,308.234L273.032,308.339L273.272,308.441L273.511,308.538L273.751,308.631" style="fill:none;fill-rule:nonzero;stroke:black;stroke-width:1px;"/>
            </g>
            <g transform="matrix(1,0,0,-1,0,587.861)">
                <path d="M273.751,301.973L273.99,302.062L274.23,302.146L274.469,302.227L274.709,302.303L274.948,302.374L275.188,302.441L275.427,302.504L275.667,302.563L275.906,302.616L276.146,302.666L276.385,302.711L276.625,302.751L276.864,302.787L277.104,302.818L277.343,302.845L277.583,302.867L277.822,302.885L278.062,302.898L278.301,302.906L278.541,302.91L278.78,302.909L279.02,302.904L279.259,302.894L279.499,302.879L279.738,302.86L279.978,302.836L280.217,302.808L280.457,302.775L280.696,302.738L280.936,302.696L281.175,302.649L281.415,302.598L281.654,302.543L281.894,302.483L282.133,302.419L282.373,302.35L282.612,302.277L282.852,302.199L283.091,302.118L283.331,302.032L283.57,301.941L283.81,301.847L284.049,301.748L284.289,301.645L284.528,301.538L284.768,301.427L285.007,301.312L285.247,301.193L285.486,301.07L285.726,300.943L285.965,300.812L286.205,300.677L286.444,300.539L286.684,300.397L286.923,300.251L287.163,300.102L287.402,299.949L287.642,299.793L287.881,299.633L288.121,299.47L288.36,299.304L288.6,299.135L288.839,298.962L289.079,298.786L289.318,298.607L289.558,298.426L289.797,298.241L290.037,298.054L290.276,297.864L290.516,297.671L290.755,297.475L290.995,297.277L291.234,297.077L291.474,296.874L291.713,296.669L291.953,296.462L292.192,296.252L292.432,296.041L292.671,295.827L292.911,295.612L293.15,295.395L293.39,295.176L293.629,294.955L293.869,294.733L294.108,294.51L294.348,294.285L294.587,294.059L294.827,293.831L295.066,293.602L295.306,293.373L295.545,293.142L295.785,292.911L296.024,292.678L296.264,292.445L296.503,292.212L296.743,291.978L296.982,291.743L297.222,291.508L297.461,291.273L298.18,290.567L298.419,290.332L298.659,290.097L298.898,289.862L299.138,289.628L299.377,289.394L299.617,289.161L299.856,288.928L300.096,288.696L300.335,288.465L300.575,288.235L300.815,288.006L301.054,287.778L301.293,287.551L301.533,287.325L301.773,287.101L302.012,286.878L302.251,286.657L302.491,286.437L302.73,286.219L302.97,286.003L303.21,285.788L303.449,285.576L303.688,285.366L303.928,285.157L304.168,284.951" style="fill:none;fill-rule:nonzero;stroke:black;stroke-width:1px;"/>
            </g>
            <g transform="matrix(1,0,0,-1,0,607.832)">
                <path d="M304.168,304.922L304.407,304.718L304.647,304.516L304.886,304.317L305.126,304.12L305.365,303.926L305.605,303.734L305.844,303.546L306.083,303.36L306.323,303.176L306.563,302.996L306.802,302.819L307.042,302.645L307.281,302.473L307.52,302.306L307.76,302.141L307.999,301.979L308.239,301.822L308.478,301.667L308.718,301.516L308.958,301.369L309.197,301.225L309.436,301.085L309.676,300.948L309.915,300.815L310.155,300.686L310.395,300.561L310.634,300.44L310.874,300.323L311.113,300.21L311.353,300.101L311.592,299.996L311.831,299.895L312.071,299.798L312.311,299.706L312.55,299.618L312.79,299.534L313.029,299.454L313.269,299.379L313.508,299.308L313.748,299.241L313.987,299.179L314.227,299.122L314.466,299.068L314.706,299.02L314.945,298.975L315.185,298.936L315.424,298.901L315.664,298.87L315.903,298.844L316.143,298.822L316.382,298.806L316.622,298.793L316.861,298.786L317.101,298.782L317.34,298.784L317.58,298.79L317.819,298.801L318.059,298.816L318.298,298.836L318.538,298.86L318.777,298.889L319.017,298.923L319.256,298.961L319.496,299.003L319.735,299.051L319.975,299.102L320.214,299.158L320.454,299.219L320.693,299.284L320.933,299.353L321.172,299.427L321.412,299.505L321.651,299.587L321.891,299.674L322.13,299.765L322.37,299.86L322.609,299.96L322.849,300.063L323.088,300.171L323.328,300.283L323.567,300.398L323.807,300.518L324.046,300.642L324.286,300.769L324.525,300.901L324.765,301.036L325.004,301.175L325.244,301.317L325.483,301.463L325.723,301.613L325.962,301.767L326.202,301.923L326.441,302.083L326.681,302.247L326.92,302.414L327.16,302.584L327.399,302.757L327.639,302.933L327.878,303.112L328.118,303.294L328.357,303.479L328.597,303.667L328.836,303.858L329.076,304.051L329.315,304.247L329.555,304.445L329.794,304.646L330.034,304.849L330.273,305.054L330.513,305.262L330.752,305.472L330.992,305.684L331.231,305.897L331.471,306.113L331.71,306.33L331.95,306.55L332.189,306.77L332.429,306.993L332.668,307.216L332.908,307.442L333.147,307.668L333.387,307.896L333.626,308.125L333.866,308.354L334.105,308.585L334.345,308.817L334.584,309.049" style="fill:none;fill-rule:nonzero;stroke:black;stroke-width:1px;"/>
            </g>
            <g transform="matrix(1,0,0,-1,0,583.733)">
                <path d="M334.584,284.951L334.824,285.184L335.063,285.418L335.303,285.652L335.542,285.886L335.782,286.121L336.021,286.356L336.74,287.062L336.979,287.297L337.219,287.532L337.458,287.767L337.698,288.001L337.937,288.235L338.177,288.468L338.416,288.701L338.656,288.933L338.895,289.164L339.135,289.394L339.374,289.623L339.614,289.85L339.853,290.077L340.093,290.303L340.332,290.527L340.572,290.749L340.811,290.97L341.051,291.19L341.29,291.408L341.53,291.624L341.769,291.838L342.009,292.05L342.248,292.26L342.488,292.468L342.727,292.674L342.967,292.878L343.206,293.079L343.446,293.278L343.685,293.474L343.925,293.668L344.164,293.859L344.404,294.047L344.643,294.233L344.883,294.416L345.122,294.596L345.362,294.772L345.601,294.946L345.841,295.117L346.08,295.284L346.32,295.448L346.559,295.609L346.799,295.767L347.038,295.921L347.278,296.071L347.517,296.218L347.757,296.361L347.996,296.501L348.236,296.637L348.475,296.769L348.715,296.897L348.954,297.022L349.194,297.142L349.433,297.259L349.673,297.371L349.912,297.48L350.152,297.584L350.391,297.685L350.631,297.781L350.87,297.872L351.11,297.96L351.349,298.043L351.589,298.122L351.828,298.197L352.068,298.267L352.307,298.333L352.547,298.395L352.786,298.452L353.026,298.504L353.265,298.552L353.505,298.596L353.744,298.635L353.984,298.669L354.223,298.699L354.463,298.724L354.702,298.745L354.942,298.761L355.181,298.773L355.421,298.78L355.66,298.782L355.9,298.78L356.139,298.774L356.379,298.762L356.618,298.746L356.858,298.726L357.097,298.701L357.337,298.671L357.576,298.637L357.816,298.598L358.055,298.555L358.295,298.507L358.534,298.454L358.774,298.398L359.013,298.337L359.253,298.271L359.492,298.201L359.732,298.126L359.971,298.048L360.211,297.965L360.45,297.877L360.69,297.786L360.929,297.69L361.169,297.59L361.408,297.486L361.648,297.377L361.888,297.265L362.127,297.149L362.366,297.028L362.606,296.904L362.846,296.776L363.085,296.644L363.325,296.508L363.564,296.369L363.804,296.226L364.043,296.079L364.282,295.929L364.522,295.775L364.761,295.618L365.001,295.457" style="fill:none;fill-rule:nonzero;stroke:black;stroke-width:1px;"/>
            </g>
            <g transform="matrix(1,0,0,-1,0,597.325)">
                <path d="M365.001,309.049L365.241,308.885L365.48,308.718L365.72,308.548L365.959,308.374L366.198,308.197L366.438,308.018L366.678,307.835L366.917,307.65L367.157,307.461L367.396,307.27L367.636,307.077L367.875,306.88L368.115,306.682L368.354,306.481L368.593,306.277L368.833,306.071L369.073,305.863L369.312,305.653L369.551,305.441L369.791,305.227L370.03,305.011L370.27,304.794L370.51,304.574L370.749,304.353L370.988,304.131L371.228,303.907L371.467,303.681L371.707,303.455L371.946,303.227L372.186,302.998L372.425,302.768L372.665,302.537L372.905,302.305L373.144,302.073L373.383,301.84L373.623,301.606L373.863,301.372L374.102,301.137L374.342,300.902L374.581,300.667L375.3,299.961L375.539,299.726L375.779,299.491L376.018,299.256L376.258,299.022L376.497,298.789L376.737,298.555L376.976,298.323L377.216,298.091L377.455,297.861L377.695,297.631L377.934,297.402L378.174,297.174L378.413,296.948L378.653,296.722L378.892,296.498L379.132,296.276L379.371,296.055L379.611,295.836L379.85,295.618L380.09,295.403L380.329,295.189L380.569,294.977L380.808,294.767L381.048,294.559L381.287,294.354L381.527,294.151L381.766,293.95L382.006,293.751L382.245,293.555L382.485,293.362L382.724,293.171L382.964,292.983L383.203,292.798L383.443,292.616L383.682,292.436L383.922,292.26L384.161,292.087L384.401,291.917L384.64,291.75L384.88,291.586L385.119,291.426L385.359,291.269L385.598,291.115L385.838,290.965L386.077,290.819L386.317,290.676L386.556,290.537L386.796,290.402L387.035,290.27L387.275,290.142L387.514,290.018L387.754,289.899L387.993,289.783L388.233,289.671L388.472,289.563L388.712,289.459L388.951,289.359L389.191,289.264L389.43,289.173L389.67,289.086L389.909,289.003L390.149,288.925L390.388,288.851L390.628,288.781L390.867,288.716L391.107,288.655L391.346,288.599L391.586,288.547L391.825,288.5L392.065,288.457L392.304,288.419L392.544,288.385L392.783,288.356L393.023,288.331L393.262,288.311L393.502,288.295L393.741,288.284L393.981,288.278L394.22,288.276L394.46,288.279L394.699,288.287L394.939,288.299L395.178,288.315L395.418,288.337" style="fill:none;fill-rule:nonzero;stroke:black;stroke-width:1px;"/>
            </g>
            <g transform="matrix(1,0,0,-1,0,595.787)">
                <path d="M395.418,286.798L395.657,286.824L395.897,286.854L396.136,286.889L396.376,286.928L396.615,286.972L396.855,287.021L397.094,287.074L397.334,287.131L397.573,287.193L397.813,287.259L398.052,287.33L398.292,287.405L398.531,287.485L398.771,287.568L399.01,287.656L399.25,287.749L399.489,287.845L399.729,287.946L399.968,288.051L400.208,288.159L400.447,288.272L400.687,288.389L400.926,288.51L401.166,288.635L401.405,288.764L401.645,288.896L401.884,289.032L402.124,289.172L402.363,289.316L402.603,289.463L402.842,289.614L403.082,289.769L403.321,289.926L403.561,290.088L403.8,290.252L404.04,290.42L404.279,290.591L404.519,290.765L404.758,290.942L404.998,291.122L405.237,291.305L405.477,291.491L405.716,291.68L405.956,291.871L406.195,292.065L406.435,292.262L406.674,292.461L406.914,292.662L407.153,292.866L407.393,293.072L407.632,293.28L407.872,293.491L408.111,293.703L408.351,293.917L408.59,294.134L408.83,294.351L409.069,294.571L409.309,294.792L409.548,295.015L409.788,295.239L410.027,295.465L410.267,295.692L410.506,295.92L410.746,296.149L410.985,296.379L411.225,296.61L411.464,296.842L411.704,297.074L411.943,297.308L412.183,297.542L412.422,297.776L412.662,298.011L412.901,298.246L413.141,298.481L413.859,299.187L414.099,299.422L414.338,299.657L414.578,299.891L414.817,300.125L415.057,300.359L415.296,300.592L415.536,300.824L415.775,301.056L416.015,301.286L416.254,301.516L416.494,301.745L416.733,301.972L416.973,302.199L417.212,302.424L417.452,302.647L417.691,302.87L417.931,303.09L418.17,303.309L418.41,303.526L418.649,303.742L418.889,303.955L419.128,304.167L419.368,304.377L419.607,304.584L419.847,304.789L420.086,304.992L420.326,305.193L420.565,305.391L420.805,305.586L421.044,305.779L421.284,305.97L421.523,306.157L421.763,306.342L422.002,306.524L422.242,306.703L422.481,306.879L422.721,307.051L422.96,307.221L423.2,307.388L423.439,307.551L423.679,307.711L423.918,307.867L424.158,308.02L424.397,308.169L424.637,308.315L424.876,308.457L425.116,308.596L425.356,308.731L425.595,308.862L425.835,308.989" style="fill:none;fill-rule:nonzero;stroke:black;stroke-width:1px;"/>
            </g>
            <g transform="matrix(1,0,0,-1,0,586.067)">
                <path d="M425.835,299.269L426.074,299.392L426.313,299.512L426.553,299.627L426.792,299.738L427.032,299.846L427.271,299.949L427.511,300.048L427.751,300.143L427.99,300.233L428.229,300.319L428.469,300.401L428.708,300.479L428.948,300.552L429.188,300.621L429.427,300.686L429.667,300.746L429.906,300.802L430.146,300.853L430.385,300.9L430.625,300.942L430.864,300.979L431.104,301.012L431.343,301.041L431.583,301.065L431.822,301.084L432.061,301.099L432.301,301.109L432.541,301.115L432.78,301.116L433.02,301.113L433.259,301.104L433.498,301.092L433.738,301.074L433.977,301.052L434.217,301.026L434.456,300.995L434.696,300.959L434.935,300.919L435.175,300.874L435.415,300.825L435.654,300.772L435.894,300.714L436.133,300.651L436.373,300.584L436.612,300.513L436.852,300.437L437.091,300.357L437.331,300.273L437.57,300.184L437.81,300.091L438.049,299.994L438.289,299.893L438.528,299.787L438.768,299.678L439.007,299.564L439.247,299.447L439.486,299.325L439.726,299.2L439.965,299.071L440.205,298.937L440.444,298.801L440.684,298.66L440.923,298.516L441.163,298.368L441.402,298.217L441.642,298.062L441.881,297.903L442.121,297.742L442.36,297.577L442.6,297.409L442.839,297.237L443.079,297.063L443.318,296.885L443.558,296.705L443.797,296.521L444.037,296.335L444.276,296.146L444.516,295.954L444.755,295.76L444.995,295.563L445.234,295.363L445.474,295.161L445.713,294.957L445.953,294.751L446.192,294.542L446.432,294.332L446.671,294.119L446.911,293.904L447.15,293.688L447.39,293.47L447.629,293.25L447.869,293.028L448.108,292.805L448.348,292.581L448.587,292.355L448.827,292.128L449.066,291.9L449.306,291.671L449.545,291.44L449.785,291.209L450.024,290.977L450.264,290.744L450.503,290.511L450.743,290.277L450.982,290.043L451.222,289.808L451.461,289.573L451.701,289.338L452.419,288.632L452.659,288.397L452.898,288.162L453.138,287.927L453.377,287.693L453.617,287.46L453.856,287.227L454.096,286.995L454.335,286.763L454.575,286.533L454.814,286.303L455.054,286.075L455.293,285.847L455.533,285.621L455.772,285.396L456.012,285.173L456.251,284.951" style="fill:none;fill-rule:nonzero;stroke:black;stroke-width:1px;"/>
            </g>
            <g transform="matrix(1,0,0,-1,0,609.753)">
                <path d="M456.251,308.637L456.491,308.417L456.73,308.198L456.97,307.981L457.209,307.766L457.449,307.553L457.688,307.341L457.928,307.132L458.167,306.925L458.407,306.72L458.646,306.518L458.886,306.318L459.125,306.12L459.365,305.925L459.604,305.732L459.844,305.542L460.083,305.355L460.323,305.171L460.562,304.989L460.802,304.811L461.041,304.635L461.281,304.463L461.52,304.294L461.76,304.128L461.999,303.965L462.239,303.806L462.478,303.65L462.718,303.497L462.957,303.349L463.197,303.203L463.436,303.062L463.676,302.924L463.915,302.789L464.155,302.659L464.394,302.532L464.634,302.41L464.873,302.291L465.113,302.176L465.352,302.066L465.592,301.959L465.831,301.856L466.071,301.758L466.31,301.664L466.55,301.574L466.789,301.488L467.029,301.407L467.268,301.33L467.508,301.257L467.747,301.189L467.987,301.125L468.226,301.066L468.466,301.011L468.705,300.96L468.945,300.914L469.184,300.873L469.424,300.836L469.663,300.803L469.903,300.775L470.142,300.752L470.382,300.733L470.621,300.719L470.861,300.71L471.1,300.705L471.34,300.704L471.579,300.709L471.819,300.718L472.058,300.731L472.298,300.749L472.537,300.772L472.777,300.799L473.016,300.831L473.256,300.867L473.495,300.908L473.735,300.953L473.974,301.003L474.214,301.057L474.453,301.116L474.693,301.179L474.932,301.247L475.172,301.319L475.411,301.395L475.651,301.476L475.89,301.561L476.13,301.65L476.369,301.744L476.609,301.841L476.848,301.943L477.088,302.049L477.327,302.159L477.567,302.273L477.806,302.392L478.046,302.514L478.285,302.64L478.525,302.77L478.764,302.903L479.004,303.041L479.243,303.182L479.483,303.326L479.722,303.475L479.962,303.627L480.201,303.782L480.441,303.941L480.68,304.103L480.92,304.269L481.159,304.437L481.399,304.609L481.638,304.784L481.878,304.962L482.117,305.143L482.357,305.327L482.596,305.514L482.836,305.703L483.075,305.895L483.315,306.09L483.554,306.288L483.794,306.487L484.033,306.69L484.273,306.894L484.513,307.101L484.752,307.31L484.991,307.521L485.231,307.734L485.47,307.949L485.71,308.165L485.95,308.384L486.189,308.604L486.428,308.826L486.668,309.049" style="fill:none;fill-rule:nonzero;stroke:black;stroke-width:1px;"/>
            </g>
            <g transform="matrix(1,0,0,-1,0,585.656)">
                <path d="M486.668,284.951L486.907,285.176L487.147,285.402L487.386,285.629L487.626,285.857L487.866,286.087L488.105,286.317L488.345,286.549L488.584,286.781L488.823,287.013L489.063,287.247L489.303,287.481L489.542,287.715L489.781,287.95L490.021,288.185L490.979,289.126L491.218,289.361L491.458,289.596L491.698,289.83L491.937,290.064L492.176,290.298L492.416,290.531L492.656,290.763L492.895,290.994L493.135,291.224L493.374,291.454L493.614,291.682L493.853,291.909L494.092,292.135L494.332,292.36L494.571,292.583L494.811,292.805L495.051,293.025L495.29,293.244L495.53,293.46L495.769,293.675L496.008,293.888L496.248,294.099L496.487,294.308L496.727,294.515L496.967,294.719L497.206,294.921L497.446,295.121L497.685,295.319L497.925,295.513L498.164,295.706L498.404,295.895L498.643,296.082L498.883,296.266L499.122,296.447L499.362,296.625L499.601,296.8L499.841,296.972L500.08,297.14L500.32,297.306L500.559,297.468L500.799,297.627L501.038,297.782L501.278,297.934L501.517,298.082L501.757,298.227L501.996,298.368L502.236,298.506L502.475,298.639L502.715,298.769L502.954,298.895L503.194,299.017L503.433,299.135L503.673,299.25L503.912,299.36L504.152,299.466L504.391,299.568L504.631,299.665L504.87,299.759L505.11,299.848L505.349,299.933L505.589,300.014L505.828,300.09L506.068,300.162L506.307,300.23L506.547,300.293L506.786,300.352L507.026,300.406L507.265,300.456L507.505,300.501L507.744,300.542L507.984,300.578L508.223,300.61L508.463,300.637L508.702,300.66L508.942,300.678L509.181,300.691L509.421,300.7L509.66,300.704L509.9,300.704L510.139,300.699L510.379,300.69L510.618,300.675L510.858,300.657L511.097,300.633L511.337,300.606L511.576,300.573L511.816,300.536L512.055,300.495L512.295,300.449L512.534,300.398L512.774,300.343L513.013,300.284L513.253,300.22L513.492,300.152L513.732,300.079L513.971,300.002L514.211,299.921L514.45,299.835L514.69,299.745L514.929,299.651L515.169,299.552L515.408,299.45L515.648,299.343L515.887,299.233L516.127,299.118L516.366,298.999L516.606,298.876L516.845,298.75L517.085,298.619" style="fill:none;fill-rule:nonzero;stroke:black;stroke-width:1px;"/>
            </g>
            <g transform="matrix(1,0,0,-1,0,596.061)">
                <path d="M517.085,309.025L517.324,308.89L517.564,308.752L517.803,308.611L518.043,308.466L518.282,308.317L518.522,308.164L518.761,308.008L519.001,307.849L519.24,307.686L519.48,307.52L519.719,307.351L519.959,307.179L520.198,307.003L520.438,306.825L520.677,306.643L520.917,306.459L521.156,306.272L521.396,306.082L521.635,305.889L521.875,305.694L522.114,305.496L522.354,305.296L522.593,305.094L522.833,304.889L523.072,304.682L523.312,304.473L523.551,304.261L523.791,304.048L524.03,303.833L524.27,303.616L524.509,303.397L524.749,303.177L524.988,302.955L525.228,302.732L525.467,302.507L525.707,302.281L525.946,302.053L526.186,301.825L526.425,301.595L526.665,301.365L526.904,301.133L527.144,300.901L527.383,300.668L527.623,300.434L527.862,300.2L528.102,299.966L528.341,299.731L528.581,299.496L529.299,298.79L529.539,298.555L529.778,298.32L530.018,298.085L530.257,297.851L530.497,297.617L530.736,297.383L530.976,297.151L531.215,296.919L531.455,296.688L531.694,296.457L531.934,296.228L532.173,296L532.413,295.773L532.652,295.547L532.892,295.323L533.131,295.1L533.371,294.878L533.61,294.658L533.85,294.44L534.089,294.224L534.329,294.009L534.568,293.796L534.808,293.586L535.047,293.377L535.287,293.171L535.526,292.967L535.766,292.765L536.005,292.565L536.245,292.368L536.484,292.174L536.724,291.982L536.963,291.793L537.203,291.607L537.442,291.423L537.682,291.243L537.921,291.065L538.161,290.891L538.4,290.719L538.64,290.551L538.879,290.386L539.119,290.224L539.358,290.066L539.598,289.911L539.837,289.76L540.077,289.612L540.316,289.468L540.556,289.327L540.795,289.19L541.035,289.057L541.274,288.928L541.514,288.803L541.753,288.681L541.993,288.564L542.232,288.45L542.472,288.341L542.711,288.235L542.951,288.134L543.19,288.037L543.43,287.944L543.669,287.855L543.909,287.771L544.148,287.691L544.388,287.615L544.627,287.544L544.867,287.477L545.106,287.414L545.346,287.356L545.585,287.303L545.825,287.253L546.064,287.209L546.304,287.169L546.544,287.133L546.783,287.102L547.022,287.076L547.262,287.054L547.502,287.036" style="fill:none;fill-rule:nonzero;stroke:black;stroke-width:1px;"/>
            </g>
            <g transform="matrix(1,0,0,-1,0,597.031)">
                <path d="M547.502,288.006L547.741,287.994L547.981,287.985L548.22,287.982L548.459,287.983L548.699,287.988L548.939,287.999L549.178,288.014L549.417,288.033L549.657,288.057L549.896,288.085L550.136,288.119L550.376,288.156L550.615,288.198L550.854,288.245L551.094,288.296L551.334,288.352L551.573,288.412L551.812,288.477L552.052,288.546L552.292,288.619L552.531,288.697L552.771,288.779L553.01,288.865L553.25,288.955L553.489,289.05L553.729,289.149L553.968,289.252L554.208,289.36L554.447,289.471L554.687,289.586L554.926,289.706L555.165,289.829L555.405,289.956L555.645,290.087L555.884,290.222L556.124,290.36L556.363,290.503L556.603,290.648L556.842,290.798L557.082,290.951L557.321,291.107L557.56,291.267L557.8,291.43L558.04,291.597L558.279,291.766L558.519,291.939L558.758,292.115L558.998,292.294L559.237,292.476L559.477,292.661L559.716,292.848L559.956,293.038L560.195,293.231L560.435,293.427L560.674,293.625L560.914,293.826L561.153,294.029L561.393,294.234L561.632,294.441L561.872,294.651L562.111,294.862L562.351,295.076L562.59,295.291L562.83,295.508L563.069,295.727L563.309,295.948L563.548,296.17L563.788,296.394L564.027,296.619L564.267,296.845L564.506,297.073L564.746,297.302L564.985,297.531L565.225,297.762L565.464,297.993L565.704,298.226L565.943,298.459L566.183,298.692L566.422,298.926L566.662,299.161L566.901,299.396L567.141,299.631L567.859,300.337L568.099,300.572L568.338,300.807L568.578,301.042L568.817,301.276L569.057,301.51L569.296,301.743L569.536,301.976L569.775,302.208L570.015,302.439L570.254,302.669L570.494,302.898L570.733,303.126L570.973,303.353L571.212,303.578L571.452,303.803L571.691,304.025L571.931,304.247L572.17,304.466L572.41,304.684L572.649,304.9L572.889,305.115L573.128,305.327L573.368,305.537L573.607,305.746L573.847,305.952L574.086,306.156L574.326,306.357L574.565,306.556L574.805,306.753L575.044,306.947L575.284,307.138L575.523,307.327L575.763,307.513L576.002,307.696L576.242,307.876L576.481,308.053L576.721,308.227L576.96,308.398L577.2,308.566L577.439,308.73L577.679,308.891L577.918,309.049" style="fill:none;fill-rule:nonzero;stroke:black;stroke-width:1px;"/>
            </g>
            <g transform="matrix(1,0,0,-1,0,584.162)">
                <path d="M577.918,296.181L578.158,296.335L578.397,296.486L578.637,296.633L578.876,296.777L579.116,296.917L579.355,297.053L579.595,297.186L579.834,297.314L580.074,297.439L580.313,297.56L580.553,297.677L580.792,297.79L581.032,297.899L581.271,298.003L581.511,298.104L581.75,298.201L581.99,298.293L582.229,298.381L582.469,298.465L582.708,298.544L582.948,298.619L583.187,298.69L583.427,298.756L583.666,298.818L583.906,298.875L584.145,298.928L584.385,298.977L584.624,299.021L584.864,299.06L585.103,299.095L585.343,299.126L585.582,299.151L585.822,299.173L586.061,299.189L586.301,299.201L586.54,299.209L586.78,299.212L587.019,299.21L587.259,299.203L587.498,299.193L587.738,299.177L587.977,299.157L588.217,299.132L588.456,299.103L588.696,299.069L588.935,299.031L589.175,298.988L589.414,298.941L589.654,298.889L589.893,298.833L590.133,298.772L590.372,298.707L590.612,298.637L590.851,298.563L591.091,298.485L591.33,298.402L591.57,298.315L591.809,298.224L592.049,298.128L592.288,298.029L592.528,297.925L592.767,297.817L593.007,297.705L593.246,297.589L593.486,297.469L593.725,297.346L593.965,297.218L594.204,297.086L594.444,296.951L594.683,296.812L594.923,296.669L595.162,296.523L595.402,296.373L595.641,296.219L595.881,296.062L596.12,295.902L596.36,295.738L596.599,295.571L596.839,295.401L597.078,295.228L597.318,295.051L597.557,294.872L597.797,294.69L598.036,294.505L598.276,294.317L598.515,294.126L598.755,293.933L598.994,293.737L599.234,293.538L599.473,293.337L599.713,293.134L599.952,292.929L600.192,292.721L600.431,292.511L600.671,292.299L600.91,292.085L601.15,291.869L601.389,291.652L601.629,291.433L601.868,291.212L602.108,290.989L602.347,290.766L602.587,290.54L602.826,290.314L603.066,290.086L603.305,289.857L603.545,289.627L603.784,289.396L604.024,289.165L604.263,288.932L604.503,288.699L604.742,288.466L604.982,288.232L605.221,287.997L605.461,287.762L605.7,287.527L606.419,286.821L606.658,286.586L606.898,286.351L607.137,286.116L607.377,285.882L607.617,285.648L607.856,285.415L608.096,285.182L608.335,284.951" style="fill:none;fill-rule:nonzero;stroke:black;stroke-width:1px;"/>
            </g>
            <g transform="matrix(1,0,0,-1,0,608.261)">
                <path d="M608.335,309.049L608.575,308.818L608.814,308.588L609.054,308.359L609.293,308.132L609.532,307.905L609.772,307.68L610.012,307.456L610.251,307.233L610.491,307.012L610.73,306.793L610.969,306.575L611.209,306.359L611.449,306.145L611.688,305.933L611.927,305.723L612.167,305.515L612.406,305.309L612.646,305.106L612.886,304.905L613.125,304.706L613.364,304.51L613.604,304.316L613.843,304.125L614.083,303.937L614.322,303.751L614.562,303.569L614.801,303.389L615.041,303.212L615.281,303.039L615.52,302.868L615.76,302.701L615.999,302.537L616.239,302.376L616.478,302.219L616.718,302.065L616.957,301.915L617.197,301.768L617.436,301.625L617.676,301.486L617.915,301.35L618.155,301.218L618.394,301.09L618.634,300.966L618.873,300.845L619.112,300.729L619.352,300.617L619.592,300.509L619.831,300.404L620.071,300.304L620.31,300.209L620.55,300.117L620.789,300.03L621.029,299.946L621.268,299.868L621.508,299.793L621.747,299.723L621.987,299.658L622.226,299.596L622.466,299.54L622.705,299.487L622.945,299.44L623.184,299.396L623.424,299.357L623.663,299.323L623.903,299.294L624.142,299.268L624.382,299.248L624.621,299.232L624.861,299.221L625.1,299.214L625.34,299.212L625.579,299.214L625.819,299.221L626.058,299.233L626.298,299.249L626.537,299.27L626.777,299.295L627.016,299.325L627.256,299.359L627.495,299.398L627.735,299.442L627.974,299.49L628.214,299.543L628.453,299.6L628.693,299.661L628.932,299.727L629.172,299.797L629.411,299.872L629.651,299.951L629.89,300.034L630.13,300.122L630.369,300.214L630.609,300.31L630.848,300.41L631.088,300.514L631.327,300.623L631.567,300.735L631.806,300.852L632.046,300.972L632.285,301.097L632.525,301.225L632.764,301.357L633.004,301.493L633.243,301.633L633.483,301.776L633.722,301.923L633.962,302.073L634.201,302.227L634.441,302.385L634.68,302.546L634.92,302.71L635.159,302.877L635.399,303.048L635.638,303.222L635.878,303.399L636.117,303.578L636.357,303.761L636.596,303.947L636.836,304.135L637.075,304.326L637.315,304.52L637.554,304.716L637.794,304.915L638.033,305.116L638.273,305.32L638.512,305.526L638.752,305.734" style="fill:none;fill-rule:nonzero;stroke:black;stroke-width:1px;"/>
            </g>
            <g transform="matrix(1,0,0,-1,0,587.478)">
                <path d="M638.752,284.951L638.991,285.161L639.231,285.373L639.47,285.587L639.71,285.803L639.949,286.021L640.189,286.241L640.428,286.462L640.668,286.684L640.907,286.908L641.147,287.134L641.386,287.361L641.626,287.588L641.865,287.817L642.105,288.047L642.344,288.278L642.584,288.51L642.823,288.743L643.063,288.976L643.302,289.21L643.542,289.444L643.781,289.679L644.021,289.914L644.26,290.149L644.979,290.855L645.218,291.09L645.458,291.325L645.697,291.559L645.937,291.793L646.176,292.027L646.416,292.26L646.655,292.493L646.895,292.724L647.134,292.955L647.374,293.185L647.613,293.414L647.853,293.641L648.092,293.868L648.332,294.093L648.571,294.317L648.811,294.539L649.05,294.76L649.29,294.979L649.529,295.196L649.769,295.412L650.008,295.626L650.248,295.837L650.487,296.047L650.727,296.255L650.966,296.46L651.206,296.663L651.445,296.864L651.685,297.062L651.924,297.258L652.164,297.452L652.403,297.642L652.643,297.83L652.882,298.015L653.122,298.197L653.361,298.376L653.601,298.553L653.84,298.726L654.08,298.896L654.319,299.062L654.559,299.226L654.798,299.386L655.038,299.543L655.277,299.696L655.517,299.846L655.756,299.992L655.996,300.135L656.235,300.274L656.475,300.409L656.714,300.54L656.954,300.668L657.193,300.791L657.433,300.911L657.672,301.027L657.912,301.138L658.151,301.246L658.391,301.35L658.63,301.449L658.87,301.544L659.109,301.635L659.349,301.722L659.588,301.804L659.828,301.882L660.067,301.956L660.307,302.026L660.546,302.09L660.786,302.151L661.025,302.207L661.265,302.259L661.504,302.306L661.744,302.349L661.983,302.387L662.223,302.42L662.462,302.449L662.702,302.474L662.941,302.493L663.181,302.509L663.42,302.519L663.66,302.525L663.899,302.527L664.139,302.524L664.378,302.516L664.618,302.504L664.857,302.487L665.097,302.465L665.336,302.439L665.576,302.409L665.815,302.374L666.055,302.334L666.294,302.29L666.534,302.241L666.773,302.188L667.013,302.13L667.252,302.068L667.492,302.001L667.731,301.931L667.971,301.855L668.21,301.776L668.45,301.692L668.69,301.603L668.929,301.511L669.169,301.414" style="fill:none;fill-rule:nonzero;stroke:black;stroke-width:1px;"/>
            </g>
            <g transform="matrix(1,0,0,-1,0,594.801)">
                <path d="M669.169,308.737L669.408,308.636L669.647,308.531L669.887,308.422L670.127,308.309L670.366,308.192L670.606,308.071L670.845,307.946L671.085,307.817L671.324,307.684L671.564,307.548L671.803,307.408L672.042,307.264L672.282,307.116L672.521,306.965L672.761,306.811L673.001,306.653L673.24,306.491L673.48,306.327L673.719,306.159L673.959,305.988L674.198,305.814L674.437,305.636L674.677,305.456L674.916,305.273L675.156,305.087L675.396,304.898L675.635,304.706L675.875,304.512L676.114,304.316L676.353,304.116L676.593,303.915L676.832,303.711L677.072,303.505L677.311,303.296L677.551,303.086L677.791,302.873L678.03,302.659L678.27,302.443L678.509,302.225L678.749,302.005L678.988,301.784L679.228,301.561L679.467,301.336L679.707,301.111L679.946,300.884L680.186,300.656L680.425,300.427L680.665,300.196L680.904,299.965L681.144,299.733L681.383,299.501L681.623,299.268L681.862,299.034L682.102,298.799L682.341,298.565L682.581,298.33L682.82,298.095L683.539,297.389L683.778,297.153L684.018,296.919L684.257,296.684L684.497,296.45L684.736,296.216L684.976,295.983L685.215,295.751L685.455,295.52L685.694,295.289L685.934,295.059L686.173,294.831L686.413,294.603L686.652,294.377L686.892,294.152L687.131,293.928L687.371,293.706L687.61,293.486L687.85,293.267L688.089,293.05L688.329,292.834L688.568,292.621L688.808,292.41L689.047,292.2L689.287,291.993L689.526,291.788L689.766,291.585L690.005,291.385L690.245,291.187L690.484,290.991L690.724,290.798L690.963,290.608L691.203,290.421L691.442,290.236L691.682,290.054L691.921,289.876L692.161,289.7L692.4,289.527L692.64,289.358L692.879,289.191L693.119,289.028L693.358,288.869L693.598,288.713L693.837,288.56L694.077,288.411L694.316,288.265L694.556,288.123L694.795,287.984L695.035,287.85L695.274,287.719L695.514,287.592L695.753,287.469L695.993,287.35L696.232,287.235L696.472,287.124L696.711,287.017L696.951,286.914L697.19,286.815L697.43,286.721L697.669,286.63L697.909,286.544L698.148,286.462L698.388,286.385L698.627,286.312L698.867,286.243L699.106,286.179L699.346,286.119L699.585,286.063" style="fill:none;fill-rule:nonzero;stroke:black;stroke-width:1px;"/>
            </g>
            <g transform="matrix(1,0,0,-1,0,598.457)">
                <path d="M699.585,289.719L699.825,289.668L700.064,289.622L700.304,289.58L700.543,289.542L700.783,289.51L701.022,289.481L701.262,289.458L701.501,289.438L701.741,289.424L701.98,289.414L702.22,289.408L702.459,289.408L702.699,289.411L702.938,289.42L703.178,289.433L703.417,289.45L703.657,289.473L703.896,289.499L704.136,289.531L704.375,289.566L704.615,289.607L704.854,289.652L705.094,289.701L705.333,289.755L705.573,289.813L705.812,289.876L706.052,289.943L706.291,290.015L706.531,290.091L706.77,290.171L707.01,290.256L707.249,290.345L707.489,290.438L707.728,290.535L707.968,290.637L708.207,290.742L708.447,290.852L708.686,290.966L708.926,291.083L709.165,291.205L709.405,291.331L709.644,291.46L709.884,291.593L710.123,291.731L710.363,291.871L710.602,292.016L710.842,292.164L711.081,292.315L711.321,292.47L711.56,292.629L711.8,292.791L712.039,292.956L712.279,293.124L712.518,293.296L712.758,293.47L712.997,293.648L713.237,293.829L713.476,294.012L713.716,294.199L713.955,294.388L714.195,294.58L714.434,294.775L714.674,294.972L714.913,295.171L715.153,295.373L715.392,295.578L715.632,295.784L715.871,295.993L716.111,296.204L716.35,296.416L716.59,296.631L716.829,296.848L717.069,297.066L717.308,297.286L717.548,297.507L717.787,297.731L718.027,297.955L718.266,298.181L718.506,298.408L718.745,298.636L718.985,298.866L719.224,299.096L719.464,299.327L719.703,299.559L719.943,299.792L720.182,300.025L720.422,300.259L720.661,300.494L720.901,300.728L721.14,300.963L721.38,301.198L722.098,301.904L722.338,302.139L722.577,302.374L722.817,302.609L723.056,302.843L723.296,303.076L723.535,303.309L723.775,303.541L724.014,303.773L724.254,304.003L724.493,304.233L724.733,304.461L724.972,304.688L725.212,304.914L725.451,305.139L725.691,305.363L725.93,305.584L726.17,305.805L726.409,306.024L726.649,306.24L726.888,306.455L727.128,306.669L727.367,306.88L727.607,307.089L727.846,307.296L728.086,307.501L728.325,307.703L728.565,307.903L728.804,308.101L729.044,308.296L729.283,308.488L729.523,308.678L729.762,308.865L730.002,309.049" style="fill:none;fill-rule:nonzero;stroke:black;stroke-width:1px;"/>
            </g>
            <g transform="matrix(1,0,0,-1,0,582.199)">
                <path d="M730.002,292.791L730.242,292.973L730.481,293.151L730.721,293.326L730.96,293.499L731.2,293.668L731.439,293.833L731.679,293.996L731.918,294.155L732.157,294.311L732.397,294.463L732.636,294.612L732.876,294.757L733.116,294.898L733.355,295.036L733.595,295.17L733.834,295.3L734.074,295.427L734.313,295.549L734.552,295.668L734.792,295.782L735.031,295.893L735.271,295.999L735.511,296.101L735.75,296.199L735.99,296.293L736.229,296.383L736.468,296.468L736.708,296.55L736.947,296.626L737.187,296.699L737.426,296.767L737.666,296.831L737.906,296.89L738.145,296.945L738.385,296.995L738.624,297.041L738.863,297.082L739.103,297.119L739.342,297.151L739.582,297.178L739.821,297.201L740.061,297.22L740.3,297.234L740.54,297.243L740.78,297.248L741.019,297.248L741.259,297.243L741.498,297.234L741.737,297.221L741.977,297.202L742.217,297.179L742.456,297.152L742.696,297.12L742.935,297.084L743.175,297.043L743.414,296.997L743.654,296.947L743.893,296.892L744.133,296.833L744.372,296.77L744.612,296.702L744.851,296.63L745.091,296.553L745.33,296.472L745.57,296.387L745.809,296.297L746.049,296.204L746.288,296.106L746.528,296.004L746.767,295.897L747.007,295.787L747.246,295.673L747.486,295.554L747.725,295.432L747.965,295.306L748.204,295.176L748.444,295.042L748.683,294.904L748.923,294.763L749.162,294.618L749.402,294.47L749.641,294.317L749.881,294.162L750.12,294.003L750.36,293.841L750.599,293.675L750.839,293.506L751.078,293.334L751.318,293.159L751.557,292.981L751.797,292.8L752.036,292.615L752.276,292.429L752.515,292.239L752.755,292.047L752.994,291.852L753.234,291.654L753.473,291.454L753.713,291.252L753.952,291.047L754.192,290.84L754.431,290.631L754.671,290.42L754.91,290.207L755.15,289.992L755.389,289.776L755.629,289.557L755.868,289.337L756.108,289.115L756.347,288.892L756.587,288.667L756.826,288.441L757.066,288.214L757.305,287.985L757.545,287.756L757.784,287.525L758.024,287.294L758.263,287.062L758.503,286.829L758.742,286.596L758.982,286.362L759.221,286.127L759.461,285.892L759.7,285.657L759.94,285.422L760.419,284.951" style="fill:none;fill-rule:nonzero;stroke:black;stroke-width:1px;"/>
            </g>
            <g transform="matrix(1,0,0,-1,0,606.297)">
                <path d="M760.419,309.049L760.658,308.814L760.898,308.579L761.137,308.344L761.377,308.109L761.616,307.876L761.856,307.642L762.095,307.409L762.335,307.177L762.574,306.946L762.814,306.716L763.053,306.486L763.293,306.258L763.532,306.031L763.772,305.805L764.011,305.58L764.251,305.357L764.49,305.136L764.73,304.916L764.969,304.697L765.209,304.481L765.448,304.266L765.688,304.053L765.927,303.842L766.167,303.633L766.406,303.427L766.646,303.222L766.885,303.02L767.125,302.821L767.364,302.623L767.604,302.429L767.843,302.237L768.083,302.047L768.322,301.861L768.562,301.677L768.801,301.496L769.041,301.318L769.28,301.143L769.52,300.972L769.759,300.803L769.999,300.638L770.238,300.476L770.478,300.317L770.717,300.162L770.957,300.01L771.196,299.862L771.436,299.718L771.675,299.577L771.915,299.439L772.154,299.306L772.394,299.176L772.633,299.051L772.873,298.929L773.112,298.811L773.352,298.697L773.591,298.587L773.831,298.481L774.07,298.38L774.31,298.282L774.549,298.189L774.789,298.1L775.028,298.015L775.268,297.934L775.507,297.858L775.747,297.787L775.986,297.719L776.226,297.656L776.465,297.598L776.705,297.544L776.944,297.494L777.184,297.449L777.423,297.408L777.663,297.372L777.902,297.341L778.142,297.314L778.381,297.291L778.621,297.274L778.86,297.26L779.1,297.252L779.339,297.248L779.579,297.248L779.818,297.254L780.058,297.263L780.297,297.278L780.537,297.297L780.776,297.32L781.016,297.348L781.255,297.381L781.495,297.418L781.734,297.46L781.974,297.506L782.213,297.557L782.453,297.612L782.692,297.672L782.932,297.736L783.171,297.805L783.411,297.877L783.65,297.955L783.89,298.036L784.129,298.122L784.369,298.212L784.608,298.307L784.848,298.405L785.087,298.508L785.327,298.615L785.566,298.726L785.806,298.841L786.045,298.96L786.285,299.083L786.524,299.209L786.764,299.34L787.003,299.474L787.243,299.613L787.482,299.754L787.722,299.9L787.961,300.049L788.201,300.202L788.44,300.358L788.68,300.517L788.919,300.68L789.159,300.846L789.398,301.016L789.638,301.188L789.877,301.364L790.117,301.542L790.356,301.724L790.596,301.908L790.835,302.096" style="fill:none;fill-rule:nonzero;stroke:black;stroke-width:1px;"/>
            </g>
            <g transform="matrix(1,0,0,-1,0,589.152)">
                <path d="M790.835,284.951L791.075,285.141L791.314,285.334L791.554,285.529L791.794,285.727L792.033,285.927L792.273,286.13L792.512,286.335L792.752,286.542L792.991,286.751L793.231,286.963L793.47,287.176L793.71,287.391L793.949,287.608L794.189,287.827L794.428,288.048L794.667,288.27L794.907,288.493L795.146,288.718L795.386,288.944L795.626,289.172L795.865,289.4L796.105,289.63L796.344,289.861L796.584,290.092L796.823,290.324L797.062,290.557L797.302,290.791L797.541,291.025L797.781,291.259L798.021,291.494L798.26,291.729L798.979,292.435L799.218,292.67L799.457,292.905L799.697,293.14L799.936,293.374L800.176,293.608L800.415,293.842L800.655,294.074L800.895,294.306L801.134,294.537L801.374,294.768L801.613,294.997L801.852,295.225L802.092,295.452L802.331,295.678L802.571,295.902L802.81,296.125L803.05,296.346L803.29,296.566L803.529,296.784L803.769,297.001L804.008,297.215L804.248,297.428L804.487,297.638L804.727,297.847L804.966,298.053L805.206,298.257L805.445,298.459L805.685,298.658L805.924,298.855L806.164,299.049L806.403,299.241L806.643,299.43L806.882,299.616L807.122,299.799L807.361,299.98L807.601,300.157L807.84,300.331L808.08,300.503L808.319,300.671L808.559,300.835L808.798,300.997L809.038,301.155L809.277,301.31L809.517,301.461L809.756,301.608L809.996,301.753L810.235,301.893L810.475,302.03L810.714,302.162L810.954,302.291L811.193,302.417L811.433,302.538L811.672,302.655L811.912,302.769L812.151,302.878L812.391,302.983L812.63,303.084L812.87,303.181L813.109,303.274L813.349,303.362L813.588,303.446L813.828,303.526L814.067,303.601L814.307,303.673L814.546,303.739L814.786,303.802L815.025,303.86L815.265,303.913L815.504,303.962L815.744,304.006L815.983,304.046L816.223,304.082L816.462,304.112L816.702,304.139L816.941,304.16L817.181,304.177L817.42,304.19L817.66,304.198L817.899,304.201L818.139,304.2L818.378,304.194L818.618,304.184L818.857,304.168L819.097,304.149L819.336,304.124L819.576,304.096L819.815,304.062L820.055,304.024L820.294,303.982L820.534,303.935L820.773,303.884L821.013,303.828L821.252,303.767" style="fill:none;fill-rule:nonzero;stroke:black;stroke-width:1px;"/>
            </g>
            <g transform="matrix(1,0,0,-1,0,593.52)">
                <path d="M821.252,308.135L821.492,308.07L821.731,308.001L821.971,307.928L822.21,307.85L822.45,307.768L822.689,307.681L822.929,307.59L823.168,307.495L823.408,307.396L823.647,307.293L823.887,307.185L824.126,307.074L824.366,306.958L824.605,306.839L824.845,306.715L825.084,306.588L825.324,306.457L825.563,306.322L825.803,306.183L826.042,306.04L826.282,305.894L826.521,305.745L826.761,305.592L827,305.435L827.24,305.275L827.479,305.112L827.719,304.945L827.958,304.775L828.198,304.602L828.437,304.426L828.677,304.247L828.916,304.065L829.156,303.88L829.395,303.692L829.635,303.502L829.874,303.309L830.114,303.113L830.353,302.915L830.593,302.714L830.832,302.511L831.072,302.306L831.311,302.098L831.551,301.889L831.79,301.677L832.03,301.463L832.269,301.248L832.509,301.031L832.748,300.811L832.988,300.591L833.227,300.368L833.467,300.145L833.706,299.92L833.946,299.693L834.185,299.466L834.425,299.237L834.664,299.007L834.904,298.776L835.143,298.545L835.383,298.312L835.622,298.079L835.862,297.846L836.101,297.612L836.341,297.377L836.58,297.142L836.82,296.907L837.538,296.201L837.778,295.966L838.017,295.731L838.257,295.496L838.496,295.262L838.736,295.028L838.975,294.795L839.215,294.562L839.454,294.331L839.694,294.1L839.933,293.87L840.173,293.641L840.412,293.413L840.652,293.186L840.891,292.96L841.131,292.736L841.37,292.513L841.61,292.292L841.849,292.073L842.089,291.855L842.328,291.639L842.568,291.425L842.807,291.212L843.047,291.002L843.286,290.794L843.526,290.588L843.765,290.384L844.005,290.183L844.244,289.984L844.484,289.787L844.723,289.594L844.963,289.402L845.202,289.214L845.442,289.028L845.681,288.845L845.921,288.665L846.16,288.488L846.4,288.314L846.639,288.144L846.879,287.976L847.118,287.812L847.358,287.651L847.597,287.493L847.837,287.339L848.076,287.188L848.316,287.041L848.555,286.898L848.795,286.758L849.034,286.622L849.274,286.49L849.513,286.361L849.753,286.237L849.992,286.116L850.232,285.999L850.471,285.886L850.711,285.778L850.95,285.673L851.19,285.573L851.429,285.477L851.669,285.385" style="fill:none;fill-rule:nonzero;stroke:black;stroke-width:1px;"/>
            </g>
            <g transform="matrix(1,0,0,-1,0,600.087)">
                <path d="M851.669,291.951L851.908,291.864L852.148,291.78L852.387,291.701L852.627,291.626L852.866,291.556L853.106,291.49L853.345,291.428L853.585,291.371L853.824,291.318L854.064,291.27L854.304,291.226L854.543,291.187L854.783,291.152L855.022,291.122L855.261,291.096L855.501,291.075L855.741,291.059L855.98,291.047L856.22,291.04L856.459,291.037L856.699,291.039L856.938,291.046L857.178,291.057L857.417,291.073L857.656,291.093L857.896,291.118L858.136,291.148L858.375,291.182L858.615,291.22L858.854,291.263L859.094,291.311L859.333,291.363L859.573,291.42L859.812,291.481L860.051,291.546L860.291,291.616L860.531,291.69L860.77,291.769L861.01,291.852L861.249,291.939L861.489,292.03L861.728,292.126L861.967,292.226L862.207,292.33L862.446,292.438L862.686,292.55L862.925,292.666L863.165,292.786L863.405,292.91L863.644,293.038L863.884,293.17L864.123,293.305L864.362,293.445L864.602,293.588L864.842,293.734L865.081,293.884L865.321,294.038L865.56,294.195L865.8,294.356L866.039,294.52L866.279,294.687L866.518,294.857L866.758,295.03L866.997,295.207L867.237,295.387L867.476,295.569L867.716,295.754L867.955,295.942L868.195,296.133L868.434,296.327L868.674,296.523L868.913,296.722L869.153,296.923L869.392,297.126L869.632,297.332L869.871,297.539L870.111,297.749L870.35,297.961L870.59,298.175L870.829,298.391L871.069,298.609L871.308,298.828L871.548,299.049L871.787,299.271L872.027,299.495L872.266,299.721L872.506,299.947L872.745,300.175L872.985,300.404L873.224,300.634L873.464,300.865L873.703,301.097L873.943,301.329L874.182,301.562L874.422,301.796L874.661,302.03L874.901,302.265L875.14,302.5L875.38,302.735L876.098,303.441L876.338,303.676L876.577,303.911L876.817,304.145L877.056,304.38L877.296,304.613L877.535,304.846L877.775,305.079L878.014,305.311L878.254,305.541L878.493,305.771L878.733,306L878.972,306.228L879.212,306.455L879.451,306.68L879.691,306.904L879.93,307.126L880.17,307.347L880.409,307.567L880.649,307.784L880.888,308L881.128,308.214L881.367,308.426L881.607,308.636L881.846,308.844L882.086,309.049" style="fill:none;fill-rule:nonzero;stroke:black;stroke-width:1px;"/>
            </g>
            <g transform="matrix(1,0,0,-1,0,580.228)">
                <path d="M882.086,289.191L882.325,289.394L882.565,289.595L882.804,289.794L883.044,289.99L883.283,290.183L883.523,290.374L883.762,290.562L884.002,290.748L884.241,290.93L884.481,291.11L884.72,291.286L884.96,291.459L885.199,291.63L885.439,291.797L885.678,291.961L885.918,292.121L886.157,292.278L886.397,292.432L886.636,292.582L886.876,292.729L887.115,292.871L887.355,293.011L887.594,293.146L887.834,293.278L888.073,293.406L888.313,293.53L888.552,293.65L888.792,293.766L889.031,293.878L889.271,293.986L889.51,294.09L889.75,294.19L889.989,294.286L890.229,294.377L890.468,294.464L890.708,294.547L890.947,294.625L891.187,294.7L891.426,294.769L891.666,294.835L891.905,294.896L892.145,294.952L892.384,295.004L892.624,295.052L892.863,295.095L893.103,295.134L893.342,295.168L893.582,295.197L893.821,295.222L894.061,295.242L894.3,295.258L894.54,295.269L894.779,295.276L895.019,295.277L895.258,295.275L895.498,295.268L895.737,295.256L895.977,295.239L896.216,295.218L896.456,295.193L896.695,295.162L896.935,295.128L897.174,295.088L897.414,295.045L897.653,294.996L897.893,294.944L898.132,294.886L898.372,294.825L898.611,294.759L898.851,294.688L899.09,294.613L899.33,294.534L899.569,294.45L899.809,294.363L900.048,294.271L900.288,294.174L900.527,294.074L900.767,293.969L901.006,293.861L901.246,293.748L901.485,293.631L901.725,293.51L901.964,293.386L902.204,293.257L902.443,293.125L902.683,292.989L902.922,292.849L903.162,292.705L903.401,292.558L903.641,292.408L903.88,292.253L904.12,292.096L904.359,291.935L904.599,291.77L904.838,291.603L905.078,291.432L905.317,291.258L905.557,291.081L905.796,290.901L906.036,290.718L906.275,290.532L906.515,290.344L906.754,290.153L906.994,289.959L907.233,289.762L907.473,289.563L907.712,289.362L907.952,289.158L908.191,288.952L908.431,288.744L908.67,288.534L908.91,288.321L909.149,288.107L909.389,287.891L909.628,287.673L909.868,287.454L910.107,287.233L910.347,287.01L910.586,286.786L910.826,286.56L911.065,286.333L911.305,286.105L911.544,285.876L911.784,285.646L912.023,285.415L912.263,285.183L912.502,284.951" style="fill:none;fill-rule:nonzero;stroke:black;stroke-width:1px;"/>
            </g>
            <g transform="matrix(1,0,0,-1,0,604.327)">
                <path d="M912.502,309.049L912.742,308.816L912.981,308.582L913.221,308.348L913.46,308.113L913.7,307.878L913.939,307.643L914.658,306.937L914.897,306.702L915.137,306.467L915.377,306.233L915.616,305.998L915.855,305.765L916.095,305.532L916.334,305.299L916.574,305.068L916.814,304.837L917.053,304.607L917.293,304.379L917.532,304.151L917.772,303.925L918.011,303.699L918.251,303.476L918.49,303.254L918.73,303.033L918.969,302.814L919.209,302.596L919.448,302.381L919.688,302.167L919.927,301.956L920.166,301.746L920.406,301.538L920.646,301.333L920.885,301.13L921.125,300.93L921.364,300.731L921.604,300.536L921.843,300.343L922.083,300.152L922.322,299.964L922.561,299.78L922.801,299.598L923.04,299.419L923.28,299.242L923.52,299.07L923.759,298.9L923.999,298.733L924.238,298.57L924.478,298.41L924.717,298.253L924.956,298.1L925.196,297.951L925.435,297.805L925.675,297.662L925.915,297.523L926.154,297.389L926.394,297.257L926.633,297.13L926.873,297.007L927.112,296.887L927.352,296.772L927.591,296.66L927.831,296.553L928.07,296.449L928.31,296.35L928.549,296.255L928.789,296.164L929.028,296.078L929.268,295.996L929.507,295.918L929.747,295.844L929.986,295.775L930.226,295.71L930.465,295.65L930.705,295.594L930.944,295.543L931.184,295.496L931.423,295.454L931.663,295.416L931.902,295.383L932.142,295.354L932.381,295.33L932.621,295.31L932.86,295.295L933.1,295.285L933.339,295.279L933.579,295.277L933.818,295.281L934.058,295.289L934.297,295.301L934.537,295.318L934.776,295.34L935.016,295.366L935.255,295.397L935.495,295.433L935.734,295.473L935.974,295.517L936.213,295.566L936.453,295.619L936.692,295.677L936.932,295.74L937.171,295.807L937.411,295.878L937.65,295.953L937.89,296.033L938.129,296.117L938.369,296.206L938.608,296.298L938.848,296.395L939.087,296.496L939.327,296.602L939.566,296.711L939.806,296.824L940.045,296.942L940.285,297.063L940.524,297.188L940.764,297.317L941.003,297.45L941.243,297.587L941.482,297.727L941.722,297.871L941.961,298.019L942.201,298.17L942.44,298.325L942.68,298.483L942.919,298.645" style="fill:none;fill-rule:nonzero;stroke:black;stroke-width:1px;"/>
            </g>
            <g transform="matrix(1,0,0,-1,0,590.633)">
                <path d="M942.919,284.951L943.159,285.116L943.398,285.284L943.638,285.455L943.877,285.63L944.117,285.807L944.356,285.987L944.596,286.171L944.835,286.357L945.075,286.546L945.314,286.738L945.554,286.932L945.793,287.129L946.033,287.328L946.272,287.53L946.512,287.734L946.751,287.94L946.991,288.149L947.23,288.359L947.47,288.572L947.709,288.786L947.949,289.003L948.188,289.221L948.428,289.441L948.667,289.662L948.907,289.885L949.146,290.109L949.386,290.335L949.625,290.562L949.865,290.79L950.104,291.019L950.344,291.25L950.583,291.481L950.823,291.713L951.062,291.945L951.302,292.179L951.541,292.413L951.781,292.647L952.02,292.882L952.26,293.117L952.499,293.352L953.218,294.058L953.457,294.293L953.697,294.528L953.936,294.762L954.176,294.996L954.415,295.23L954.655,295.463L954.894,295.695L955.134,295.926L955.373,296.157L955.613,296.387L955.852,296.615L956.092,296.843L956.331,297.069L956.571,297.294L956.81,297.517L957.05,297.739L957.289,297.96L957.529,298.179L957.768,298.396L958.008,298.611L958.247,298.824L958.487,299.036L958.726,299.245L958.966,299.452L959.205,299.657L959.445,299.86L959.684,300.06L959.924,300.258L960.163,300.453L960.403,300.646L960.642,300.836L960.882,301.023L961.121,301.208L961.361,301.389L961.6,301.568L961.84,301.743L962.079,301.916L962.319,302.085L962.558,302.251L962.798,302.414L963.037,302.573L963.277,302.729L963.516,302.882L963.756,303.031L963.995,303.177L964.235,303.318L964.474,303.457L964.714,303.591L964.953,303.722L965.193,303.848L965.432,303.971L965.672,304.09L965.911,304.205L966.151,304.316L966.39,304.423L966.63,304.525L966.869,304.624L967.109,304.718L967.348,304.808L967.588,304.894L967.827,304.976L968.067,305.053L968.306,305.126L968.546,305.194L968.785,305.258L969.025,305.318L969.264,305.373L969.504,305.424L969.743,305.47L969.983,305.512L970.222,305.549L970.462,305.582L970.701,305.61L970.941,305.633L971.18,305.652L971.42,305.667L971.659,305.676L971.899,305.681L972.138,305.682L972.378,305.678L972.617,305.669L972.857,305.656L973.096,305.638L973.336,305.616" style="fill:none;fill-rule:nonzero;stroke:black;stroke-width:1px;"/>
            </g>
            <g transform="matrix(1,0,0,-1,0,573.039)">
                <path d="M973.336,288.022L973.575,287.995L973.815,287.963L974.054,287.927L974.294,287.887L974.533,287.842L974.773,287.792L975.012,287.738L975.252,287.679L975.492,287.616L975.731,287.549L975.971,287.477L976.21,287.401L976.449,287.32L976.689,287.235L976.929,287.146L977.168,287.053L977.407,286.956L977.647,286.854L977.886,286.748L978.126,286.638L978.365,286.524L978.605,286.406L978.844,286.284L979.084,286.158L979.324,286.029L979.563,285.895L979.802,285.758L980.042,285.617L980.282,285.472L980.521,285.324L980.761,285.173L981,285.017" style="fill:none;fill-rule:nonzero;stroke:black;stroke-width:1px;"/>
            </g>
        </g>
    </g>
</svg>
