<?xml version="1.0" encoding="UTF-8" standalone="no"?>
<!DOCTYPE svg PUBLIC "-//W3C//DTD SVG 1.1//EN" "http://www.w3.org/Graphics/SVG/1.1/DTD/svg11.dtd">
<svg width="100%" height="100%" viewBox="0 0 256 256" version="1.1" xmlns="http://www.w3.org/2000/svg" xmlns:xlink="http://www.w3.org/1999/xlink" xml:space="preserve" xmlns:serif="http://www.serif.com/" style="fill-rule:evenodd;clip-rule:evenodd;stroke-linecap:round;stroke-linejoin:round;stroke-miterlimit:1.5;">
    <g transform="matrix(0.92388,-0.382683,0.382683,0.92388,-39.2401,58.7269)">
        <path d="M128,16L207.196,48.804L240,128L207.196,207.196L128,240L48.804,207.196L16,128L48.804,48.804L128,16Z" style="fill:rgb(255,0,0);stroke:black;stroke-width:16px;"/>
    </g>
    <g transform="matrix(0.76967,0,0,0.76967,25.9356,28.2989)">
        <g transform="matrix(0.666667,0,0,1.46289,80,-62.8611)">
            <path d="M180,106.836C180,103.063 173.279,100 165,100C156.721,100 150,103.063 150,106.836L150,143.164C150,146.937 156.721,150 165,150C173.279,150 180,146.937 180,143.164L180,106.836Z" style="fill:white;"/>
        </g>
        <g transform="matrix(0.553207,-0.372031,0.668818,0.994528,-102.693,85.5421)">
            <path d="M180,108.344C180,103.739 173.279,100 165,100C156.721,100 150,103.739 150,108.344L150,141.656C150,146.261 156.721,150 165,150C173.279,150 180,146.261 180,141.656L180,108.344Z" style="fill:white;"/>
        </g>
        <g transform="matrix(0.666667,0,0,1.73144,50,-103.144)">
            <path d="M180,105.776C180,102.588 173.279,100 165,100C156.721,100 150,102.588 150,105.776L150,144.224C150,147.412 156.721,150 165,150C173.279,150 180,147.412 180,144.224L180,105.776Z" style="fill:white;"/>
        </g>
        <g transform="matrix(0.666667,0,0,2.13144,20,-163.144)">
            <path d="M180,104.692C180,102.102 173.279,100 165,100C156.721,100 150,102.102 150,104.692L150,145.308C150,147.898 156.721,150 165,150C173.279,150 180,147.898 180,145.308L180,104.692Z" style="fill:white;"/>
        </g>
        <g transform="matrix(0.666667,0,0,2.23075,-10,-163.075)">
            <path d="M180,104.483C180,102.009 173.279,100 165,100C156.721,100 150,102.009 150,104.483L150,145.517C150,147.991 156.721,150 165,150C173.279,150 180,147.991 180,145.517L180,104.483Z" style="fill:white;"/>
        </g>
        <g transform="matrix(0.916625,0,0,1,16.675,0)">
            <path d="M63.392,170L90.904,140L200,140C200,140 200.416,143.896 200,150C198.733,168.602 185.236,199.047 160,204.954C143.554,208.804 128.723,210.777 114.247,207.19C92.761,201.866 77.489,194.529 63.392,170Z" style="fill:white;"/>
        </g>
    </g>
</svg>
