<?xml version="1.0" encoding="UTF-8" standalone="no"?>
<!DOCTYPE svg PUBLIC "-//W3C//DTD SVG 1.1//EN" "http://www.w3.org/Graphics/SVG/1.1/DTD/svg11.dtd">
<svg width="100%" height="100%" viewBox="0 0 405 360" version="1.1" xmlns="http://www.w3.org/2000/svg" xmlns:xlink="http://www.w3.org/1999/xlink" xml:space="preserve" xmlns:serif="http://www.serif.com/" style="fill-rule:evenodd;clip-rule:evenodd;stroke-linecap:square;stroke-miterlimit:10;">
    <g transform="matrix(1,0,0,1,-260,-190)">
        <g transform="matrix(1,0,0,1,-15.9236,11.2266)">
            <rect x="352" y="232" width="256" height="256" style="fill:rgb(34,34,34);fill-opacity:0;fill-rule:nonzero;stroke:rgb(34,34,34);stroke-width:1px;"/>
        </g>
        <g transform="matrix(1,0,0,1,244.076,201.227)">
            <g transform="matrix(1,-0,-0,1,15.9236,-11.2266)">
                <path d="M314.12,26.926L332.076,33.055L314.034,38.926L314.12,26.926Z"/>
                <path d="M76.076,31.227C76.076,31.227 263.649,32.566 317.677,32.952" style="fill:none;stroke:black;stroke-width:1px;stroke-linecap:butt;stroke-linejoin:round;stroke-miterlimit:1.5;"/>
            </g>
        </g>
        <g transform="matrix(1,0,0,1,-13.9219,-294.381)">
            <path d="M305.781,516.217C305.781,514.602 305.948,513.305 306.281,512.326C306.615,511.347 307.104,510.592 307.75,510.061C308.406,509.529 309.229,509.264 310.219,509.264C310.948,509.264 311.589,509.41 312.141,509.701C312.693,509.993 313.146,510.42 313.5,510.982C313.865,511.535 314.146,512.206 314.344,512.998C314.552,513.79 314.656,514.863 314.656,516.217C314.656,517.811 314.49,519.097 314.156,520.076C313.833,521.055 313.344,521.816 312.688,522.357C312.042,522.889 311.219,523.154 310.219,523.154C308.906,523.154 307.88,522.686 307.141,521.748C306.234,520.613 305.781,518.769 305.781,516.217ZM307.5,516.217C307.5,518.446 307.76,519.93 308.281,520.67C308.813,521.41 309.458,521.779 310.219,521.779C310.99,521.779 311.635,521.41 312.156,520.67C312.677,519.92 312.938,518.436 312.938,516.217C312.938,513.977 312.677,512.488 312.156,511.748C311.635,511.009 310.984,510.639 310.203,510.639C309.432,510.639 308.823,510.967 308.375,511.623C307.792,512.446 307.5,513.977 307.5,516.217ZM317.063,522.92L317.063,521.014L318.969,521.014L318.969,522.92C318.969,523.618 318.844,524.18 318.594,524.607C318.344,525.045 317.954,525.378 317.423,525.607L316.954,524.889C317.308,524.743 317.568,524.519 317.735,524.217C317.902,523.915 317.996,523.482 318.016,522.92L317.063,522.92ZM321.34,516.217C321.34,514.602 321.507,513.305 321.84,512.326C322.174,511.347 322.663,510.592 323.309,510.061C323.965,509.529 324.788,509.264 325.778,509.264C326.507,509.264 327.148,509.41 327.7,509.701C328.252,509.993 328.705,510.42 329.059,510.982C329.424,511.535 329.705,512.206 329.903,512.998C330.111,513.79 330.215,514.863 330.215,516.217C330.215,517.811 330.049,519.097 329.715,520.076C329.392,521.055 328.903,521.816 328.247,522.357C327.601,522.889 326.778,523.154 325.778,523.154C324.465,523.154 323.439,522.686 322.7,521.748C321.793,520.613 321.34,518.769 321.34,516.217ZM323.059,516.217C323.059,518.446 323.319,519.93 323.84,520.67C324.372,521.41 325.017,521.779 325.778,521.779C326.549,521.779 327.194,521.41 327.715,520.67C328.236,519.92 328.497,518.436 328.497,516.217C328.497,513.977 328.236,512.488 327.715,511.748C327.194,511.009 326.543,510.639 325.762,510.639C324.991,510.639 324.382,510.967 323.934,511.623C323.351,512.446 323.059,513.977 323.059,516.217Z" style="fill:rgb(34,34,34);fill-rule:nonzero;stroke:rgb(34,34,34);stroke-width:1px;"/>
        </g>
        <g transform="matrix(1,0,0,1,-16.1389,305.963)">
            <path d="M312.078,218.92L310.406,218.92L310.406,208.279C310.01,208.665 309.484,209.05 308.828,209.436C308.172,209.811 307.583,210.097 307.062,210.295L307.062,208.67C308,208.232 308.818,207.701 309.516,207.076C310.214,206.451 310.708,205.847 311,205.264L312.078,205.264L312.078,218.92ZM317.094,218.92L317.094,217.014L319.001,217.014L319.001,218.92L317.094,218.92ZM321.34,212.217C321.34,210.602 321.507,209.305 321.84,208.326C322.174,207.347 322.663,206.592 323.309,206.061C323.965,205.529 324.788,205.264 325.778,205.264C326.507,205.264 327.148,205.41 327.7,205.701C328.252,205.993 328.705,206.42 329.059,206.982C329.424,207.535 329.705,208.206 329.903,208.998C330.111,209.79 330.215,210.863 330.215,212.217C330.215,213.811 330.049,215.097 329.715,216.076C329.392,217.055 328.903,217.816 328.247,218.357C327.601,218.889 326.778,219.154 325.778,219.154C324.465,219.154 323.439,218.686 322.7,217.748C321.793,216.613 321.34,214.769 321.34,212.217ZM323.059,212.217C323.059,214.446 323.319,215.93 323.84,216.67C324.372,217.41 325.017,217.779 325.778,217.779C326.549,217.779 327.194,217.41 327.715,216.67C328.236,215.92 328.497,214.436 328.497,212.217C328.497,209.977 328.236,208.488 327.715,207.748C327.194,207.009 326.543,206.639 325.762,206.639C324.991,206.639 324.382,206.967 323.934,207.623C323.351,208.446 323.059,209.977 323.059,212.217Z" style="fill:rgb(34,34,34);fill-rule:nonzero;stroke:rgb(34,34,34);stroke-width:1px;"/>
        </g>
        <g transform="matrix(1,0,0,1,-16.1389,-294.381)">
            <path d="M632.078,522.92L630.406,522.92L630.406,512.279C630.01,512.665 629.484,513.05 628.828,513.436C628.172,513.811 627.583,514.097 627.062,514.295L627.062,512.67C628,512.232 628.818,511.701 629.516,511.076C630.214,510.451 630.708,509.847 631,509.264L632.078,509.264L632.078,522.92ZM637.094,522.92L637.094,521.014L639.001,521.014L639.001,522.92L637.094,522.92ZM641.34,516.217C641.34,514.602 641.507,513.305 641.84,512.326C642.174,511.347 642.663,510.592 643.309,510.061C643.965,509.529 644.788,509.264 645.778,509.264C646.507,509.264 647.148,509.41 647.7,509.701C648.252,509.993 648.705,510.42 649.059,510.982C649.424,511.535 649.705,512.206 649.903,512.998C650.111,513.79 650.215,514.863 650.215,516.217C650.215,517.811 650.049,519.097 649.715,520.076C649.392,521.055 648.903,521.816 648.246,522.357C647.601,522.889 646.778,523.154 645.778,523.154C644.465,523.154 643.439,522.686 642.7,521.748C641.793,520.613 641.34,518.769 641.34,516.217ZM643.059,516.217C643.059,518.446 643.319,519.93 643.84,520.67C644.371,521.41 645.017,521.779 645.778,521.779C646.549,521.779 647.194,521.41 647.715,520.67C648.236,519.92 648.496,518.436 648.496,516.217C648.496,513.977 648.236,512.488 647.715,511.748C647.194,511.009 646.543,510.639 645.762,510.639C644.991,510.639 644.382,510.967 643.934,511.623C643.351,512.446 643.059,513.977 643.059,516.217Z" style="fill:rgb(34,34,34);fill-rule:nonzero;stroke:rgb(34,34,34);stroke-width:1px;"/>
        </g>
        <g transform="matrix(1,0,0,1,-15.9236,11.2266)">
            <rect id="svg_2" x="352" y="232" width="256" height="256" style="fill:url(#_Linear1);stroke:black;stroke-width:1px;"/>
            <g id="svg_7" transform="matrix(7.89655,0,0,5.9063,476.448,433.8)">
                <text x="-10.336px" y="0px" style="font-family:'LucidaGrande-Bold', 'Lucida Grande', sans-serif;font-weight:600;font-size:36px;">F</text>
                <path d="M-7.527,0C-7.527,0.327 -7.329,0.593 -7.084,0.593L-1.67,0.593C-1.425,0.593 -1.227,0.327 -1.227,0L-1.227,-10.359C-1.227,-10.359 7.33,-10.359 7.33,-10.359C7.575,-10.359 7.773,-10.624 7.773,-10.951L7.773,-14.537C7.773,-14.864 7.575,-15.13 7.33,-15.13L-1.227,-15.13C-1.227,-15.13 -1.227,-21.855 -1.227,-21.855C-1.227,-21.855 9.281,-21.855 9.281,-21.855C9.526,-21.855 9.724,-22.12 9.724,-22.447L9.724,-26.016C9.724,-26.343 9.526,-26.608 9.281,-26.608L-7.084,-26.608C-7.329,-26.608 -7.527,-26.343 -7.527,-26.016L-7.527,0ZM-7.084,0L-7.084,-26.016L9.281,-26.016L9.281,-22.447L-1.67,-22.447L-1.67,-14.537L7.33,-14.537L7.33,-10.951L-1.67,-10.951L-1.67,0L-7.084,0Z" style="fill:white;"/>
            </g>
        </g>
        <g transform="matrix(1,0,0,0.992248,244.076,203.537)">
            <g transform="matrix(1,-0,-0,1.00781,15.9236,-13.6424)">
                <path d="M50.076,291.227L44.076,309.227L38.076,291.227L50.076,291.227Z"/>
                <path d="M44.076,53.227L44.076,294.827" style="fill:none;stroke:black;stroke-width:1px;stroke-linecap:butt;stroke-linejoin:round;stroke-miterlimit:1.5;"/>
            </g>
        </g>
    </g>
    <defs>
        <linearGradient id="_Linear1" x1="0" y1="0" x2="1" y2="0" gradientUnits="userSpaceOnUse" gradientTransform="matrix(256,256,-256,256,352,232)"><stop offset="0" style="stop-color:rgb(255,0,0);stop-opacity:1"/><stop offset="0" style="stop-color:rgb(225,0,255);stop-opacity:1"/><stop offset="0.3" style="stop-color:rgb(0,0,255);stop-opacity:1"/><stop offset="0.46" style="stop-color:rgb(0,255,255);stop-opacity:1"/><stop offset="0.63" style="stop-color:rgb(0,255,0);stop-opacity:1"/><stop offset="0.8" style="stop-color:rgb(255,255,0);stop-opacity:1"/><stop offset="1" style="stop-color:rgb(255,0,0);stop-opacity:1"/></linearGradient>
    </defs>
</svg>
