<?xml version="1.0" encoding="UTF-8" standalone="no"?>
<!DOCTYPE svg PUBLIC "-//W3C//DTD SVG 1.1//EN" "http://www.w3.org/Graphics/SVG/1.1/DTD/svg11.dtd">
<svg width="100%" height="100%" viewBox="0 0 432 112" version="1.1" xmlns="http://www.w3.org/2000/svg" xmlns:xlink="http://www.w3.org/1999/xlink" xml:space="preserve" xmlns:serif="http://www.serif.com/" style="fill-rule:evenodd;clip-rule:evenodd;stroke-linecap:round;stroke-linejoin:round;stroke-miterlimit:1.5;">
    <g transform="matrix(1,0,0,1,-112,-80.6855)">
        <rect x="128" y="128" width="16" height="16" style="fill:rgb(240,177,255);"/>
    </g>
    <g transform="matrix(1,0,0,1,32,8)">
        <g transform="matrix(4,0,0,1,-464,-88)">
            <rect x="128" y="128" width="16" height="16" style="fill:rgb(240,177,255);"/>
        </g>
        <g transform="matrix(1,0,0,1,-60.7084,-84.1641)">
            <text x="136.736px" y="136.459px" style="font-family:'ArialMT', 'Arial', sans-serif;font-size:12px;">Y</text>
        </g>
        <g transform="matrix(1,0,0,1,-96,-88)">
            <path d="M144,128L144,144" style="fill:none;stroke:black;stroke-opacity:0.2;stroke-width:0.5px;"/>
        </g>
    </g>
    <g transform="matrix(1,0,0,1,-32,8)">
        <g transform="matrix(4,0,0,1,-464,-88)">
            <rect x="128" y="128" width="16" height="16" style="fill:rgb(240,177,255);"/>
        </g>
        <g transform="matrix(1,0,0,1,-60.7084,-84.1641)">
            <text x="136.736px" y="136.459px" style="font-family:'ArialMT', 'Arial', sans-serif;font-size:12px;">X</text>
        </g>
        <g transform="matrix(1,0,0,1,-96,-88)">
            <path d="M144,128L144,144" style="fill:none;stroke:black;stroke-opacity:0.2;stroke-width:0.5px;"/>
        </g>
    </g>
    <g transform="matrix(1,0,0,1,16.0938,-80)">
        <rect x="128" y="128" width="16" height="16" style="fill:rgb(255,197,110);"/>
    </g>
    <g transform="matrix(1,0,0,1,11.3677,-76.1641)">
        <text x="136.405px" y="136.459px" style="font-family:'ArialMT', 'Arial', sans-serif;font-size:12px;">R</text>
    </g>
    <g transform="matrix(1,0,0,1,32.0938,-80)">
        <rect x="128" y="128" width="16" height="16" style="fill:rgb(255,197,110);"/>
    </g>
    <g transform="matrix(1,0,0,1,27.3677,-76.1641)">
        <text x="136.071px" y="136.459px" style="font-family:'ArialMT', 'Arial', sans-serif;font-size:12px;">G</text>
    </g>
    <g transform="matrix(1,0,0,1,96.0938,0.685547)">
        <g transform="matrix(1,0,0,1,-48,-80.6855)">
            <rect x="128" y="128" width="16" height="16" style="fill:rgb(255,197,110);"/>
        </g>
        <g transform="matrix(1,0,0,1,-52.726,-76.8497)">
            <text x="136.736px" y="136.459px" style="font-family:'ArialMT', 'Arial', sans-serif;font-size:12px;">B</text>
        </g>
        <g transform="matrix(1,0,0,1,-64.667,-80.6855)">
            <path d="M144,128L144,144" style="fill:none;stroke:black;stroke-opacity:0.2;stroke-width:0.5px;"/>
        </g>
    </g>
    <g transform="matrix(1,0,0,1,112.094,0.685547)">
        <g transform="matrix(1,0,0,1,-48,-80.6855)">
            <rect x="128" y="128" width="16" height="16" style="fill:rgb(255,197,110);"/>
        </g>
        <g transform="matrix(1,0,0,1,-52.726,-76.8497)">
            <text x="136.736px" y="136.459px" style="font-family:'ArialMT', 'Arial', sans-serif;font-size:12px;">A</text>
        </g>
        <g transform="matrix(1,0,0,1,-64.667,-80.6855)">
            <path d="M144,128L144,144" style="fill:none;stroke:black;stroke-opacity:0.2;stroke-width:0.5px;"/>
        </g>
    </g>
    <g transform="matrix(1,0,0,1,-48,-80)">
        <path d="M464,128L448,128L448,144L464,144" style="fill:none;stroke:black;stroke-width:0.5px;"/>
    </g>
    <g transform="matrix(2.4,0,0,0.969399,-291.2,-75.5935)">
        <g transform="matrix(0.416667,-0,-0,1.03157,121.333,77.9797)">
            <path d="M198.53,64.571L208,64L200.767,70.138L198.53,64.571Z"/>
            <path d="M16,64C16,64 58.028,85.717 110.635,85.717C147.591,85.717 186.158,72.493 201.319,66.684" style="fill:none;stroke:black;stroke-width:0.5px;"/>
        </g>
    </g>
    <g transform="matrix(1,0,0,1.55715,-16,-150.423)">
        <g transform="matrix(1,-0,-0,0.6422,16,96.6015)">
            <path d="M147,32.97L144,41.97L141,32.97L147,32.97Z"/>
            <path d="M144,23.978L144,34.77" style="fill:none;stroke:black;stroke-width:0.5px;"/>
        </g>
    </g>
    <g transform="matrix(1,0,0,1,-22.5145,-85.2657)">
        <text x="101.625px" y="106.537px" style="font-family:'ArialMT', 'Arial', sans-serif;font-size:12px;">of<tspan x="111.416px 114.75px " y="106.537px 106.537px ">fs</tspan>et for perV<tspan x="176.115px 182.789px " y="106.537px 106.537px ">er</tspan>texColor</text>
    </g>
    <g transform="matrix(1,0,0,1,-56.244,-6.31258)">
        <text x="151.875px" y="106.537px" style="font-family:'ArialMT', 'Arial', sans-serif;font-size:12px;">stride</text>
    </g>
    <g transform="matrix(4.00293,0,0,1.47825,-496.375,-141.215)">
        <rect x="128" y="123.921" width="32" height="4.079" style="fill:rgb(240,177,255);stroke:black;stroke-width:0.17px;"/>
    </g>
    <g transform="matrix(2,0,0,1.47825,-111.906,-141.215)">
        <rect x="128" y="123.921" width="32" height="4.079" style="fill:rgb(255,197,110);stroke:black;stroke-width:0.28px;"/>
    </g>
    <g transform="matrix(1,0,0,1,-62.4025,-80.0047)">
        <text x="126.352px" y="126.18px" style="font-family:'ArialMT', 'Arial', sans-serif;font-size:4.5px;">ﬂoat32x2 position</text>
    </g>
    <g transform="matrix(1,0,0,1,31.4489,-79.6059)">
        <text x="118.226px" y="126.18px" style="font-family:'ArialMT', 'Arial', sans-serif;font-size:4.5px;">unorm8x4 perV<tspan x="148.744px 151.247px " y="126.18px 126.18px ">er</tspan>texColor</text>
    </g>
    <g transform="matrix(1.99707,0,0,1,-239.531,-80)">
        <rect x="128" y="128" width="32" height="16" style="fill:none;stroke:black;stroke-width:0.32px;"/>
    </g>
    <g transform="matrix(1.99707,0,0,1,-175.625,-80)">
        <rect x="128" y="128" width="32" height="16" style="fill:none;stroke:black;stroke-width:0.32px;"/>
    </g>
    <g transform="matrix(1.33333,0,0,1,-69.2396,-80)">
        <rect x="160" y="128" width="48" height="16" style="fill:none;stroke:black;stroke-width:0.42px;"/>
    </g>
    <g transform="matrix(1,0,0,1,16.0938,-80)">
        <path d="M144,128L144,144" style="fill:none;stroke:black;stroke-opacity:0.2;stroke-width:0.5px;"/>
    </g>
    <g transform="matrix(1,0,0,1,208,-80)">
        <rect x="128" y="128" width="16" height="16" style="fill:rgb(255,197,110);"/>
    </g>
    <g transform="matrix(1,0,0,1,203.274,-76.1641)">
        <text x="136.405px" y="136.459px" style="font-family:'ArialMT', 'Arial', sans-serif;font-size:12px;">R</text>
    </g>
    <g transform="matrix(1,0,0,1,224,-80)">
        <rect x="128" y="128" width="16" height="16" style="fill:rgb(255,197,110);"/>
    </g>
    <g transform="matrix(1,0,0,1,219.274,-76.1641)">
        <text x="136.071px" y="136.459px" style="font-family:'ArialMT', 'Arial', sans-serif;font-size:12px;">G</text>
    </g>
    <g transform="matrix(1,0,0,1,288,0.685547)">
        <g transform="matrix(1,0,0,1,-48,-80.6855)">
            <rect x="128" y="128" width="16" height="16" style="fill:rgb(255,197,110);"/>
        </g>
        <g transform="matrix(1,0,0,1,-52.726,-76.8497)">
            <text x="136.736px" y="136.459px" style="font-family:'ArialMT', 'Arial', sans-serif;font-size:12px;">B</text>
        </g>
        <g transform="matrix(1,0,0,1,-64.667,-80.6855)">
            <path d="M144,128L144,144" style="fill:none;stroke:black;stroke-opacity:0.2;stroke-width:0.5px;"/>
        </g>
    </g>
    <g transform="matrix(1,0,0,1,304,0.685547)">
        <g transform="matrix(1,0,0,1,-48,-80.6855)">
            <rect x="128" y="128" width="16" height="16" style="fill:rgb(255,197,110);"/>
        </g>
        <g transform="matrix(1,0,0,1,-52.726,-76.8497)">
            <text x="136.736px" y="136.459px" style="font-family:'ArialMT', 'Arial', sans-serif;font-size:12px;">A</text>
        </g>
        <g transform="matrix(1,0,0,1,-64.667,-80.6855)">
            <path d="M144,128L144,144" style="fill:none;stroke:black;stroke-opacity:0.2;stroke-width:0.5px;"/>
        </g>
    </g>
    <g transform="matrix(2,0,0,1.47825,80,-141.215)">
        <rect x="128" y="123.921" width="32" height="4.079" style="fill:rgb(255,197,110);stroke:black;stroke-width:0.28px;"/>
    </g>
    <g transform="matrix(1,0,0,1,223.355,-79.6059)">
        <text x="118.226px" y="126.18px" style="font-family:'ArialMT', 'Arial', sans-serif;font-size:4.5px;">unorm8x4 perV<tspan x="148.744px 151.247px " y="126.18px 126.18px ">er</tspan>texColor</text>
    </g>
    <g transform="matrix(1.33333,0,0,1,122.667,-80)">
        <rect x="160" y="128" width="48" height="16" style="fill:none;stroke:black;stroke-width:0.42px;"/>
    </g>
    <g transform="matrix(1,0,0,1,208,-80)">
        <path d="M144,128L144,144" style="fill:none;stroke:black;stroke-opacity:0.2;stroke-width:0.5px;"/>
    </g>
    <g transform="matrix(1,0,0,1,-48,-81.9449)">
        <path d="M448,123.921L464,123.921" style="fill:none;stroke:rgb(3,0,0);stroke-width:0.5px;"/>
    </g>
    <g transform="matrix(1,0,0,1,-112,-80)">
        <path d="M144,128L144,144" style="fill:none;stroke:black;stroke-opacity:0.2;stroke-width:0.5px;"/>
    </g>
    <g transform="matrix(1,0,0,1,-96,-80)">
        <path d="M144,128L144,144" style="fill:none;stroke:black;stroke-opacity:0.2;stroke-width:0.5px;"/>
    </g>
    <g transform="matrix(1,0,0,1,-80,-80)">
        <path d="M144,128L144,144" style="fill:none;stroke:black;stroke-opacity:0.2;stroke-width:0.5px;"/>
    </g>
    <g transform="matrix(1,0,0,1,-48,-80)">
        <path d="M144,128L144,144" style="fill:none;stroke:black;stroke-opacity:0.2;stroke-width:0.5px;"/>
    </g>
    <g transform="matrix(1,0,0,1,-32,-80)">
        <path d="M144,128L144,144" style="fill:none;stroke:black;stroke-opacity:0.2;stroke-width:0.5px;"/>
    </g>
    <g transform="matrix(1,0,0,1,-16,-80)">
        <path d="M144,128L144,144" style="fill:none;stroke:black;stroke-opacity:0.2;stroke-width:0.5px;"/>
    </g>
    <g transform="matrix(1,0,0,1,80,-80.6855)">
        <rect x="128" y="128" width="16" height="16" style="fill:rgb(240,177,255);"/>
    </g>
    <g transform="matrix(1,0,0,1,224,8)">
        <g transform="matrix(4,0,0,1,-464,-88)">
            <rect x="128" y="128" width="16" height="16" style="fill:rgb(240,177,255);"/>
        </g>
        <g transform="matrix(1,0,0,1,-60.7084,-84.1641)">
            <text x="136.736px" y="136.459px" style="font-family:'ArialMT', 'Arial', sans-serif;font-size:12px;">Y</text>
        </g>
        <g transform="matrix(1,0,0,1,-96,-88)">
            <path d="M144,128L144,144" style="fill:none;stroke:black;stroke-opacity:0.2;stroke-width:0.5px;"/>
        </g>
    </g>
    <g transform="matrix(1,0,0,1,160,8)">
        <g transform="matrix(4,0,0,1,-464,-88)">
            <rect x="128" y="128" width="16" height="16" style="fill:rgb(240,177,255);"/>
        </g>
        <g transform="matrix(1,0,0,1,-60.7084,-84.1641)">
            <text x="136.736px" y="136.459px" style="font-family:'ArialMT', 'Arial', sans-serif;font-size:12px;">X</text>
        </g>
        <g transform="matrix(1,0,0,1,-96,-88)">
            <path d="M144,128L144,144" style="fill:none;stroke:black;stroke-opacity:0.2;stroke-width:0.5px;"/>
        </g>
    </g>
    <g transform="matrix(4.00293,0,0,1.47825,-304.375,-141.215)">
        <rect x="128" y="123.921" width="32" height="4.079" style="fill:rgb(240,177,255);stroke:black;stroke-width:0.17px;"/>
    </g>
    <g transform="matrix(1,0,0,1,129.597,-80.0047)">
        <text x="126.352px" y="126.18px" style="font-family:'ArialMT', 'Arial', sans-serif;font-size:4.5px;">ﬂoat32x2 position</text>
    </g>
    <g transform="matrix(1.99707,0,0,1,-47.5313,-80)">
        <rect x="128" y="128" width="32" height="16" style="fill:none;stroke:black;stroke-width:0.32px;"/>
    </g>
    <g transform="matrix(1.99707,0,0,1,16.375,-80)">
        <rect x="128" y="128" width="32" height="16" style="fill:none;stroke:black;stroke-width:0.32px;"/>
    </g>
    <g transform="matrix(1,0,0,1,80,-80)">
        <path d="M144,128L144,144" style="fill:none;stroke:black;stroke-opacity:0.2;stroke-width:0.5px;"/>
    </g>
    <g transform="matrix(1,0,0,1,96,-80)">
        <path d="M144,128L144,144" style="fill:none;stroke:black;stroke-opacity:0.2;stroke-width:0.5px;"/>
    </g>
    <g transform="matrix(1,0,0,1,112,-80)">
        <path d="M144,128L144,144" style="fill:none;stroke:black;stroke-opacity:0.2;stroke-width:0.5px;"/>
    </g>
    <g transform="matrix(1,0,0,1,144,-80)">
        <path d="M144,128L144,144" style="fill:none;stroke:black;stroke-opacity:0.2;stroke-width:0.5px;"/>
    </g>
    <g transform="matrix(1,0,0,1,160,-80)">
        <path d="M144,128L144,144" style="fill:none;stroke:black;stroke-opacity:0.2;stroke-width:0.5px;"/>
    </g>
    <g transform="matrix(1,0,0,1,176,-80)">
        <path d="M144,128L144,144" style="fill:none;stroke:black;stroke-opacity:0.2;stroke-width:0.5px;"/>
    </g>
</svg>
