<?xml version="1.0" encoding="UTF-8" standalone="no"?>
<!DOCTYPE svg PUBLIC "-//W3C//DTD SVG 1.1//EN" "http://www.w3.org/Graphics/SVG/1.1/DTD/svg11.dtd">
<svg width="100%" height="100%" viewBox="0 0 368 112" version="1.1" xmlns="http://www.w3.org/2000/svg" xmlns:xlink="http://www.w3.org/1999/xlink" xml:space="preserve" xmlns:serif="http://www.serif.com/" style="fill-rule:evenodd;clip-rule:evenodd;stroke-linecap:round;stroke-linejoin:round;stroke-miterlimit:1.5;">
    <g transform="matrix(1,0,0,1,-112,-80.6855)">
        <rect x="128" y="128" width="16" height="16" style="fill:rgb(240,177,255);"/>
    </g>
    <g transform="matrix(1,0,0,1,-32,-80.6855)">
        <rect x="128" y="128" width="16" height="16" style="fill:rgb(240,177,255);"/>
    </g>
    <g transform="matrix(1,0,0,1,48,-80.6855)">
        <rect x="128" y="128" width="16" height="16" style="fill:rgb(240,177,255);"/>
    </g>
    <g transform="matrix(1,0,0,1,128,-80.6855)">
        <rect x="128" y="128" width="16" height="16" style="fill:rgb(240,177,255);"/>
    </g>
    <g transform="matrix(1,0,0,1,-116.726,-76.8497)">
        <text x="136.736px" y="136.459px" style="font-family:'ArialMT', 'Arial', sans-serif;font-size:12px;">X</text>
    </g>
    <g transform="matrix(1,0,0,1,-36.726,-76.8497)">
        <text x="136.736px" y="136.459px" style="font-family:'ArialMT', 'Arial', sans-serif;font-size:12px;">X</text>
    </g>
    <g transform="matrix(1,0,0,1,43.274,-76.8497)">
        <text x="136.736px" y="136.459px" style="font-family:'ArialMT', 'Arial', sans-serif;font-size:12px;">X</text>
    </g>
    <g transform="matrix(1,0,0,1,123.274,-76.8497)">
        <text x="136.736px" y="136.459px" style="font-family:'ArialMT', 'Arial', sans-serif;font-size:12px;">X</text>
    </g>
    <g transform="matrix(1,0,0,1,-96,-80.6855)">
        <rect x="128" y="128" width="16" height="16" style="fill:rgb(240,177,255);"/>
    </g>
    <g transform="matrix(1,0,0,1,-16,-80.6855)">
        <rect x="128" y="128" width="16" height="16" style="fill:rgb(240,177,255);"/>
    </g>
    <g transform="matrix(1,0,0,1,64,-80.6855)">
        <rect x="128" y="128" width="16" height="16" style="fill:rgb(240,177,255);"/>
    </g>
    <g transform="matrix(1,0,0,1,144,-80.6855)">
        <rect x="128" y="128" width="16" height="16" style="fill:rgb(240,177,255);"/>
    </g>
    <g transform="matrix(1,0,0,1,-100.726,-76.8497)">
        <text x="136.736px" y="136.459px" style="font-family:'ArialMT', 'Arial', sans-serif;font-size:12px;">Y</text>
    </g>
    <g transform="matrix(1,0,0,1,-20.726,-76.8497)">
        <text x="136.736px" y="136.459px" style="font-family:'ArialMT', 'Arial', sans-serif;font-size:12px;">Y</text>
    </g>
    <g transform="matrix(1,0,0,1,59.274,-76.8497)">
        <text x="136.736px" y="136.459px" style="font-family:'ArialMT', 'Arial', sans-serif;font-size:12px;">Y</text>
    </g>
    <g transform="matrix(1,0,0,1,139.274,-76.8497)">
        <text x="136.736px" y="136.459px" style="font-family:'ArialMT', 'Arial', sans-serif;font-size:12px;">Y</text>
    </g>
    <g transform="matrix(1,0,0,1,-80,-80.6855)">
        <rect x="128" y="128" width="16" height="16" style="fill:rgb(255,197,110);"/>
    </g>
    <g transform="matrix(1,0,0,1,0,-80.6855)">
        <rect x="128" y="128" width="16" height="16" style="fill:rgb(255,197,110);"/>
    </g>
    <g transform="matrix(1,0,0,1,80,-80.6855)">
        <rect x="128" y="128" width="16" height="16" style="fill:rgb(255,197,110);"/>
    </g>
    <g transform="matrix(1,0,0,1,160,-80.6855)">
        <rect x="128" y="128" width="16" height="16" style="fill:rgb(255,197,110);"/>
    </g>
    <g transform="matrix(1,0,0,1,-84.726,-76.8497)">
        <text x="136.405px" y="136.459px" style="font-family:'ArialMT', 'Arial', sans-serif;font-size:12px;">R</text>
    </g>
    <g transform="matrix(1,0,0,1,-4.726,-76.8497)">
        <text x="136.405px" y="136.459px" style="font-family:'ArialMT', 'Arial', sans-serif;font-size:12px;">R</text>
    </g>
    <g transform="matrix(1,0,0,1,75.274,-76.8497)">
        <text x="136.405px" y="136.459px" style="font-family:'ArialMT', 'Arial', sans-serif;font-size:12px;">R</text>
    </g>
    <g transform="matrix(1,0,0,1,155.274,-76.8497)">
        <text x="136.405px" y="136.459px" style="font-family:'ArialMT', 'Arial', sans-serif;font-size:12px;">R</text>
    </g>
    <g transform="matrix(1,0,0,1,-64,-80.6855)">
        <rect x="128" y="128" width="16" height="16" style="fill:rgb(255,197,110);"/>
    </g>
    <g transform="matrix(1,0,0,1,16,-80.6855)">
        <rect x="128" y="128" width="16" height="16" style="fill:rgb(255,197,110);"/>
    </g>
    <g transform="matrix(1,0,0,1,96,-80.6855)">
        <rect x="128" y="128" width="16" height="16" style="fill:rgb(255,197,110);"/>
    </g>
    <g transform="matrix(1,0,0,1,176,-80.6855)">
        <rect x="128" y="128" width="16" height="16" style="fill:rgb(255,197,110);"/>
    </g>
    <g transform="matrix(1,0,0,1,-68.726,-76.8497)">
        <text x="136.071px" y="136.459px" style="font-family:'ArialMT', 'Arial', sans-serif;font-size:12px;">G</text>
    </g>
    <g transform="matrix(1,0,0,1,11.274,-76.8497)">
        <text x="136.071px" y="136.459px" style="font-family:'ArialMT', 'Arial', sans-serif;font-size:12px;">G</text>
    </g>
    <g transform="matrix(1,0,0,1,91.274,-76.8497)">
        <text x="136.071px" y="136.459px" style="font-family:'ArialMT', 'Arial', sans-serif;font-size:12px;">G</text>
    </g>
    <g transform="matrix(1,0,0,1,171.274,-76.8497)">
        <text x="136.071px" y="136.459px" style="font-family:'ArialMT', 'Arial', sans-serif;font-size:12px;">G</text>
    </g>
    <g transform="matrix(1,0,0,1,-48,-80.6855)">
        <rect x="128" y="128" width="16" height="16" style="fill:rgb(255,197,110);"/>
    </g>
    <g transform="matrix(1,0,0,1,32,-80.6855)">
        <rect x="128" y="128" width="16" height="16" style="fill:rgb(255,197,110);"/>
    </g>
    <g transform="matrix(1,0,0,1,112,-80.6855)">
        <rect x="128" y="128" width="16" height="16" style="fill:rgb(255,197,110);"/>
    </g>
    <g transform="matrix(1,0,0,1,192,-80.6855)">
        <rect x="128" y="128" width="16" height="16" style="fill:rgb(255,197,110);"/>
    </g>
    <g transform="matrix(1,0,0,1,-52.726,-76.8497)">
        <text x="136.736px" y="136.459px" style="font-family:'ArialMT', 'Arial', sans-serif;font-size:12px;">B</text>
    </g>
    <g transform="matrix(1,0,0,1,27.274,-76.8497)">
        <text x="136.736px" y="136.459px" style="font-family:'ArialMT', 'Arial', sans-serif;font-size:12px;">B</text>
    </g>
    <g transform="matrix(1,0,0,1,107.274,-76.8497)">
        <text x="136.736px" y="136.459px" style="font-family:'ArialMT', 'Arial', sans-serif;font-size:12px;">B</text>
    </g>
    <g transform="matrix(1,0,0,1,187.274,-76.8497)">
        <text x="136.736px" y="136.459px" style="font-family:'ArialMT', 'Arial', sans-serif;font-size:12px;">B</text>
    </g>
    <g transform="matrix(1,0,0,1,-112,-80.6855)">
        <path d="M464,128L448,128L448,144L464,144" style="fill:none;stroke:black;stroke-width:0.5px;"/>
    </g>
    <g transform="matrix(1,0,0,1,-112,-80.6855)">
        <g transform="matrix(1,-0,-0,1,112,80.6855)">
            <path d="M87.428,67.38L96,63.314L91.582,71.71L87.428,67.38Z"/>
            <path d="M16,63.314C16,63.314 33.511,85.717 55.431,85.717C69.143,85.717 83.388,74.9 90.804,68.299" style="fill:none;stroke:black;stroke-width:0.5px;"/>
        </g>
    </g>
    <g transform="matrix(1,0,0,1,-112,-80.6855)">
        <g transform="matrix(1,-0,-0,1,112,80.6855)">
            <path d="M87.428,67.38L96,63.314L91.582,71.71L87.428,67.38Z"/>
            <path d="M16,63.314C16,63.314 33.511,85.717 55.431,85.717C69.143,85.717 83.388,74.9 90.804,68.299" style="fill:none;stroke:black;stroke-width:0.5px;"/>
        </g>
    </g>
    <g transform="matrix(1,0,0,1,-32,-80.6855)">
        <g transform="matrix(1,-0,-0,1,32,80.6855)">
            <path d="M167.428,67.38L176,63.314L171.582,71.71L167.428,67.38Z" style="fill-opacity:0.19;"/>
            <path d="M96,63.314C96,63.314 113.511,85.717 135.431,85.717C149.143,85.717 163.388,74.9 170.804,68.299" style="fill:none;stroke:black;stroke-opacity:0.19;stroke-width:0.5px;"/>
        </g>
    </g>
    <g transform="matrix(1,0,0,1,48,-80.6855)">
        <g transform="matrix(1,-0,-0,1,-48,80.6855)">
            <path d="M247.428,67.38L256,63.314L251.582,71.71L247.428,67.38Z" style="fill-opacity:0.19;"/>
            <path d="M176,63.314C176,63.314 193.511,85.717 215.431,85.717C229.143,85.717 243.388,74.9 250.804,68.299" style="fill:none;stroke:black;stroke-opacity:0.19;stroke-width:0.5px;"/>
        </g>
    </g>
    <g transform="matrix(1,0,0,1,128,-80.6855)">
        <g transform="matrix(1,-0,-0,1,-128,80.6855)">
            <path d="M327.428,67.38L336,63.314L331.582,71.71L327.428,67.38Z" style="fill-opacity:0.19;"/>
            <path d="M256,63.314C256,63.314 273.511,85.717 295.431,85.717C309.143,85.717 323.388,74.9 330.804,68.299" style="fill:none;stroke:black;stroke-opacity:0.19;stroke-width:0.5px;"/>
        </g>
    </g>
    <g transform="matrix(1,0,0,1.55715,-112,-149.524)">
        <g transform="matrix(1,-0,-0,0.6422,112,96.024)">
            <path d="M51,33.869L48,42.869L45,33.869L51,33.869Z"/>
            <path d="M48,24.877L48,35.669" style="fill:none;stroke:black;stroke-width:0.5px;"/>
        </g>
    </g>
    <g transform="matrix(1,0,0,1,-74.3344,-81.8009)">
        <text x="125.639px" y="106.537px" style="font-family:'ArialMT', 'Arial', sans-serif;font-size:12px;">of<tspan x="135.43px 138.764px " y="106.537px 106.537px ">fs</tspan>et for colors</text>
    </g>
    <g transform="matrix(1,0,0,1,-110.038,-6.92488)">
        <text x="151.875px" y="106.537px" style="font-family:'ArialMT', 'Arial', sans-serif;font-size:12px;">stride</text>
    </g>
    <g transform="matrix(1,0,0,1.47825,-112,-141.901)">
        <rect x="128" y="123.921" width="32" height="4.079" style="fill:rgb(240,177,255);stroke:black;stroke-width:0.4px;"/>
    </g>
    <g transform="matrix(1,0,0,1.47825,-32,-141.901)">
        <rect x="128" y="123.921" width="32" height="4.079" style="fill:rgb(240,177,255);stroke:black;stroke-width:0.4px;"/>
    </g>
    <g transform="matrix(1,0,0,1.47825,48,-141.901)">
        <rect x="128" y="123.921" width="32" height="4.079" style="fill:rgb(240,177,255);stroke:black;stroke-width:0.4px;"/>
    </g>
    <g transform="matrix(1,0,0,1.47825,128,-141.901)">
        <rect x="128" y="123.921" width="32" height="4.079" style="fill:rgb(240,177,255);stroke:black;stroke-width:0.4px;"/>
    </g>
    <g transform="matrix(1.5,0,0,1.47825,-144,-141.901)">
        <rect x="128" y="123.921" width="32" height="4.079" style="fill:rgb(255,197,110);stroke:black;stroke-width:0.34px;"/>
    </g>
    <g transform="matrix(1.5,0,0,1.47825,-64,-141.901)">
        <rect x="128" y="123.921" width="32" height="4.079" style="fill:rgb(255,197,110);stroke:black;stroke-width:0.34px;"/>
    </g>
    <g transform="matrix(1.5,0,0,1.47825,16,-141.901)">
        <rect x="128" y="123.921" width="32" height="4.079" style="fill:rgb(255,197,110);stroke:black;stroke-width:0.34px;"/>
    </g>
    <g transform="matrix(1.5,0,0,1.47825,96,-141.901)">
        <rect x="128" y="123.921" width="32" height="4.079" style="fill:rgb(255,197,110);stroke:black;stroke-width:0.34px;"/>
    </g>
    <g transform="matrix(1,0,0,1,-111.641,-80.5579)">
        <text x="130.106px" y="126.18px" style="font-family:'ArialMT', 'Arial', sans-serif;font-size:4.5px;">vec2f position</text>
    </g>
    <g transform="matrix(1,0,0,1,-31.6408,-80.5579)">
        <text x="130.106px" y="126.18px" style="font-family:'ArialMT', 'Arial', sans-serif;font-size:4.5px;">vec2f position</text>
    </g>
    <g transform="matrix(1,0,0,1,48.3592,-80.5579)">
        <text x="130.106px" y="126.18px" style="font-family:'ArialMT', 'Arial', sans-serif;font-size:4.5px;">vec2f position</text>
    </g>
    <g transform="matrix(1,0,0,1,128.359,-80.5579)">
        <text x="130.106px" y="126.18px" style="font-family:'ArialMT', 'Arial', sans-serif;font-size:4.5px;">vec2f position</text>
    </g>
    <g transform="matrix(1,0,0,1,-71.6408,-80.5579)">
        <text x="132.984px" y="126.18px" style="font-family:'ArialMT', 'Arial', sans-serif;font-size:4.5px;">vec3f color</text>
    </g>
    <g transform="matrix(1,0,0,1,8.35921,-80.5579)">
        <text x="132.984px" y="126.18px" style="font-family:'ArialMT', 'Arial', sans-serif;font-size:4.5px;">vec3f color</text>
    </g>
    <g transform="matrix(1,0,0,1,88.3592,-80.5579)">
        <text x="132.984px" y="126.18px" style="font-family:'ArialMT', 'Arial', sans-serif;font-size:4.5px;">vec3f color</text>
    </g>
    <g transform="matrix(1,0,0,1,168.359,-80.5579)">
        <text x="132.984px" y="126.18px" style="font-family:'ArialMT', 'Arial', sans-serif;font-size:4.5px;">vec3f color</text>
    </g>
    <g transform="matrix(1,0,0,1,-112,-80.6855)">
        <rect x="128" y="128" width="32" height="16" style="fill:none;stroke:black;stroke-width:0.5px;"/>
    </g>
    <g transform="matrix(1,0,0,1,-32,-80.6855)">
        <rect x="128" y="128" width="32" height="16" style="fill:none;stroke:black;stroke-width:0.5px;"/>
    </g>
    <g transform="matrix(1,0,0,1,48,-80.6855)">
        <rect x="128" y="128" width="32" height="16" style="fill:none;stroke:black;stroke-width:0.5px;"/>
    </g>
    <g transform="matrix(1,0,0,1,128,-80.6855)">
        <rect x="128" y="128" width="32" height="16" style="fill:none;stroke:black;stroke-width:0.5px;"/>
    </g>
    <g transform="matrix(1,0,0,1,-112,-80.6855)">
        <rect x="160" y="128" width="48" height="16" style="fill:none;stroke:black;stroke-width:0.5px;"/>
    </g>
    <g transform="matrix(1,0,0,1,-32,-80.6855)">
        <rect x="160" y="128" width="48" height="16" style="fill:none;stroke:black;stroke-width:0.5px;"/>
    </g>
    <g transform="matrix(1,0,0,1,48,-80.6855)">
        <rect x="160" y="128" width="48" height="16" style="fill:none;stroke:black;stroke-width:0.5px;"/>
    </g>
    <g transform="matrix(1,0,0,1,128,-80.6855)">
        <rect x="160" y="128" width="48" height="16" style="fill:none;stroke:black;stroke-width:0.5px;"/>
    </g>
    <g transform="matrix(1,0,0,1,-112,-80.6855)">
        <path d="M144,128L144,144" style="fill:none;stroke:black;stroke-opacity:0.2;stroke-width:0.5px;"/>
    </g>
    <g transform="matrix(1,0,0,1,-32,-80.6855)">
        <path d="M144,128L144,144" style="fill:none;stroke:black;stroke-opacity:0.2;stroke-width:0.5px;"/>
    </g>
    <g transform="matrix(1,0,0,1,48,-80.6855)">
        <path d="M144,128L144,144" style="fill:none;stroke:black;stroke-opacity:0.2;stroke-width:0.5px;"/>
    </g>
    <g transform="matrix(1,0,0,1,128,-80.6855)">
        <path d="M144,128L144,144" style="fill:none;stroke:black;stroke-opacity:0.2;stroke-width:0.5px;"/>
    </g>
    <g transform="matrix(1,0,0,1,-80,-80.6855)">
        <path d="M144,128L144,144" style="fill:none;stroke:black;stroke-opacity:0.2;stroke-width:0.5px;"/>
    </g>
    <g transform="matrix(1,0,0,1,0,-80.6855)">
        <path d="M144,128L144,144" style="fill:none;stroke:black;stroke-opacity:0.2;stroke-width:0.5px;"/>
    </g>
    <g transform="matrix(1,0,0,1,80,-80.6855)">
        <path d="M144,128L144,144" style="fill:none;stroke:black;stroke-opacity:0.2;stroke-width:0.5px;"/>
    </g>
    <g transform="matrix(1,0,0,1,160,-80.6855)">
        <path d="M144,128L144,144" style="fill:none;stroke:black;stroke-opacity:0.2;stroke-width:0.5px;"/>
    </g>
    <g transform="matrix(1,0,0,1,-64.667,-80.6855)">
        <path d="M144,128L144,144" style="fill:none;stroke:black;stroke-opacity:0.2;stroke-width:0.5px;"/>
    </g>
    <g transform="matrix(1,0,0,1,15.333,-80.6855)">
        <path d="M144,128L144,144" style="fill:none;stroke:black;stroke-opacity:0.2;stroke-width:0.5px;"/>
    </g>
    <g transform="matrix(1,0,0,1,95.333,-80.6855)">
        <path d="M144,128L144,144" style="fill:none;stroke:black;stroke-opacity:0.2;stroke-width:0.5px;"/>
    </g>
    <g transform="matrix(1,0,0,1,175.333,-80.6855)">
        <path d="M144,128L144,144" style="fill:none;stroke:black;stroke-opacity:0.2;stroke-width:0.5px;"/>
    </g>
    <g transform="matrix(1,0,0,1,-112,-82.6305)">
        <path d="M448,123.921L464,123.921" style="fill:none;stroke:rgb(3,0,0);stroke-width:0.5px;"/>
    </g>
</svg>
