<?xml version="1.0" encoding="UTF-8" standalone="no"?>
<!DOCTYPE svg PUBLIC "-//W3C//DTD SVG 1.1//EN" "http://www.w3.org/Graphics/SVG/1.1/DTD/svg11.dtd">
<svg width="100%" height="100%" viewBox="0 0 550 112" version="1.1" xmlns="http://www.w3.org/2000/svg" xmlns:xlink="http://www.w3.org/1999/xlink" xml:space="preserve" xmlns:serif="http://www.serif.com/" style="fill-rule:evenodd;clip-rule:evenodd;stroke-linecap:round;stroke-linejoin:round;stroke-miterlimit:1.5;">
    <g transform="matrix(1,0,0,1,-112,-80.6855)">
        <rect x="128" y="128" width="16" height="16" style="fill:rgb(240,177,255);"/>
    </g>
    <g transform="matrix(1,0,0,1,32,8)">
        <g transform="matrix(4,0,0,1,-464,-88)">
            <rect x="128" y="128" width="16" height="16" style="fill:rgb(240,177,255);"/>
        </g>
        <g transform="matrix(1,0,0,1,-60.7084,-84.1641)">
            <text x="136.736px" y="136.459px" style="font-family:'ArialMT', 'Arial', sans-serif;font-size:12px;">Y</text>
        </g>
        <g transform="matrix(1,0,0,1,-96,-88)">
            <path d="M144,128L144,144" style="fill:none;stroke:black;stroke-opacity:0.2;stroke-width:0.5px;"/>
        </g>
    </g>
    <g transform="matrix(1,0,0,1,-32,8)">
        <g transform="matrix(4,0,0,1,-464,-88)">
            <rect x="128" y="128" width="16" height="16" style="fill:rgb(240,177,255);"/>
        </g>
        <g transform="matrix(1,0,0,1,-60.7084,-84.1641)">
            <text x="136.736px" y="136.459px" style="font-family:'ArialMT', 'Arial', sans-serif;font-size:12px;">X</text>
        </g>
        <g transform="matrix(1,0,0,1,-96,-88)">
            <path d="M144,128L144,144" style="fill:none;stroke:black;stroke-opacity:0.2;stroke-width:0.5px;"/>
        </g>
    </g>
    <g transform="matrix(1,0,0,1,96,8)">
        <g transform="matrix(4,0,0,1,-464,-88)">
            <rect x="128" y="128" width="16" height="16" style="fill:rgb(240,177,255);"/>
        </g>
        <g transform="matrix(1,0,0,1,-60.7084,-84.1641)">
            <text x="137.073px" y="136.459px" style="font-family:'ArialMT', 'Arial', sans-serif;font-size:12px;">Z</text>
        </g>
        <g transform="matrix(1,0,0,1,-96,-88)">
            <path d="M144,128L144,144" style="fill:none;stroke:black;stroke-opacity:0.2;stroke-width:0.5px;"/>
        </g>
    </g>
    <g transform="matrix(1,0,0,1,80,-80)">
        <rect x="128" y="128" width="16" height="16" style="fill:rgb(255,197,110);"/>
    </g>
    <g transform="matrix(1,0,0,1,75.274,-76.1641)">
        <text x="136.405px" y="136.459px" style="font-family:'ArialMT', 'Arial', sans-serif;font-size:12px;">R</text>
    </g>
    <g transform="matrix(1,0,0,1,96,-80)">
        <rect x="128" y="128" width="16" height="16" style="fill:rgb(255,197,110);"/>
    </g>
    <g transform="matrix(1,0,0,1,91.274,-76.1641)">
        <text x="136.071px" y="136.459px" style="font-family:'ArialMT', 'Arial', sans-serif;font-size:12px;">G</text>
    </g>
    <g transform="matrix(1,0,0,1,160,0.685547)">
        <g transform="matrix(1,0,0,1,-48,-80.6855)">
            <rect x="128" y="128" width="16" height="16" style="fill:rgb(255,197,110);"/>
        </g>
        <g transform="matrix(1,0,0,1,-52.726,-76.8497)">
            <text x="136.736px" y="136.459px" style="font-family:'ArialMT', 'Arial', sans-serif;font-size:12px;">B</text>
        </g>
        <g transform="matrix(1,0,0,1,-64.667,-80.6855)">
            <path d="M144,128L144,144" style="fill:none;stroke:black;stroke-opacity:0.2;stroke-width:0.5px;"/>
        </g>
    </g>
    <g transform="matrix(1,0,0,1,176,0.685547)">
        <g transform="matrix(1,0,0,1,-48,-80.6855)">
            <rect x="128" y="128" width="16" height="16" style="fill:rgb(255,197,110);"/>
        </g>
        <g transform="matrix(1,0,0,1,-52.726,-76.8497)">
            <text x="136.736px" y="136.459px" style="font-family:'ArialMT', 'Arial', sans-serif;font-size:12px;">A</text>
        </g>
        <g transform="matrix(1,0,0,1,-64.667,-80.6855)">
            <path d="M144,128L144,144" style="fill:none;stroke:black;stroke-opacity:0.2;stroke-width:0.5px;"/>
        </g>
    </g>
    <g transform="matrix(1,0,0,1,80,-80)">
        <path d="M464,128L448,128L448,144L464,144" style="fill:none;stroke:black;stroke-width:0.5px;"/>
    </g>
    <g transform="matrix(3.2,0,0,0.969399,-393.6,-75.5935)">
        <g transform="matrix(0.3125,-0,-0,1.03157,123,77.9797)">
            <path d="M262.516,63.752L272,64L264.264,69.492L262.516,63.752Z"/>
            <path d="M16,64C16,64 72.037,85.717 142.179,85.717C193.192,85.717 246.506,71.544 265.112,66.098" style="fill:none;stroke:black;stroke-width:0.5px;"/>
        </g>
    </g>
    <g transform="matrix(1,0,0,1.55715,48,-151.397)">
        <g transform="matrix(1,-0,-0,0.6422,-48,97.2268)">
            <path d="M211,31.996L208,40.996L205,31.996L211,31.996Z"/>
            <path d="M208,23.004L208,33.796" style="fill:none;stroke:black;stroke-width:0.5px;"/>
        </g>
    </g>
    <g transform="matrix(1,0,0,1,41.4855,-86.2393)">
        <text x="125.639px" y="106.537px" style="font-family:'ArialMT', 'Arial', sans-serif;font-size:12px;">of<tspan x="135.43px 138.764px " y="106.537px 106.537px ">fs</tspan>et for colors</text>
    </g>
    <g transform="matrix(1,0,0,1,-22.4823,-6.31258)">
        <text x="151.875px" y="106.537px" style="font-family:'ArialMT', 'Arial', sans-serif;font-size:12px;">stride</text>
    </g>
    <g transform="matrix(6,0,0,1.47825,-752,-141.215)">
        <rect x="128" y="123.921" width="32" height="4.079" style="fill:rgb(240,177,255);stroke:black;stroke-width:0.11px;"/>
    </g>
    <g transform="matrix(2,0,0,1.47825,-48,-141.215)">
        <rect x="128" y="123.921" width="32" height="4.079" style="fill:rgb(255,197,110);stroke:black;stroke-width:0.28px;"/>
    </g>
    <g transform="matrix(1,0,0,1,-33.0666,-79.5641)">
        <text x="126.352px" y="126.18px" style="font-family:'ArialMT', 'Arial', sans-serif;font-size:4.5px;">ﬂoat32x3 position</text>
    </g>
    <g transform="matrix(1,0,0,1,95.3552,-79.6059)">
        <text x="128.357px" y="126.18px" style="font-family:'ArialMT', 'Arial', sans-serif;font-size:4.5px;">unorm8x4 color</text>
    </g>
    <g transform="matrix(1.99707,0,0,1,-239.531,-80)">
        <rect x="128" y="128" width="32" height="16" style="fill:none;stroke:black;stroke-width:0.32px;"/>
    </g>
    <g transform="matrix(1.99707,0,0,1,-175.625,-80)">
        <rect x="128" y="128" width="32" height="16" style="fill:none;stroke:black;stroke-width:0.32px;"/>
    </g>
    <g transform="matrix(1.99707,0,0,1,-111.531,-80)">
        <rect x="128" y="128" width="32" height="16" style="fill:none;stroke:black;stroke-width:0.32px;"/>
    </g>
    <g transform="matrix(1.33333,0,0,1,-5.33333,-80)">
        <rect x="160" y="128" width="48" height="16" style="fill:none;stroke:black;stroke-width:0.42px;"/>
    </g>
    <g transform="matrix(1,0,0,1,80,-80)">
        <path d="M144,128L144,144" style="fill:none;stroke:black;stroke-opacity:0.2;stroke-width:0.5px;"/>
    </g>
    <g transform="matrix(1,0,0,1,80,-81.9449)">
        <path d="M448,123.921L464,123.921" style="fill:none;stroke:rgb(3,0,0);stroke-width:0.5px;"/>
    </g>
    <g transform="matrix(1,0,0,1,-112,-80)">
        <path d="M144,128L144,144" style="fill:none;stroke:black;stroke-opacity:0.2;stroke-width:0.5px;"/>
    </g>
    <g transform="matrix(1,0,0,1,-96,-80)">
        <path d="M144,128L144,144" style="fill:none;stroke:black;stroke-opacity:0.2;stroke-width:0.5px;"/>
    </g>
    <g transform="matrix(1,0,0,1,-80,-80)">
        <path d="M144,128L144,144" style="fill:none;stroke:black;stroke-opacity:0.2;stroke-width:0.5px;"/>
    </g>
    <g transform="matrix(1,0,0,1,-48,-80)">
        <path d="M144,128L144,144" style="fill:none;stroke:black;stroke-opacity:0.2;stroke-width:0.5px;"/>
    </g>
    <g transform="matrix(1,0,0,1,-32,-80)">
        <path d="M144,128L144,144" style="fill:none;stroke:black;stroke-opacity:0.2;stroke-width:0.5px;"/>
    </g>
    <g transform="matrix(1,0,0,1,-16,-80)">
        <path d="M144,128L144,144" style="fill:none;stroke:black;stroke-opacity:0.2;stroke-width:0.5px;"/>
    </g>
    <g transform="matrix(1,0,0,1,16,-80)">
        <path d="M144,128L144,144" style="fill:none;stroke:black;stroke-opacity:0.2;stroke-width:0.5px;"/>
    </g>
    <g transform="matrix(1,0,0,1,32,-80)">
        <path d="M144,128L144,144" style="fill:none;stroke:black;stroke-opacity:0.2;stroke-width:0.5px;"/>
    </g>
    <g transform="matrix(1,0,0,1,48,-80)">
        <path d="M144,128L144,144" style="fill:none;stroke:black;stroke-opacity:0.2;stroke-width:0.5px;"/>
    </g>
    <g transform="matrix(1,0,0,1,144,-80.6855)">
        <rect x="128" y="128" width="16" height="16" style="fill:rgb(240,177,255);"/>
    </g>
    <g transform="matrix(1,0,0,1,288,8)">
        <g transform="matrix(4,0,0,1,-464,-88)">
            <rect x="128" y="128" width="16" height="16" style="fill:rgb(240,177,255);"/>
        </g>
        <g transform="matrix(1,0,0,1,-60.7084,-84.1641)">
            <text x="136.736px" y="136.459px" style="font-family:'ArialMT', 'Arial', sans-serif;font-size:12px;">Y</text>
        </g>
        <g transform="matrix(1,0,0,1,-96,-88)">
            <path d="M144,128L144,144" style="fill:none;stroke:black;stroke-opacity:0.2;stroke-width:0.5px;"/>
        </g>
    </g>
    <g transform="matrix(1,0,0,1,224,8)">
        <g transform="matrix(4,0,0,1,-464,-88)">
            <rect x="128" y="128" width="16" height="16" style="fill:rgb(240,177,255);"/>
        </g>
        <g transform="matrix(1,0,0,1,-60.7084,-84.1641)">
            <text x="136.736px" y="136.459px" style="font-family:'ArialMT', 'Arial', sans-serif;font-size:12px;">X</text>
        </g>
        <g transform="matrix(1,0,0,1,-96,-88)">
            <path d="M144,128L144,144" style="fill:none;stroke:black;stroke-opacity:0.2;stroke-width:0.5px;"/>
        </g>
    </g>
    <g transform="matrix(1,0,0,1,352,8)">
        <g transform="matrix(4,0,0,1,-464,-88)">
            <rect x="128" y="128" width="16" height="16" style="fill:rgb(240,177,255);"/>
        </g>
        <g transform="matrix(1,0,0,1,-60.7084,-84.1641)">
            <text x="137.073px" y="136.459px" style="font-family:'ArialMT', 'Arial', sans-serif;font-size:12px;">Z</text>
        </g>
        <g transform="matrix(1,0,0,1,-96,-88)">
            <path d="M144,128L144,144" style="fill:none;stroke:black;stroke-opacity:0.2;stroke-width:0.5px;"/>
        </g>
    </g>
    <g transform="matrix(1,0,0,1,336,-80)">
        <rect x="128" y="128" width="16" height="16" style="fill:rgb(255,197,110);"/>
    </g>
    <g transform="matrix(1,0,0,1,331.274,-76.1641)">
        <text x="136.405px" y="136.459px" style="font-family:'ArialMT', 'Arial', sans-serif;font-size:12px;">R</text>
    </g>
    <g transform="matrix(1,0,0,1,352,-80)">
        <rect x="128" y="128" width="16" height="16" style="fill:rgb(255,197,110);"/>
    </g>
    <g transform="matrix(1,0,0,1,347.274,-76.1641)">
        <text x="136.071px" y="136.459px" style="font-family:'ArialMT', 'Arial', sans-serif;font-size:12px;">G</text>
    </g>
    <g transform="matrix(1,0,0,1,416,0.685547)">
        <g transform="matrix(1,0,0,1,-48,-80.6855)">
            <rect x="128" y="128" width="16" height="16" style="fill:rgb(255,197,110);"/>
        </g>
        <g transform="matrix(1,0,0,1,-52.726,-76.8497)">
            <text x="136.736px" y="136.459px" style="font-family:'ArialMT', 'Arial', sans-serif;font-size:12px;">B</text>
        </g>
        <g transform="matrix(1,0,0,1,-64.667,-80.6855)">
            <path d="M144,128L144,144" style="fill:none;stroke:black;stroke-opacity:0.2;stroke-width:0.5px;"/>
        </g>
    </g>
    <g transform="matrix(1,0,0,1,432,0.685547)">
        <g transform="matrix(1,0,0,1,-48,-80.6855)">
            <rect x="128" y="128" width="16" height="16" style="fill:rgb(255,197,110);"/>
        </g>
        <g transform="matrix(1,0,0,1,-52.726,-76.8497)">
            <text x="136.736px" y="136.459px" style="font-family:'ArialMT', 'Arial', sans-serif;font-size:12px;">A</text>
        </g>
        <g transform="matrix(1,0,0,1,-64.667,-80.6855)">
            <path d="M144,128L144,144" style="fill:none;stroke:black;stroke-opacity:0.2;stroke-width:0.5px;"/>
        </g>
    </g>
    <g transform="matrix(6,0,0,1.47825,-496,-141.215)">
        <rect x="128" y="123.921" width="32" height="4.079" style="fill:rgb(240,177,255);stroke:black;stroke-width:0.11px;"/>
    </g>
    <g transform="matrix(2,0,0,1.47825,208,-141.215)">
        <rect x="128" y="123.921" width="32" height="4.079" style="fill:rgb(255,197,110);stroke:black;stroke-width:0.28px;"/>
    </g>
    <g transform="matrix(1,0,0,1,222.933,-79.5641)">
        <text x="126.352px" y="126.18px" style="font-family:'ArialMT', 'Arial', sans-serif;font-size:4.5px;">ﬂoat32x3 position</text>
    </g>
    <g transform="matrix(1,0,0,1,351.355,-79.6059)">
        <text x="128.357px" y="126.18px" style="font-family:'ArialMT', 'Arial', sans-serif;font-size:4.5px;">unorm8x4 color</text>
    </g>
    <g transform="matrix(1.99707,0,0,1,16.4687,-80)">
        <rect x="128" y="128" width="32" height="16" style="fill:none;stroke:black;stroke-width:0.32px;"/>
    </g>
    <g transform="matrix(1.99707,0,0,1,80.375,-80)">
        <rect x="128" y="128" width="32" height="16" style="fill:none;stroke:black;stroke-width:0.32px;"/>
    </g>
    <g transform="matrix(1.99707,0,0,1,144.469,-80)">
        <rect x="128" y="128" width="32" height="16" style="fill:none;stroke:black;stroke-width:0.32px;"/>
    </g>
    <g transform="matrix(1.33333,0,0,1,250.667,-80)">
        <rect x="160" y="128" width="48" height="16" style="fill:none;stroke:black;stroke-width:0.42px;"/>
    </g>
    <g transform="matrix(1,0,0,1,336,-80)">
        <path d="M144,128L144,144" style="fill:none;stroke:black;stroke-opacity:0.2;stroke-width:0.5px;"/>
    </g>
    <g transform="matrix(1,0,0,1,144,-80)">
        <path d="M144,128L144,144" style="fill:none;stroke:black;stroke-opacity:0.2;stroke-width:0.5px;"/>
    </g>
    <g transform="matrix(1,0,0,1,160,-80)">
        <path d="M144,128L144,144" style="fill:none;stroke:black;stroke-opacity:0.2;stroke-width:0.5px;"/>
    </g>
    <g transform="matrix(1,0,0,1,176,-80)">
        <path d="M144,128L144,144" style="fill:none;stroke:black;stroke-opacity:0.2;stroke-width:0.5px;"/>
    </g>
    <g transform="matrix(1,0,0,1,208,-80)">
        <path d="M144,128L144,144" style="fill:none;stroke:black;stroke-opacity:0.2;stroke-width:0.5px;"/>
    </g>
    <g transform="matrix(1,0,0,1,224,-80)">
        <path d="M144,128L144,144" style="fill:none;stroke:black;stroke-opacity:0.2;stroke-width:0.5px;"/>
    </g>
    <g transform="matrix(1,0,0,1,240,-80)">
        <path d="M144,128L144,144" style="fill:none;stroke:black;stroke-opacity:0.2;stroke-width:0.5px;"/>
    </g>
    <g transform="matrix(1,0,0,1,272,-80)">
        <path d="M144,128L144,144" style="fill:none;stroke:black;stroke-opacity:0.2;stroke-width:0.5px;"/>
    </g>
    <g transform="matrix(1,0,0,1,288,-80)">
        <path d="M144,128L144,144" style="fill:none;stroke:black;stroke-opacity:0.2;stroke-width:0.5px;"/>
    </g>
    <g transform="matrix(1,0,0,1,304,-80)">
        <path d="M144,128L144,144" style="fill:none;stroke:black;stroke-opacity:0.2;stroke-width:0.5px;"/>
    </g>
</svg>
