<?xml version="1.0" encoding="UTF-8" standalone="no"?>
<!DOCTYPE svg PUBLIC "-//W3C//DTD SVG 1.1//EN" "http://www.w3.org/Graphics/SVG/1.1/DTD/svg11.dtd">
<svg width="100%" height="100%" viewBox="0 0 368 70" version="1.1" xmlns="http://www.w3.org/2000/svg" xmlns:xlink="http://www.w3.org/1999/xlink" xml:space="preserve" xmlns:serif="http://www.serif.com/" style="fill-rule:evenodd;clip-rule:evenodd;stroke-linecap:round;stroke-linejoin:round;stroke-miterlimit:1.5;">
    <g transform="matrix(1,0,0,1,-112,-107.921)">
        <rect x="128" y="128" width="16" height="16" style="fill:rgb(240,177,255);"/>
    </g>
    <g transform="matrix(1,0,0,1,-80,-107.921)">
        <rect x="128" y="128" width="16" height="16" style="fill:rgb(240,177,255);"/>
    </g>
    <g transform="matrix(1,0,0,1,-48,-107.921)">
        <rect x="128" y="128" width="16" height="16" style="fill:rgb(240,177,255);"/>
    </g>
    <g transform="matrix(1,0,0,1,-16,-107.921)">
        <rect x="128" y="128" width="16" height="16" style="fill:rgb(240,177,255);"/>
    </g>
    <g transform="matrix(1,0,0,1,16,-107.921)">
        <rect x="128" y="128" width="16" height="16" style="fill:rgb(240,177,255);"/>
    </g>
    <g transform="matrix(1,0,0,1,48,-107.921)">
        <rect x="128" y="128" width="16" height="16" style="fill:rgb(240,177,255);"/>
    </g>
    <g transform="matrix(1,0,0,1,80,-107.921)">
        <rect x="128" y="128" width="16" height="16" style="fill:rgb(240,177,255);"/>
    </g>
    <g transform="matrix(1,0,0,1,112,-107.921)">
        <rect x="128" y="128" width="16" height="16" style="fill:rgb(240,177,255);"/>
    </g>
    <g transform="matrix(1,0,0,1,144,-107.921)">
        <rect x="128" y="128" width="16" height="16" style="fill:rgb(240,177,255);"/>
    </g>
    <g transform="matrix(1,0,0,1,176,-107.921)">
        <rect x="128" y="128" width="16" height="16" style="fill:rgb(240,177,255);"/>
    </g>
    <g transform="matrix(1,0,0,1,-116.726,-104.085)">
        <text x="136.736px" y="136.459px" style="font-family:'ArialMT', 'Arial', sans-serif;font-size:12px;">X</text>
    </g>
    <g transform="matrix(1,0,0,1,-84.726,-104.085)">
        <text x="136.736px" y="136.459px" style="font-family:'ArialMT', 'Arial', sans-serif;font-size:12px;">X</text>
    </g>
    <g transform="matrix(1,0,0,1,-52.726,-104.085)">
        <text x="136.736px" y="136.459px" style="font-family:'ArialMT', 'Arial', sans-serif;font-size:12px;">X</text>
    </g>
    <g transform="matrix(1,0,0,1,-20.726,-104.085)">
        <text x="136.736px" y="136.459px" style="font-family:'ArialMT', 'Arial', sans-serif;font-size:12px;">X</text>
    </g>
    <g transform="matrix(1,0,0,1,11.274,-104.085)">
        <text x="136.736px" y="136.459px" style="font-family:'ArialMT', 'Arial', sans-serif;font-size:12px;">X</text>
    </g>
    <g transform="matrix(1,0,0,1,43.274,-104.085)">
        <text x="136.736px" y="136.459px" style="font-family:'ArialMT', 'Arial', sans-serif;font-size:12px;">X</text>
    </g>
    <g transform="matrix(1,0,0,1,75.274,-104.085)">
        <text x="136.736px" y="136.459px" style="font-family:'ArialMT', 'Arial', sans-serif;font-size:12px;">X</text>
    </g>
    <g transform="matrix(1,0,0,1,107.274,-104.085)">
        <text x="136.736px" y="136.459px" style="font-family:'ArialMT', 'Arial', sans-serif;font-size:12px;">X</text>
    </g>
    <g transform="matrix(1,0,0,1,139.274,-104.085)">
        <text x="136.736px" y="136.459px" style="font-family:'ArialMT', 'Arial', sans-serif;font-size:12px;">X</text>
    </g>
    <g transform="matrix(1,0,0,1,171.274,-104.085)">
        <text x="136.736px" y="136.459px" style="font-family:'ArialMT', 'Arial', sans-serif;font-size:12px;">X</text>
    </g>
    <g transform="matrix(1,0,0,1,-96,-107.921)">
        <rect x="128" y="128" width="16" height="16" style="fill:rgb(240,177,255);"/>
    </g>
    <g transform="matrix(1,0,0,1,-64,-107.921)">
        <rect x="128" y="128" width="16" height="16" style="fill:rgb(240,177,255);"/>
    </g>
    <g transform="matrix(1,0,0,1,-32,-107.921)">
        <rect x="128" y="128" width="16" height="16" style="fill:rgb(240,177,255);"/>
    </g>
    <g transform="matrix(1,0,0,1,1.42109e-14,-107.921)">
        <rect x="128" y="128" width="16" height="16" style="fill:rgb(240,177,255);"/>
    </g>
    <g transform="matrix(1,0,0,1,32,-107.921)">
        <rect x="128" y="128" width="16" height="16" style="fill:rgb(240,177,255);"/>
    </g>
    <g transform="matrix(1,0,0,1,64,-107.921)">
        <rect x="128" y="128" width="16" height="16" style="fill:rgb(240,177,255);"/>
    </g>
    <g transform="matrix(1,0,0,1,96,-107.921)">
        <rect x="128" y="128" width="16" height="16" style="fill:rgb(240,177,255);"/>
    </g>
    <g transform="matrix(1,0,0,1,128,-107.921)">
        <rect x="128" y="128" width="16" height="16" style="fill:rgb(240,177,255);"/>
    </g>
    <g transform="matrix(1,0,0,1,160,-107.921)">
        <rect x="128" y="128" width="16" height="16" style="fill:rgb(240,177,255);"/>
    </g>
    <g transform="matrix(1,0,0,1,192,-107.921)">
        <rect x="128" y="128" width="16" height="16" style="fill:rgb(240,177,255);"/>
    </g>
    <g transform="matrix(1,0,0,1,-100.726,-104.085)">
        <text x="136.736px" y="136.459px" style="font-family:'ArialMT', 'Arial', sans-serif;font-size:12px;">Y</text>
    </g>
    <g transform="matrix(1,0,0,1,-68.726,-104.085)">
        <text x="136.736px" y="136.459px" style="font-family:'ArialMT', 'Arial', sans-serif;font-size:12px;">Y</text>
    </g>
    <g transform="matrix(1,0,0,1,-36.726,-104.085)">
        <text x="136.736px" y="136.459px" style="font-family:'ArialMT', 'Arial', sans-serif;font-size:12px;">Y</text>
    </g>
    <g transform="matrix(1,0,0,1,-4.726,-104.085)">
        <text x="136.736px" y="136.459px" style="font-family:'ArialMT', 'Arial', sans-serif;font-size:12px;">Y</text>
    </g>
    <g transform="matrix(1,0,0,1,27.274,-104.085)">
        <text x="136.736px" y="136.459px" style="font-family:'ArialMT', 'Arial', sans-serif;font-size:12px;">Y</text>
    </g>
    <g transform="matrix(1,0,0,1,59.274,-104.085)">
        <text x="136.736px" y="136.459px" style="font-family:'ArialMT', 'Arial', sans-serif;font-size:12px;">Y</text>
    </g>
    <g transform="matrix(1,0,0,1,91.274,-104.085)">
        <text x="136.736px" y="136.459px" style="font-family:'ArialMT', 'Arial', sans-serif;font-size:12px;">Y</text>
    </g>
    <g transform="matrix(1,0,0,1,123.274,-104.085)">
        <text x="136.736px" y="136.459px" style="font-family:'ArialMT', 'Arial', sans-serif;font-size:12px;">Y</text>
    </g>
    <g transform="matrix(1,0,0,1,155.274,-104.085)">
        <text x="136.736px" y="136.459px" style="font-family:'ArialMT', 'Arial', sans-serif;font-size:12px;">Y</text>
    </g>
    <g transform="matrix(1,0,0,1,187.274,-104.085)">
        <text x="136.736px" y="136.459px" style="font-family:'ArialMT', 'Arial', sans-serif;font-size:12px;">Y</text>
    </g>
    <g transform="matrix(1,0,0,1,-112,-107.921)">
        <path d="M464,128L448,128L448,144L464,144" style="fill:none;stroke:black;stroke-width:0.5px;"/>
    </g>
    <g transform="matrix(0.4,0,0,0.465887,-35.2,-31.0083)">
        <g transform="matrix(2.5,-0,-0,2.14644,88,66.5576)">
            <path d="M39.548,40.389L48,36.079L43.824,44.598L39.548,40.389Z"/>
            <path d="M16,36.079C16,36.079 23.005,46.517 31.772,46.517C35.763,46.517 39.867,43.849 42.949,41.21" style="fill:none;stroke:black;stroke-width:0.5px;"/>
        </g>
    </g>
    <g transform="matrix(0.4,0,0,0.465887,-3.2,-31.0083)">
        <g transform="matrix(2.5,-0,-0,2.14644,8,66.5576)">
            <path d="M71.548,40.389L80,36.079L75.824,44.598L71.548,40.389Z" style="fill-opacity:0.2;"/>
            <path d="M48,36.079C48,36.079 55.005,46.517 63.772,46.517C67.763,46.517 71.867,43.849 74.949,41.21" style="fill:none;stroke:black;stroke-opacity:0.2;stroke-width:0.5px;"/>
        </g>
    </g>
    <g transform="matrix(0.4,0,0,0.465887,28.8,-31.0083)">
        <g transform="matrix(2.5,-0,-0,2.14644,-72,66.5576)">
            <path d="M103.548,40.389L112,36.079L107.824,44.598L103.548,40.389Z" style="fill-opacity:0.2;"/>
            <path d="M80,36.079C80,36.079 87.005,46.517 95.772,46.517C99.763,46.517 103.867,43.849 106.949,41.21" style="fill:none;stroke:black;stroke-opacity:0.2;stroke-width:0.5px;"/>
        </g>
    </g>
    <g transform="matrix(0.4,0,0,0.465887,60.8,-31.0083)">
        <g transform="matrix(2.5,-0,-0,2.14644,-152,66.5576)">
            <path d="M135.548,40.389L144,36.079L139.824,44.598L135.548,40.389Z" style="fill-opacity:0.2;"/>
            <path d="M112,36.079C112,36.079 119.005,46.517 127.772,46.517C131.763,46.517 135.867,43.849 138.949,41.21" style="fill:none;stroke:black;stroke-opacity:0.2;stroke-width:0.5px;"/>
        </g>
    </g>
    <g transform="matrix(0.4,0,0,0.465887,92.8,-31.0083)">
        <g transform="matrix(2.5,-0,-0,2.14644,-232,66.5576)">
            <path d="M167.548,40.389L176,36.079L171.824,44.598L167.548,40.389Z" style="fill-opacity:0.2;"/>
            <path d="M144,36.079C144,36.079 151.005,46.517 159.772,46.517C163.763,46.517 167.867,43.849 170.949,41.21" style="fill:none;stroke:black;stroke-opacity:0.2;stroke-width:0.5px;"/>
        </g>
    </g>
    <g transform="matrix(0.4,0,0,0.465887,124.8,-31.0083)">
        <g transform="matrix(2.5,-0,-0,2.14644,-312,66.5576)">
            <path d="M199.548,40.389L208,36.079L203.824,44.598L199.548,40.389Z" style="fill-opacity:0.2;"/>
            <path d="M176,36.079C176,36.079 183.005,46.517 191.772,46.517C195.763,46.517 199.867,43.849 202.949,41.21" style="fill:none;stroke:black;stroke-opacity:0.2;stroke-width:0.5px;"/>
        </g>
    </g>
    <g transform="matrix(0.4,0,0,0.465887,156.8,-31.0083)">
        <g transform="matrix(2.5,-0,-0,2.14644,-392,66.5576)">
            <path d="M231.548,40.389L240,36.079L235.824,44.598L231.548,40.389Z" style="fill-opacity:0.2;"/>
            <path d="M208,36.079C208,36.079 215.005,46.517 223.772,46.517C227.763,46.517 231.867,43.849 234.949,41.21" style="fill:none;stroke:black;stroke-opacity:0.2;stroke-width:0.5px;"/>
        </g>
    </g>
    <g transform="matrix(0.4,0,0,0.465887,188.8,-31.0083)">
        <g transform="matrix(2.5,-0,-0,2.14644,-472,66.5576)">
            <path d="M263.548,40.389L272,36.079L267.824,44.598L263.548,40.389Z" style="fill-opacity:0.2;"/>
            <path d="M240,36.079C240,36.079 247.005,46.517 255.772,46.517C259.763,46.517 263.867,43.849 266.949,41.21" style="fill:none;stroke:black;stroke-opacity:0.2;stroke-width:0.5px;"/>
        </g>
    </g>
    <g transform="matrix(0.4,0,0,0.465887,220.8,-31.0083)">
        <g transform="matrix(2.5,-0,-0,2.14644,-552,66.5576)">
            <path d="M295.548,40.389L304,36.079L299.824,44.598L295.548,40.389Z" style="fill-opacity:0.2;"/>
            <path d="M272,36.079C272,36.079 279.005,46.517 287.772,46.517C291.763,46.517 295.867,43.849 298.949,41.21" style="fill:none;stroke:black;stroke-opacity:0.2;stroke-width:0.5px;"/>
        </g>
    </g>
    <g transform="matrix(0.4,0,0,0.465887,252.8,-31.0083)">
        <g transform="matrix(2.5,-0,-0,2.14644,-632,66.5576)">
            <path d="M327.548,40.389L336,36.079L331.824,44.598L327.548,40.389Z" style="fill-opacity:0.2;"/>
            <path d="M304,36.079C304,36.079 311.005,46.517 319.772,46.517C323.763,46.517 327.867,43.849 330.949,41.21" style="fill:none;stroke:black;stroke-opacity:0.2;stroke-width:0.5px;"/>
        </g>
    </g>
    <g transform="matrix(1,0,0,1,-134.528,-45.8679)">
        <text x="151.875px" y="106.537px" style="font-family:'ArialMT', 'Arial', sans-serif;font-size:12px;">stride</text>
    </g>
    <g transform="matrix(1,0,0,1.49086,-112,-170.751)">
        <rect x="128" y="123.921" width="32" height="4.079" style="fill:rgb(240,177,255);stroke:black;stroke-width:0.39px;"/>
    </g>
    <g transform="matrix(1,0,0,1.49086,-80,-170.751)">
        <rect x="128" y="123.921" width="32" height="4.079" style="fill:rgb(240,177,255);stroke:black;stroke-width:0.39px;"/>
    </g>
    <g transform="matrix(1,0,0,1.49086,-48,-170.751)">
        <rect x="128" y="123.921" width="32" height="4.079" style="fill:rgb(240,177,255);stroke:black;stroke-width:0.39px;"/>
    </g>
    <g transform="matrix(1,0,0,1.49086,-16,-170.751)">
        <rect x="128" y="123.921" width="32" height="4.079" style="fill:rgb(240,177,255);stroke:black;stroke-width:0.39px;"/>
    </g>
    <g transform="matrix(1,0,0,1.49086,16,-170.751)">
        <rect x="128" y="123.921" width="32" height="4.079" style="fill:rgb(240,177,255);stroke:black;stroke-width:0.39px;"/>
    </g>
    <g transform="matrix(1,0,0,1.49086,48,-170.751)">
        <rect x="128" y="123.921" width="32" height="4.079" style="fill:rgb(240,177,255);stroke:black;stroke-width:0.39px;"/>
    </g>
    <g transform="matrix(1,0,0,1.49086,80,-170.751)">
        <rect x="128" y="123.921" width="32" height="4.079" style="fill:rgb(240,177,255);stroke:black;stroke-width:0.39px;"/>
    </g>
    <g transform="matrix(1,0,0,1.49086,112,-170.751)">
        <rect x="128" y="123.921" width="32" height="4.079" style="fill:rgb(240,177,255);stroke:black;stroke-width:0.39px;"/>
    </g>
    <g transform="matrix(1,0,0,1.49086,144,-170.751)">
        <rect x="128" y="123.921" width="32" height="4.079" style="fill:rgb(240,177,255);stroke:black;stroke-width:0.39px;"/>
    </g>
    <g transform="matrix(1,0,0,1.49086,176,-170.751)">
        <rect x="128" y="123.921" width="32" height="4.079" style="fill:rgb(240,177,255);stroke:black;stroke-width:0.39px;"/>
    </g>
    <g transform="matrix(1,0,0,1,-111.738,-107.951)">
        <text x="130.106px" y="126.18px" style="font-family:'ArialMT', 'Arial', sans-serif;font-size:4.5px;">vec2f position</text>
    </g>
    <g transform="matrix(1,0,0,1,-79.7378,-107.951)">
        <text x="130.106px" y="126.18px" style="font-family:'ArialMT', 'Arial', sans-serif;font-size:4.5px;">vec2f position</text>
    </g>
    <g transform="matrix(1,0,0,1,-47.7378,-107.951)">
        <text x="130.106px" y="126.18px" style="font-family:'ArialMT', 'Arial', sans-serif;font-size:4.5px;">vec2f position</text>
    </g>
    <g transform="matrix(1,0,0,1,-15.7378,-107.951)">
        <text x="130.106px" y="126.18px" style="font-family:'ArialMT', 'Arial', sans-serif;font-size:4.5px;">vec2f position</text>
    </g>
    <g transform="matrix(1,0,0,1,16.2622,-107.951)">
        <text x="130.106px" y="126.18px" style="font-family:'ArialMT', 'Arial', sans-serif;font-size:4.5px;">vec2f position</text>
    </g>
    <g transform="matrix(1,0,0,1,48.2622,-107.951)">
        <text x="130.106px" y="126.18px" style="font-family:'ArialMT', 'Arial', sans-serif;font-size:4.5px;">vec2f position</text>
    </g>
    <g transform="matrix(1,0,0,1,80.2622,-107.951)">
        <text x="130.106px" y="126.18px" style="font-family:'ArialMT', 'Arial', sans-serif;font-size:4.5px;">vec2f position</text>
    </g>
    <g transform="matrix(1,0,0,1,112.262,-107.951)">
        <text x="130.106px" y="126.18px" style="font-family:'ArialMT', 'Arial', sans-serif;font-size:4.5px;">vec2f position</text>
    </g>
    <g transform="matrix(1,0,0,1,144.262,-107.951)">
        <text x="130.106px" y="126.18px" style="font-family:'ArialMT', 'Arial', sans-serif;font-size:4.5px;">vec2f position</text>
    </g>
    <g transform="matrix(1,0,0,1,176.262,-107.951)">
        <text x="130.106px" y="126.18px" style="font-family:'ArialMT', 'Arial', sans-serif;font-size:4.5px;">vec2f position</text>
    </g>
    <g transform="matrix(1,0.000106409,0.000106409,0.960985,-112.015,-102.318)">
        <path d="M144,127.35L143.955,144" style="fill:none;stroke:black;stroke-opacity:0.2;stroke-width:0.51px;stroke-linecap:butt;"/>
    </g>
    <g transform="matrix(1,0.000106409,0.000106409,0.960985,-80.0153,-102.318)">
        <path d="M144,127.35L143.955,144" style="fill:none;stroke:black;stroke-opacity:0.2;stroke-width:0.51px;stroke-linecap:butt;"/>
    </g>
    <g transform="matrix(1,0.000106409,0.000106409,0.960985,-48.0153,-102.318)">
        <path d="M144,127.35L143.955,144" style="fill:none;stroke:black;stroke-opacity:0.2;stroke-width:0.51px;stroke-linecap:butt;"/>
    </g>
    <g transform="matrix(1,0.000106409,0.000106409,0.960985,-16.0153,-102.318)">
        <path d="M144,127.35L143.955,144" style="fill:none;stroke:black;stroke-opacity:0.2;stroke-width:0.51px;stroke-linecap:butt;"/>
    </g>
    <g transform="matrix(1,0.000106409,0.000106409,0.960985,15.9847,-102.318)">
        <path d="M144,127.35L143.955,144" style="fill:none;stroke:black;stroke-opacity:0.2;stroke-width:0.51px;stroke-linecap:butt;"/>
    </g>
    <g transform="matrix(1,0.000106409,0.000106409,0.960985,47.9847,-102.318)">
        <path d="M144,127.35L143.955,144" style="fill:none;stroke:black;stroke-opacity:0.2;stroke-width:0.51px;stroke-linecap:butt;"/>
    </g>
    <g transform="matrix(1,0.000106409,0.000106409,0.960985,79.9847,-102.318)">
        <path d="M144,127.35L143.955,144" style="fill:none;stroke:black;stroke-opacity:0.2;stroke-width:0.51px;stroke-linecap:butt;"/>
    </g>
    <g transform="matrix(1,0.000106409,0.000106409,0.960985,111.985,-102.318)">
        <path d="M144,127.35L143.955,144" style="fill:none;stroke:black;stroke-opacity:0.2;stroke-width:0.51px;stroke-linecap:butt;"/>
    </g>
    <g transform="matrix(1,0.000106409,0.000106409,0.960985,143.985,-102.318)">
        <path d="M144,127.35L143.955,144" style="fill:none;stroke:black;stroke-opacity:0.2;stroke-width:0.51px;stroke-linecap:butt;"/>
    </g>
    <g transform="matrix(1,0.000106409,0.000106409,0.960985,175.985,-102.318)">
        <path d="M144,127.35L143.955,144" style="fill:none;stroke:black;stroke-opacity:0.2;stroke-width:0.51px;stroke-linecap:butt;"/>
    </g>
    <g transform="matrix(1,0,0,1,-112,-107.921)">
        <rect x="128" y="128" width="32" height="16" style="fill:none;stroke:black;stroke-width:0.5px;stroke-linecap:butt;"/>
    </g>
    <g transform="matrix(1,0,0,1,-80,-107.921)">
        <rect x="128" y="128" width="32" height="16" style="fill:none;stroke:black;stroke-width:0.5px;stroke-linecap:butt;"/>
    </g>
    <g transform="matrix(1,0,0,1,-48,-107.921)">
        <rect x="128" y="128" width="32" height="16" style="fill:none;stroke:black;stroke-width:0.5px;stroke-linecap:butt;"/>
    </g>
    <g transform="matrix(1,0,0,1,-16,-107.921)">
        <rect x="128" y="128" width="32" height="16" style="fill:none;stroke:black;stroke-width:0.5px;stroke-linecap:butt;"/>
    </g>
    <g transform="matrix(1,0,0,1,16,-107.921)">
        <rect x="128" y="128" width="32" height="16" style="fill:none;stroke:black;stroke-width:0.5px;stroke-linecap:butt;"/>
    </g>
    <g transform="matrix(1,0,0,1,48,-107.921)">
        <rect x="128" y="128" width="32" height="16" style="fill:none;stroke:black;stroke-width:0.5px;stroke-linecap:butt;"/>
    </g>
    <g transform="matrix(1,0,0,1,80,-107.921)">
        <rect x="128" y="128" width="32" height="16" style="fill:none;stroke:black;stroke-width:0.5px;stroke-linecap:butt;"/>
    </g>
    <g transform="matrix(1,0,0,1,112,-107.921)">
        <rect x="128" y="128" width="32" height="16" style="fill:none;stroke:black;stroke-width:0.5px;stroke-linecap:butt;"/>
    </g>
    <g transform="matrix(1,0,0,1,144,-107.921)">
        <rect x="128" y="128" width="32" height="16" style="fill:none;stroke:black;stroke-width:0.5px;stroke-linecap:butt;"/>
    </g>
    <g transform="matrix(1,0,0,1,176,-107.921)">
        <rect x="128" y="128" width="32" height="16" style="fill:none;stroke:black;stroke-width:0.5px;stroke-linecap:butt;"/>
    </g>
    <g transform="matrix(1,0,0,1,-112,-109.923)">
        <path d="M448,123.921L464,123.921" style="fill:none;stroke:rgb(12,0,0);stroke-width:0.5px;stroke-linecap:butt;"/>
    </g>
</svg>
