<?xml version="1.0" encoding="UTF-8" standalone="no"?>
<!DOCTYPE svg PUBLIC "-//W3C//DTD SVG 1.1//EN" "http://www.w3.org/Graphics/SVG/1.1/DTD/svg11.dtd">
<svg width="100%" height="100%" viewBox="0 0 520 400" version="1.1" xmlns="http://www.w3.org/2000/svg" xmlns:xlink="http://www.w3.org/1999/xlink" xml:space="preserve" xmlns:serif="http://www.serif.com/" style="fill-rule:evenodd;clip-rule:evenodd;stroke-linecap:round;stroke-linejoin:round;stroke-miterlimit:1.5;">
    <g transform="matrix(1,0,0,1,-4.23467,-3.62172)">
        <g transform="matrix(1,0,0,1,100,100)">
            <rect x="20" y="20" width="120" height="120" style="fill:rgb(255,255,0);stroke:black;stroke-width:0.83px;"/>
        </g>
        <g transform="matrix(1,0,0,1,100,220)">
            <rect x="20" y="20" width="120" height="120" style="fill:rgb(106,255,0);stroke:black;stroke-width:0.83px;"/>
        </g>
        <g transform="matrix(1,0,0,1,220,100)">
            <rect x="20" y="20" width="120" height="120" style="fill:rgb(200,255,0);stroke:black;stroke-width:0.83px;"/>
        </g>
        <g transform="matrix(1,0,0,1,220,220)">
            <rect x="20" y="20" width="120" height="120" style="fill:rgb(0,255,132);stroke:black;stroke-width:0.83px;"/>
        </g>
        <g transform="matrix(1,0,0,1,340,100)">
            <rect x="20" y="20" width="120" height="120" style="fill:rgb(157,255,0);stroke:black;stroke-width:0.83px;"/>
        </g>
        <g transform="matrix(1,0,0,1,340,220)">
            <rect x="20" y="20" width="120" height="120" style="fill:rgb(0,255,212);stroke:black;stroke-width:0.83px;"/>
        </g>
        <g transform="matrix(1,0,0,1,14.3879,5.68434e-14)">
            <g transform="matrix(1,0,0,1,0,-100)">
                <g transform="matrix(1,-0,-0,1,-10.1533,103.622)">
                    <path d="M97.966,120.441L110.153,116.378L97.966,112.316L97.966,120.441Z"/>
                    <path d="M100.403,116.378L70.153,116.378" style="fill:none;stroke:black;stroke-width:2.71px;stroke-linecap:butt;"/>
                </g>
            </g>
            <g transform="matrix(1,0,0,1,0,20)">
                <g transform="matrix(1,-0,-0,1,-10.1533,-16.3783)">
                    <path d="M97.966,240.441L110.153,236.378L97.966,232.316L97.966,240.441Z"/>
                    <path d="M100.403,236.378L70.153,236.378" style="fill:none;stroke:black;stroke-width:2.71px;stroke-linecap:butt;"/>
                </g>
            </g>
            <g transform="matrix(1,0,0,1,0,140)">
                <g transform="matrix(1,-0,-0,1,-10.1533,-136.378)">
                    <path d="M97.966,360.441L110.153,356.378L97.966,352.316L97.966,360.441Z"/>
                    <path d="M100.403,356.378L70.153,356.378" style="fill:none;stroke:black;stroke-width:2.71px;stroke-linecap:butt;"/>
                </g>
            </g>
            <g transform="matrix(1,0,0,1,-79.2241,-11.4526)">
                <text x="104.81px" y="138.812px" style="font-family:'ArialMT', 'Arial', sans-serif;font-size:20.833px;">0.0</text>
            </g>
            <g transform="matrix(1,0,0,1,-79.2241,108.547)">
                <text x="104.81px" y="138.812px" style="font-family:'ArialMT', 'Arial', sans-serif;font-size:20.833px;">1.0</text>
            </g>
            <g transform="matrix(1,0,0,1,-79.2241,226.162)">
                <text x="104.81px" y="138.812px" style="font-family:'ArialMT', 'Arial', sans-serif;font-size:20.833px;">2.0</text>
            </g>
        </g>
        <g transform="matrix(1,0,0,1,300.792,150.048)">
            <text x="93.806px" y="138.812px" style="font-family:'ArialMT', 'Arial', sans-serif;font-size:16.667px;">2.5,1.5</text>
        </g>
        <g transform="matrix(1,0,0,1,0,-100)">
            <circle cx="180" cy="280" r="4.854"/>
        </g>
        <g transform="matrix(1,0,0,1,-0.14644,19.8536)">
            <circle cx="180" cy="280" r="4.854"/>
        </g>
        <g transform="matrix(1,0,0,1,120,-100)">
            <circle cx="180" cy="280" r="4.854"/>
        </g>
        <g transform="matrix(1,0,0,1,119.854,19.8536)">
            <circle cx="180" cy="280" r="4.854"/>
        </g>
        <g transform="matrix(1,0,0,1,240.146,-99.8536)">
            <circle cx="180" cy="280" r="4.854"/>
        </g>
        <g transform="matrix(1,0,0,1,240,20)">
            <circle cx="180" cy="280" r="4.854"/>
        </g>
    </g>
    <g transform="matrix(1,0,0,1,-10.0589,30.2124)">
        <g transform="matrix(1,0,0,1,6.4502,-24.974)">
            <g transform="matrix(6.12323e-17,1,-1,6.12323e-17,340,-2.84217e-14)">
                <g transform="matrix(6.12323e-17,-1,1,6.12323e-17,-5.23844,336.391)">
                    <path d="M112.329,93.051L116.391,105.238L120.454,93.051L112.329,93.051Z"/>
                    <path d="M116.391,95.488L116.391,65.238" style="fill:none;stroke:black;stroke-width:2.71px;stroke-linecap:butt;"/>
                </g>
            </g>
            <g transform="matrix(6.12323e-17,1,-1,6.12323e-17,460,-2.84217e-14)">
                <g transform="matrix(6.12323e-17,-1,1,6.12323e-17,-5.23844,456.391)">
                    <path d="M232.329,93.051L236.391,105.238L240.454,93.051L232.329,93.051Z"/>
                    <path d="M236.391,95.488L236.391,65.238" style="fill:none;stroke:black;stroke-width:2.71px;stroke-linecap:butt;"/>
                </g>
            </g>
            <g transform="matrix(6.12323e-17,1,-1,6.12323e-17,580,-2.84217e-14)">
                <g transform="matrix(6.12323e-17,-1,1,6.12323e-17,-5.23844,576.391)">
                    <path d="M352.329,93.051L356.391,105.238L360.454,93.051L352.329,93.051Z"/>
                    <path d="M356.391,95.488L356.391,65.238" style="fill:none;stroke:black;stroke-width:2.71px;stroke-linecap:butt;"/>
                </g>
            </g>
            <g transform="matrix(6.12323e-17,1,-1,6.12323e-17,700,-2.84217e-14)">
                <g transform="matrix(6.12323e-17,-1,1,6.12323e-17,-5.23844,696.391)">
                    <path d="M472.329,93.051L476.391,105.238L480.454,93.051L472.329,93.051Z"/>
                    <path d="M476.391,95.488L476.391,65.238" style="fill:none;stroke:black;stroke-width:2.71px;stroke-linecap:butt;"/>
                </g>
            </g>
        </g>
        <g transform="matrix(1,0,0,1,6.3913,-25.2384)">
            <g transform="matrix(1,0,0,1,0.775946,-88.8125)">
                <text x="104.81px" y="138.812px" style="font-family:'ArialMT', 'Arial', sans-serif;font-size:20.833px;">0.0</text>
            </g>
            <g transform="matrix(1,0,0,1,120.776,-88.8125)">
                <text x="104.81px" y="138.812px" style="font-family:'ArialMT', 'Arial', sans-serif;font-size:20.833px;">1.0</text>
            </g>
            <g transform="matrix(1,0,0,1,240.776,-88.8125)">
                <text x="104.81px" y="138.812px" style="font-family:'ArialMT', 'Arial', sans-serif;font-size:20.833px;">2.0</text>
            </g>
            <g transform="matrix(1,0,0,1,360.894,-88.8125)">
                <text x="104.81px" y="138.812px" style="font-family:'ArialMT', 'Arial', sans-serif;font-size:20.833px;">3.0</text>
            </g>
        </g>
    </g>
</svg>
