<?xml version="1.0" encoding="UTF-8" standalone="no"?>
<!DOCTYPE svg PUBLIC "-//W3C//DTD SVG 1.1//EN" "http://www.w3.org/Graphics/SVG/1.1/DTD/svg11.dtd">
<svg width="100%" height="100%" viewBox="0 0 400 272" version="1.1" xmlns="http://www.w3.org/2000/svg" xmlns:xlink="http://www.w3.org/1999/xlink" xml:space="preserve" xmlns:serif="http://www.serif.com/" style="fill-rule:evenodd;clip-rule:evenodd;stroke-linejoin:round;stroke-miterlimit:2;">
    <g transform="matrix(0.7,0,0,0.7,-6.4,-6.4)">
        <rect x="32" y="32" width="160" height="160" style="fill:rgb(255,0,0);"/>
    </g>
    <g transform="matrix(0.7,0,0,0.7,121.6,-6.4)">
        <rect x="32" y="32" width="160" height="160" style="fill:rgb(0,255,0);"/>
    </g>
    <g transform="matrix(0.7,0,0,0.7,249.6,-6.4)">
        <rect x="32" y="32" width="160" height="160" style="fill:rgb(0,0,255);"/>
    </g>
    <g transform="matrix(0.7,0,0,0.7,-6.4,125.6)">
        <rect x="32" y="32" width="160" height="160" style="fill:rgb(128,128,128);"/>
    </g>
    <g transform="matrix(0.7,0,0,0.7,121.6,125.6)">
        <rect x="32" y="32" width="160" height="160" style="fill:rgb(220,220,220);"/>
    </g>
    <g transform="matrix(0.7,0,0,0.7,249.6,125.6)">
        <rect x="32" y="32" width="160" height="160" style="fill:rgb(77,77,77);"/>
    </g>
</svg>
